<?xml version="1.0" encoding="UTF-8" standalone="no"?>
<!-- Generator: Adobe Illustrator 26.1.0, SVG Export Plug-In . SVG Version: 6.00 Build 0)  -->

<svg
   version="1.1"
   x="0px"
   y="0px"
   viewBox="0 0 410.9 386.3"
   style="enable-background:new 0 0 410.9 386.3;"
   xml:space="preserve"
   id="svg109"
   sodipodi:docname="cdmft.svg"
   inkscape:version="1.4.2 (ebf0e940d0, 2025-05-08)"
   xmlns:inkscape="http://www.inkscape.org/namespaces/inkscape"
   xmlns:sodipodi="http://sodipodi.sourceforge.net/DTD/sodipodi-0.dtd"
   xmlns="http://www.w3.org/2000/svg"
   xmlns:svg="http://www.w3.org/2000/svg"><defs
   id="defs109" /><sodipodi:namedview
   id="namedview109"
   pagecolor="#ffffff"
   bordercolor="#000000"
   borderopacity="0.25"
   inkscape:showpageshadow="2"
   inkscape:pageopacity="0.0"
   inkscape:pagecheckerboard="0"
   inkscape:deskcolor="#d1d1d1"
   inkscape:zoom="1.752524"
   inkscape:cx="205.70332"
   inkscape:cy="193.14999"
   inkscape:window-width="1500"
   inkscape:window-height="928"
   inkscape:window-x="0"
   inkscape:window-y="0"
   inkscape:window-maximized="1"
   inkscape:current-layer="svg109" />
<style
   type="text/css"
   id="style1">
	.st0{fill:#884D91;}
	.st1{fill:#55365B;}
	.st2{fill:none;stroke:#000000;stroke-miterlimit:10;}
	.st3{fill:none;stroke:#000000;stroke-width:0.5;stroke-miterlimit:10;}
	.st4{fill:none;stroke:#000000;stroke-width:1.0091;stroke-miterlimit:10;}
	.st5{fill:none;stroke:#000000;stroke-width:0.5046;stroke-miterlimit:10;}
	.st6{fill:#EA4D8F;}
	.st7{fill:#9F3263;}
	.st8{fill:none;stroke:#000000;stroke-miterlimit:10;stroke-dasharray:3.85;}
	.st9{fill:none;stroke:#000000;stroke-width:0.9904;stroke-miterlimit:10;}
</style>
<g
   id="Livello_1">
	<g
   id="Livello_3">
	</g>
	<g
   id="g4">
		<ellipse
   cx="55.5"
   cy="47.9"
   rx="20"
   ry="9.5"
   id="ellipse1" />
		<path
   class="st0"
   d="M66.5,37.4c0,9.4-7.6,17-17,17c-7.1,0-11.9-4.8-12.4-5.4c-0.7-0.7-4.7-5.2-4.6-11.6c0.2-7.9,6.8-17,17-17    C58.9,20.4,66.5,28,66.5,37.4z"
   id="path1" />
		<g
   id="g2">
			<path
   class="st1"
   d="M64.5,29.4c0.1,1.3,0,2.3,0,3c0,0.3-0.1,1-0.5,3.4c-0.3,1.5-0.4,2.2-0.5,2.6c-0.1,0.6-0.7,2.6-2,5     c-0.7,1.2-1.5,2.6-3,4c-1.9,1.8-3.9,2.6-5,3c-1.7,0.7-3.2,0.9-4,1c-1.7,0.2-3.1,0.1-4,0c-1.5-0.2-2.5-0.5-4-1c-1.3-0.4-3-1.1-5-2     c1,1.2,2.6,2.7,5,4c2.9,1.6,5.5,1.9,6,2c0.7,0.1,2.2,0.2,4,0c1.8-0.2,3.1-0.7,4-1c0.3-0.1,1-0.4,1.9-0.9c0.9-0.5,1.9-1.2,3.1-2.1     c1.1-0.9,1.8-1.7,2-2c0.3-0.3,1.2-1.4,2-3c0.6-1.1,2.2-4.2,2-8l0-1.1l-0.2-1.5l-0.2-0.9l-0.3-1.1l-0.1-0.4l-0.1-0.2l-0.3-0.7     l-0.2-0.6L65,30.5l-0.1-0.3l-0.1-0.2"
   id="path2" />
		</g>
		<path
   class="st2"
   d="M40.7,49"
   id="path3" />
		<path
   class="st3"
   d="M25.5,39.4"
   id="path4" />
	</g>
	<g
   id="g13">
		<g
   id="g8">
			<ellipse
   cx="133"
   cy="47.9"
   rx="20"
   ry="9.5"
   id="ellipse4" />
			<path
   class="st0"
   d="M144,37.4c0,9.4-7.6,17-17,17c-7.1,0-11.9-4.8-12.4-5.4c-0.7-0.7-4.7-5.2-4.6-11.6c0.2-7.9,6.8-17,17-17     C136.4,20.4,144,28,144,37.4z"
   id="path5" />
			<g
   id="g6">
				<path
   class="st1"
   d="M142,29.4c0.1,1.3,0,2.3,0,3c0,0.3-0.1,1-0.5,3.4c-0.3,1.5-0.4,2.2-0.5,2.6c-0.1,0.6-0.7,2.6-2,5      c-0.7,1.2-1.5,2.6-3,4c-1.9,1.8-3.9,2.6-5,3c-1.7,0.7-3.2,0.9-4,1c-1.7,0.2-3.1,0.1-4,0c-1.5-0.2-2.5-0.5-4-1      c-1.3-0.4-3-1.1-5-2c1,1.2,2.6,2.7,5,4c2.9,1.6,5.5,1.9,6,2c0.7,0.1,2.2,0.2,4,0c1.8-0.2,3.1-0.7,4-1c0.3-0.1,1-0.4,1.9-0.9      c0.9-0.5,1.9-1.2,3.1-2.1c1.1-0.9,1.8-1.7,2-2c0.3-0.3,1.2-1.4,2-3c0.6-1.1,2.2-4.2,2-8l0-1.1l-0.2-1.5l-0.2-0.9l-0.3-1.1      l-0.1-0.4l-0.1-0.2l-0.3-0.7l-0.2-0.6l-0.2-0.4l-0.1-0.3l-0.1-0.2"
   id="path6" />
			</g>
			<path
   class="st2"
   d="M118.2,49"
   id="path7" />
			<path
   class="st3"
   d="M103,39.4"
   id="path8" />
		</g>
		<g
   id="g12">
			<ellipse
   cx="210.5"
   cy="47.9"
   rx="20"
   ry="9.5"
   id="ellipse8" />
			<path
   class="st0"
   d="M221.5,37.4c0,9.4-7.6,17-17,17c-7.1,0-11.9-4.8-12.4-5.4c-0.7-0.7-4.7-5.2-4.6-11.6c0.2-7.9,6.8-17,17-17     C213.9,20.4,221.5,28,221.5,37.4z"
   id="path9" />
			<g
   id="g10">
				<path
   class="st1"
   d="M219.5,29.4c0.1,1.3,0,2.3,0,3c0,0.3-0.1,1-0.5,3.4c-0.3,1.5-0.4,2.2-0.5,2.6c-0.1,0.6-0.7,2.6-2,5      c-0.7,1.2-1.5,2.6-3,4c-1.9,1.8-3.9,2.6-5,3c-1.7,0.7-3.2,0.9-4,1c-1.7,0.2-3.1,0.1-4,0c-1.5-0.2-2.5-0.5-4-1      c-1.3-0.4-3-1.1-5-2c1,1.2,2.6,2.7,5,4c2.9,1.6,5.5,1.9,6,2c0.7,0.1,2.2,0.2,4,0c1.8-0.2,3.1-0.7,4-1c0.3-0.1,1-0.4,1.9-0.9      c0.9-0.5,1.9-1.2,3.1-2.1c1.1-0.9,1.8-1.7,2-2c0.3-0.3,1.2-1.4,2-3c0.6-1.1,2.2-4.2,2-8l0-1.1l-0.2-1.5l-0.2-0.9l-0.3-1.1      l-0.1-0.4l-0.1-0.2l-0.3-0.7l-0.2-0.6l-0.2-0.4l-0.1-0.3l-0.1-0.2"
   id="path10" />
			</g>
			<path
   class="st2"
   d="M195.7,49"
   id="path11" />
			<path
   class="st3"
   d="M180.5,39.4"
   id="path12" />
		</g>
	</g>
	<g
   id="g16">
		<ellipse
   cx="56"
   cy="125"
   rx="20.4"
   ry="9.5"
   id="ellipse13" />
		<path
   class="st0"
   d="M67.2,114.5c0,9.4-7.8,17-17.3,17c-7.2,0-12.1-4.8-12.7-5.4c-0.7-0.7-4.8-5.2-4.7-11.6c0.2-7.9,7-17,17.3-17    C59.5,97.5,67.2,105.1,67.2,114.5z"
   id="path13" />
		<g
   id="g14">
			<path
   class="st1"
   d="M65.2,106.5c0.1,1.3,0,2.3,0,3c0,0.3-0.1,1-0.5,3.4c-0.3,1.5-0.4,2.2-0.5,2.6c-0.1,0.6-0.7,2.6-2,5     c-0.7,1.2-1.5,2.6-3.1,4c-2,1.8-4,2.6-5.1,3c-1.8,0.7-3.3,0.9-4.1,1c-1.7,0.2-3.2,0.1-4.1,0c-1.5-0.2-2.5-0.5-4.1-1     c-1.3-0.4-3.1-1.1-5.1-2c1,1.2,2.7,2.7,5.1,4c3,1.6,5.6,1.9,6.1,2c0.7,0.1,2.2,0.2,4.1,0c1.8-0.2,3.2-0.7,4.1-1     c0.3-0.1,1-0.4,2-0.9c0.9-0.5,2-1.2,3.1-2.1c1.1-0.9,1.8-1.7,2-2c0.3-0.3,1.2-1.4,2-3c0.6-1.1,2.2-4.2,2-8l0-1.1l-0.2-1.5     l-0.2-0.9l-0.3-1.1l-0.1-0.4l-0.1-0.2l-0.3-0.7l-0.2-0.6l-0.2-0.4l-0.1-0.3l-0.1-0.2"
   id="path14" />
		</g>
		<path
   class="st4"
   d="M41,126.1"
   id="path15" />
		<path
   class="st5"
   d="M25.5,116.5"
   id="path16" />
	</g>
	<g
   id="g20">
		<ellipse
   cx="133"
   cy="125"
   rx="20"
   ry="9.5"
   id="ellipse16" />
		<path
   class="st0"
   d="M144,114.5c0,9.4-7.6,17-17,17c-7.1,0-11.9-4.8-12.4-5.4c-0.7-0.7-4.7-5.2-4.6-11.6c0.2-7.9,6.8-17,17-17    C136.4,97.5,144,105.1,144,114.5z"
   id="path17" />
		<g
   id="g18">
			<path
   class="st1"
   d="M142,106.5c0.1,1.3,0,2.3,0,3c0,0.3-0.1,1-0.5,3.4c-0.3,1.5-0.4,2.2-0.5,2.6c-0.1,0.6-0.7,2.6-2,5     c-0.7,1.2-1.5,2.6-3,4c-1.9,1.8-3.9,2.6-5,3c-1.7,0.7-3.2,0.9-4,1c-1.7,0.2-3.1,0.1-4,0c-1.5-0.2-2.5-0.5-4-1c-1.3-0.4-3-1.1-5-2     c1,1.2,2.6,2.7,5,4c2.9,1.6,5.5,1.9,6,2c0.7,0.1,2.2,0.2,4,0c1.8-0.2,3.1-0.7,4-1c0.3-0.1,1-0.4,1.9-0.9c0.9-0.5,1.9-1.2,3.1-2.1     c1.1-0.9,1.8-1.7,2-2c0.3-0.3,1.2-1.4,2-3c0.6-1.1,2.2-4.2,2-8l0-1.1l-0.2-1.5l-0.2-0.9l-0.3-1.1l-0.1-0.4l-0.1-0.2l-0.3-0.7     l-0.2-0.6l-0.2-0.4l-0.1-0.3l-0.1-0.2"
   id="path18" />
		</g>
		<path
   class="st2"
   d="M118.2,126.1"
   id="path19" />
		<path
   class="st3"
   d="M103,116.5"
   id="path20" />
	</g>
	<g
   id="g24">
		<ellipse
   cx="210.5"
   cy="125"
   rx="20"
   ry="9.5"
   id="ellipse20" />
		<path
   class="st0"
   d="M221.5,114.5c0,9.4-7.6,17-17,17c-7.1,0-11.9-4.8-12.4-5.4c-0.7-0.7-4.7-5.2-4.6-11.6c0.2-7.9,6.8-17,17-17    C213.9,97.5,221.5,105.1,221.5,114.5z"
   id="path21" />
		<g
   id="g22">
			<path
   class="st1"
   d="M219.5,106.5c0.1,1.3,0,2.3,0,3c0,0.3-0.1,1-0.5,3.4c-0.3,1.5-0.4,2.2-0.5,2.6c-0.1,0.6-0.7,2.6-2,5     c-0.7,1.2-1.5,2.6-3,4c-1.9,1.8-3.9,2.6-5,3c-1.7,0.7-3.2,0.9-4,1c-1.7,0.2-3.1,0.1-4,0c-1.5-0.2-2.5-0.5-4-1c-1.3-0.4-3-1.1-5-2     c1,1.2,2.6,2.7,5,4c2.9,1.6,5.5,1.9,6,2c0.7,0.1,2.2,0.2,4,0c1.8-0.2,3.1-0.7,4-1c0.3-0.1,1-0.4,1.9-0.9c0.9-0.5,1.9-1.2,3.1-2.1     c1.1-0.9,1.8-1.7,2-2c0.3-0.3,1.2-1.4,2-3c0.6-1.1,2.2-4.2,2-8l0-1.1l-0.2-1.5l-0.2-0.9l-0.3-1.1l-0.1-0.4l-0.1-0.2l-0.3-0.7     l-0.2-0.6l-0.2-0.4l-0.1-0.3l-0.1-0.2"
   id="path22" />
		</g>
		<path
   class="st2"
   d="M195.7,126.1"
   id="path23" />
		<path
   class="st3"
   d="M180.5,116.5"
   id="path24" />
	</g>
	<g
   id="g28">
		<ellipse
   cx="288"
   cy="125"
   rx="20"
   ry="9.5"
   id="ellipse24" />
		<path
   class="st0"
   d="M299,114.5c0,9.4-7.6,17-17,17c-7.1,0-11.9-4.8-12.4-5.4c-0.7-0.7-4.7-5.2-4.6-11.6c0.2-7.9,6.8-17,17-17    C291.4,97.5,299,105.1,299,114.5z"
   id="path25" />
		<g
   id="g26">
			<path
   class="st1"
   d="M297,106.5c0.1,1.3,0,2.3,0,3c0,0.3-0.1,1-0.5,3.4c-0.3,1.5-0.4,2.2-0.5,2.6c-0.1,0.6-0.7,2.6-2,5     c-0.7,1.2-1.5,2.6-3,4c-1.9,1.8-3.9,2.6-5,3c-1.7,0.7-3.2,0.9-4,1c-1.7,0.2-3.1,0.1-4,0c-1.5-0.2-2.5-0.5-4-1c-1.3-0.4-3-1.1-5-2     c1,1.2,2.6,2.7,5,4c2.9,1.6,5.5,1.9,6,2c0.7,0.1,2.2,0.2,4,0c1.8-0.2,3.1-0.7,4-1c0.3-0.1,1-0.4,1.9-0.9c0.9-0.5,1.9-1.2,3.1-2.1     c1.1-0.9,1.8-1.7,2-2c0.3-0.3,1.2-1.4,2-3c0.6-1.1,2.2-4.2,2-8l0-1.1l-0.2-1.5l-0.2-0.9l-0.3-1.1l-0.1-0.4l-0.1-0.2l-0.3-0.7     l-0.2-0.6l-0.2-0.4l-0.1-0.3l-0.1-0.2"
   id="path26" />
		</g>
		<path
   class="st2"
   d="M273.2,126.1"
   id="path27" />
		<path
   class="st3"
   d="M258,116.5"
   id="path28" />
	</g>
	<g
   id="g32">
		<ellipse
   cx="55.5"
   cy="202.1"
   rx="20"
   ry="9.5"
   id="ellipse28" />
		<path
   class="st0"
   d="M66.5,191.6c0,9.4-7.6,17-17,17c-7.1,0-11.9-4.8-12.4-5.4c-0.7-0.7-4.7-5.2-4.6-11.6c0.2-7.9,6.8-17,17-17    C58.9,174.6,66.5,182.2,66.5,191.6z"
   id="path29" />
		<g
   id="g30">
			<path
   class="st1"
   d="M64.5,183.6c0.1,1.3,0,2.3,0,3c0,0.3-0.1,1-0.5,3.4c-0.3,1.5-0.4,2.2-0.5,2.6c-0.1,0.6-0.7,2.6-2,5     c-0.7,1.2-1.5,2.6-3,4c-1.9,1.8-3.9,2.6-5,3c-1.7,0.7-3.2,0.9-4,1c-1.7,0.2-3.1,0.1-4,0c-1.5-0.2-2.5-0.5-4-1c-1.3-0.4-3-1.1-5-2     c1,1.2,2.6,2.7,5,4c2.9,1.6,5.5,1.9,6,2c0.7,0.1,2.2,0.2,4,0c1.8-0.2,3.1-0.7,4-1c0.3-0.1,1-0.4,1.9-0.9c0.9-0.5,1.9-1.2,3.1-2.1     c1.1-0.9,1.8-1.7,2-2c0.3-0.3,1.2-1.4,2-3c0.6-1.1,2.2-4.2,2-8l0-1.1l-0.2-1.5l-0.2-0.9l-0.3-1.1l-0.1-0.4l-0.1-0.2l-0.3-0.7     l-0.2-0.6l-0.2-0.4l-0.1-0.3l-0.1-0.2"
   id="path30" />
		</g>
		<path
   class="st2"
   d="M40.7,203.3"
   id="path31" />
		<path
   class="st3"
   d="M25.5,193.6"
   id="path32" />
	</g>
	<g
   id="g36">
		<ellipse
   cx="133"
   cy="202.1"
   rx="20"
   ry="9.5"
   id="ellipse32" />
		<path
   class="st0"
   d="M144,191.6c0,9.4-7.6,17-17,17c-7.1,0-11.9-4.8-12.4-5.4c-0.7-0.7-4.7-5.2-4.6-11.6c0.2-7.9,6.8-17,17-17    C136.4,174.6,144,182.2,144,191.6z"
   id="path33" />
		<g
   id="g34">
			<path
   class="st1"
   d="M142,183.6c0.1,1.3,0,2.3,0,3c0,0.3-0.1,1-0.5,3.4c-0.3,1.5-0.4,2.2-0.5,2.6c-0.1,0.6-0.7,2.6-2,5     c-0.7,1.2-1.5,2.6-3,4c-1.9,1.8-3.9,2.6-5,3c-1.7,0.7-3.2,0.9-4,1c-1.7,0.2-3.1,0.1-4,0c-1.5-0.2-2.5-0.5-4-1c-1.3-0.4-3-1.1-5-2     c1,1.2,2.6,2.7,5,4c2.9,1.6,5.5,1.9,6,2c0.7,0.1,2.2,0.2,4,0c1.8-0.2,3.1-0.7,4-1c0.3-0.1,1-0.4,1.9-0.9c0.9-0.5,1.9-1.2,3.1-2.1     c1.1-0.9,1.8-1.7,2-2c0.3-0.3,1.2-1.4,2-3c0.6-1.1,2.2-4.2,2-8l0-1.1l-0.2-1.5l-0.2-0.9l-0.3-1.1l-0.1-0.4l-0.1-0.2l-0.3-0.7     l-0.2-0.6l-0.2-0.4l-0.1-0.3l-0.1-0.2"
   id="path34" />
		</g>
		<path
   class="st2"
   d="M118.2,203.3"
   id="path35" />
		<path
   class="st3"
   d="M103,193.6"
   id="path36" />
	</g>
	<g
   id="g40">
		<ellipse
   cx="210.5"
   cy="202.1"
   rx="20"
   ry="9.5"
   id="ellipse36" />
		<path
   class="st6"
   d="M221.5,191.6c0,9.4-7.6,17-17,17c-7.1,0-11.9-4.8-12.4-5.4c-0.7-0.7-4.7-5.2-4.6-11.6c0.2-7.9,6.8-17,17-17    C213.9,174.6,221.5,182.2,221.5,191.6z"
   id="path37"
   style="fill:#f43f5e;fill-opacity:1" />
		<g
   id="g38">
			<path
   class="st7"
   d="M219.5,183.6c0.1,1.3,0,2.3,0,3c0,0.3-0.1,1-0.5,3.4c-0.3,1.5-0.4,2.2-0.5,2.6c-0.1,0.6-0.7,2.6-2,5     c-0.7,1.2-1.5,2.6-3,4c-1.9,1.8-3.9,2.6-5,3c-1.7,0.7-3.2,0.9-4,1c-1.7,0.2-3.1,0.1-4,0c-1.5-0.2-2.5-0.5-4-1c-1.3-0.4-3-1.1-5-2     c1,1.2,2.6,2.7,5,4c2.9,1.6,5.5,1.9,6,2c0.7,0.1,2.2,0.2,4,0c1.8-0.2,3.1-0.7,4-1c0.3-0.1,1-0.4,1.9-0.9c0.9-0.5,1.9-1.2,3.1-2.1     c1.1-0.9,1.8-1.7,2-2c0.3-0.3,1.2-1.4,2-3c0.6-1.1,2.2-4.2,2-8l0-1.1l-0.2-1.5l-0.2-0.9l-0.3-1.1l-0.1-0.4l-0.1-0.2l-0.3-0.7     l-0.2-0.6l-0.2-0.4l-0.1-0.3l-0.1-0.2"
   id="path38" />
		</g>
		<path
   class="st2"
   d="M195.7,203.3"
   id="path39" />
		<path
   class="st3"
   d="M180.5,193.6"
   id="path40" />
	</g>
	<g
   id="g44">
		<ellipse
   cx="288"
   cy="202.1"
   rx="20"
   ry="9.5"
   id="ellipse40" />
		<path
   class="st6"
   d="M299,191.6c0,9.4-7.6,17-17,17c-7.1,0-11.9-4.8-12.4-5.4c-0.7-0.7-4.7-5.2-4.6-11.6c0.2-7.9,6.8-17,17-17    C291.4,174.6,299,182.2,299,191.6z"
   id="path41"
   style="fill:#f43f5e;fill-opacity:1" />
		<g
   id="g42">
			<path
   class="st7"
   d="M297,183.6c0.1,1.3,0,2.3,0,3c0,0.3-0.1,1-0.5,3.4c-0.3,1.5-0.4,2.2-0.5,2.6c-0.1,0.6-0.7,2.6-2,5     c-0.7,1.2-1.5,2.6-3,4c-1.9,1.8-3.9,2.6-5,3c-1.7,0.7-3.2,0.9-4,1c-1.7,0.2-3.1,0.1-4,0c-1.5-0.2-2.5-0.5-4-1c-1.3-0.4-3-1.1-5-2     c1,1.2,2.6,2.7,5,4c2.9,1.6,5.5,1.9,6,2c0.7,0.1,2.2,0.2,4,0c1.8-0.2,3.1-0.7,4-1c0.3-0.1,1-0.4,1.9-0.9c0.9-0.5,1.9-1.2,3.1-2.1     c1.1-0.9,1.8-1.7,2-2c0.3-0.3,1.2-1.4,2-3c0.6-1.1,2.2-4.2,2-8l0-1.1l-0.2-1.5l-0.2-0.9l-0.3-1.1l-0.1-0.4l-0.1-0.2l-0.3-0.7     l-0.2-0.6l-0.2-0.4l-0.1-0.3l-0.1-0.2"
   id="path42" />
		</g>
		<path
   class="st2"
   d="M273.2,203.3"
   id="path43" />
		<path
   class="st3"
   d="M258,193.6"
   id="path44" />
	</g>
	<g
   id="g48">
		<ellipse
   cx="288"
   cy="279.3"
   rx="20"
   ry="9.5"
   id="ellipse44" />
		<path
   class="st6"
   d="M299,268.8c0,9.4-7.6,17-17,17c-7.1,0-11.9-4.8-12.4-5.4c-0.7-0.7-4.7-5.2-4.6-11.6c0.2-7.9,6.8-17,17-17    C291.3,251.8,299,259.4,299,268.8z"
   id="path45"
   style="fill:#f43f5e;fill-opacity:1" />
		<g
   id="g46">
			<path
   class="st7"
   d="M297,260.8c0.1,1.3,0,2.3,0,3c0,0.3-0.1,1-0.5,3.4c-0.3,1.5-0.4,2.2-0.5,2.6c-0.1,0.6-0.7,2.6-2,5     c-0.7,1.2-1.5,2.6-3,4c-1.9,1.8-3.9,2.6-5,3c-1.7,0.7-3.2,0.9-4,1c-1.7,0.2-3.1,0.1-4,0c-1.5-0.2-2.5-0.5-4-1c-1.3-0.4-3-1.1-5-2     c1,1.2,2.6,2.7,5,4c2.9,1.6,5.5,1.9,6,2c0.7,0.1,2.2,0.2,4,0c1.8-0.2,3.1-0.7,4-1c0.3-0.1,1-0.4,1.9-0.9c0.9-0.5,1.9-1.2,3.1-2.1     c1.1-0.9,1.8-1.7,2-2c0.3-0.3,1.2-1.4,2-3c0.6-1.1,2.2-4.2,2-8l0-1.1l-0.2-1.5l-0.2-0.9l-0.3-1.1l-0.1-0.4l-0.1-0.2l-0.3-0.7     l-0.2-0.6l-0.2-0.4l-0.1-0.3l-0.1-0.2"
   id="path46" />
		</g>
		<path
   class="st2"
   d="M273.2,280.4"
   id="path47" />
		<path
   class="st3"
   d="M258,270.8"
   id="path48" />
	</g>
	<g
   id="g52">
		<ellipse
   cx="210.5"
   cy="279.3"
   rx="20"
   ry="9.5"
   id="ellipse48" />
		<path
   class="st6"
   d="M221.5,268.8c0,9.4-7.6,17-17,17c-7.1,0-11.9-4.8-12.4-5.4c-0.7-0.7-4.7-5.2-4.6-11.6c0.2-7.9,6.8-17,17-17    C213.8,251.8,221.5,259.4,221.5,268.8z"
   id="path49"
   style="fill:#f43f5e;fill-opacity:1" />
		<g
   id="g50">
			<path
   class="st7"
   d="M219.5,260.8c0.1,1.3,0,2.3,0,3c0,0.3-0.1,1-0.5,3.4c-0.3,1.5-0.4,2.2-0.5,2.6c-0.1,0.6-0.7,2.6-2,5     c-0.7,1.2-1.5,2.6-3,4c-1.9,1.8-3.9,2.6-5,3c-1.7,0.7-3.2,0.9-4,1c-1.7,0.2-3.1,0.1-4,0c-1.5-0.2-2.5-0.5-4-1c-1.3-0.4-3-1.1-5-2     c1,1.2,2.6,2.7,5,4c2.9,1.6,5.5,1.9,6,2c0.7,0.1,2.2,0.2,4,0c1.8-0.2,3.1-0.7,4-1c0.3-0.1,1-0.4,1.9-0.9c0.9-0.5,1.9-1.2,3.1-2.1     c1.1-0.9,1.8-1.7,2-2c0.3-0.3,1.2-1.4,2-3c0.6-1.1,2.2-4.2,2-8l0-1.1l-0.2-1.5l-0.2-0.9l-0.3-1.1l-0.1-0.4l-0.1-0.2l-0.3-0.7     l-0.2-0.6l-0.2-0.4l-0.1-0.3l-0.1-0.2"
   id="path50" />
		</g>
		<path
   class="st2"
   d="M195.7,280.4"
   id="path51" />
		<path
   class="st3"
   d="M180.5,270.8"
   id="path52" />
	</g>
	<g
   id="g61">
		<g
   id="g56">
			<ellipse
   cx="365.5"
   cy="125"
   rx="20"
   ry="9.5"
   id="ellipse52" />
			<path
   class="st0"
   d="M376.5,114.5c0,9.4-7.6,17-17,17c-7.1,0-11.9-4.8-12.4-5.4c-0.7-0.7-4.7-5.2-4.6-11.6c0.2-7.9,6.8-17,17-17     C368.9,97.5,376.5,105.1,376.5,114.5z"
   id="path53" />
			<g
   id="g54">
				<path
   class="st1"
   d="M374.5,106.5c0.1,1.3,0,2.3,0,3c0,0.3-0.1,1-0.5,3.4c-0.3,1.5-0.4,2.2-0.5,2.6c-0.1,0.6-0.7,2.6-2,5      c-0.7,1.2-1.5,2.6-3,4c-1.9,1.8-3.9,2.6-5,3c-1.7,0.7-3.2,0.9-4,1c-1.7,0.2-3.1,0.1-4,0c-1.5-0.2-2.5-0.5-4-1      c-1.3-0.4-3-1.1-5-2c1,1.2,2.6,2.7,5,4c2.9,1.6,5.5,1.9,6,2c0.7,0.1,2.2,0.2,4,0c1.8-0.2,3.1-0.7,4-1c0.3-0.1,1-0.4,1.9-0.9      c0.9-0.5,1.9-1.2,3.1-2.1c1.1-0.9,1.8-1.7,2-2c0.3-0.3,1.2-1.4,2-3c0.6-1.1,2.2-4.2,2-8l0-1.1l-0.2-1.5l-0.2-0.9l-0.3-1.1      l-0.1-0.4l-0.1-0.2l-0.3-0.7l-0.2-0.6l-0.2-0.4l-0.1-0.3l-0.1-0.2"
   id="path54" />
			</g>
			<path
   class="st2"
   d="M350.7,126.1"
   id="path55" />
			<path
   class="st3"
   d="M335.5,116.5"
   id="path56" />
		</g>
		<g
   id="g60">
			<ellipse
   cx="365.5"
   cy="202.1"
   rx="20"
   ry="9.5"
   id="ellipse56" />
			<path
   class="st0"
   d="M376.5,191.6c0,9.4-7.6,17-17,17c-7.1,0-11.9-4.8-12.4-5.4c-0.7-0.7-4.7-5.2-4.6-11.6c0.2-7.9,6.8-17,17-17     C368.9,174.6,376.5,182.2,376.5,191.6z"
   id="path57" />
			<g
   id="g58">
				<path
   class="st1"
   d="M374.5,183.6c0.1,1.3,0,2.3,0,3c0,0.3-0.1,1-0.5,3.4c-0.3,1.5-0.4,2.2-0.5,2.6c-0.1,0.6-0.7,2.6-2,5      c-0.7,1.2-1.5,2.6-3,4c-1.9,1.8-3.9,2.6-5,3c-1.7,0.7-3.2,0.9-4,1c-1.7,0.2-3.1,0.1-4,0c-1.5-0.2-2.5-0.5-4-1      c-1.3-0.4-3-1.1-5-2c1,1.2,2.6,2.7,5,4c2.9,1.6,5.5,1.9,6,2c0.7,0.1,2.2,0.2,4,0c1.8-0.2,3.1-0.7,4-1c0.3-0.1,1-0.4,1.9-0.9      c0.9-0.5,1.9-1.2,3.1-2.1c1.1-0.9,1.8-1.7,2-2c0.3-0.3,1.2-1.4,2-3c0.6-1.1,2.2-4.2,2-8l0-1.1l-0.2-1.5l-0.2-0.9l-0.3-1.1      l-0.1-0.4l-0.1-0.2l-0.3-0.7l-0.2-0.6l-0.2-0.4l-0.1-0.3l-0.1-0.2"
   id="path58" />
			</g>
			<path
   class="st2"
   d="M350.7,203.3"
   id="path59" />
			<path
   class="st3"
   d="M335.5,193.6"
   id="path60" />
		</g>
	</g>
	<g
   id="g64">
		<ellipse
   cx="55.4"
   cy="279.3"
   rx="20"
   ry="9.5"
   id="ellipse61" />
		<path
   class="st0"
   d="M66.4,268.8c0,9.4-7.6,17-17,17c-7.1,0-11.9-4.8-12.4-5.4c-0.7-0.7-4.7-5.2-4.6-11.6c0.2-7.9,6.8-17,17-17    C58.8,251.8,66.4,259.4,66.4,268.8z"
   id="path61" />
		<g
   id="g62">
			<path
   class="st1"
   d="M64.4,260.8c0.1,1.3,0,2.3,0,3c0,0.3-0.1,1-0.5,3.4c-0.3,1.5-0.4,2.2-0.5,2.6c-0.1,0.6-0.7,2.6-2,5     c-0.7,1.2-1.5,2.6-3,4c-1.9,1.8-3.9,2.6-5,3c-1.7,0.7-3.2,0.9-4,1c-1.7,0.2-3.1,0.1-4,0c-1.5-0.2-2.5-0.5-4-1c-1.3-0.4-3-1.1-5-2     c1,1.2,2.6,2.7,5,4c2.9,1.6,5.5,1.9,6,2c0.7,0.1,2.2,0.2,4,0c1.8-0.2,3.1-0.7,4-1c0.3-0.1,1-0.4,1.9-0.9c0.9-0.5,1.9-1.2,3.1-2.1     c1.1-0.9,1.8-1.7,2-2c0.3-0.3,1.2-1.4,2-3c0.6-1.1,2.2-4.2,2-8l0-1.1l-0.2-1.5l-0.2-0.9l-0.3-1.1l-0.1-0.4l-0.1-0.2l-0.3-0.7     l-0.2-0.6l-0.2-0.4l-0.1-0.3l-0.1-0.2"
   id="path62" />
		</g>
		<path
   class="st2"
   d="M40.7,280.4"
   id="path63" />
		<path
   class="st3"
   d="M25.4,270.8"
   id="path64" />
	</g>
	<g
   id="g68">
		<ellipse
   cx="132.9"
   cy="279.3"
   rx="20"
   ry="9.5"
   id="ellipse64" />
		<path
   class="st0"
   d="M143.9,268.8c0,9.4-7.6,17-17,17c-7.1,0-11.9-4.8-12.4-5.4c-0.7-0.7-4.7-5.2-4.6-11.6c0.2-7.9,6.8-17,17-17    C136.3,251.8,143.9,259.4,143.9,268.8z"
   id="path65" />
		<g
   id="g66">
			<path
   class="st1"
   d="M141.9,260.8c0.1,1.3,0,2.3,0,3c0,0.3-0.1,1-0.5,3.4c-0.3,1.5-0.4,2.2-0.5,2.6c-0.1,0.6-0.7,2.6-2,5     c-0.7,1.2-1.5,2.6-3,4c-1.9,1.8-3.9,2.6-5,3c-1.7,0.7-3.2,0.9-4,1c-1.7,0.2-3.1,0.1-4,0c-1.5-0.2-2.5-0.5-4-1c-1.3-0.4-3-1.1-5-2     c1,1.2,2.6,2.7,5,4c2.9,1.6,5.5,1.9,6,2c0.7,0.1,2.2,0.2,4,0c1.8-0.2,3.1-0.7,4-1c0.3-0.1,1-0.4,1.9-0.9c0.9-0.5,1.9-1.2,3.1-2.1     c1.1-0.9,1.8-1.7,2-2c0.3-0.3,1.2-1.4,2-3c0.6-1.1,2.2-4.2,2-8l0-1.1l-0.2-1.5l-0.2-0.9l-0.3-1.1l-0.1-0.4l-0.1-0.2l-0.3-0.7     l-0.2-0.6l-0.2-0.4l-0.1-0.3l-0.1-0.2"
   id="path66" />
		</g>
		<path
   class="st2"
   d="M118.2,280.4"
   id="path67" />
		<path
   class="st3"
   d="M102.9,270.8"
   id="path68" />
	</g>
	<g
   id="g72">
		<ellipse
   cx="55.4"
   cy="356.4"
   rx="20"
   ry="9.5"
   id="ellipse68" />
		<path
   class="st0"
   d="M66.4,345.9c0,9.4-7.6,17-17,17c-7.1,0-11.9-4.8-12.4-5.4c-0.7-0.7-4.7-5.2-4.6-11.6c0.2-7.9,6.8-17,17-17    C58.8,328.9,66.4,336.5,66.4,345.9z"
   id="path69" />
		<g
   id="g70">
			<path
   class="st1"
   d="M64.4,337.9c0.1,1.3,0,2.3,0,3c0,0.3-0.1,1-0.5,3.4c-0.3,1.5-0.4,2.2-0.5,2.6c-0.1,0.6-0.7,2.6-2,5     c-0.7,1.2-1.5,2.6-3,4c-1.9,1.8-3.9,2.6-5,3c-1.7,0.7-3.2,0.9-4,1c-1.7,0.2-3.1,0.1-4,0c-1.5-0.2-2.5-0.5-4-1c-1.3-0.4-3-1.1-5-2     c1,1.2,2.6,2.7,5,4c2.9,1.6,5.5,1.9,6,2c0.7,0.1,2.2,0.2,4,0c1.8-0.2,3.1-0.7,4-1c0.3-0.1,1-0.4,1.9-0.9c0.9-0.5,1.9-1.2,3.1-2.1     c1.1-0.9,1.8-1.7,2-2c0.3-0.3,1.2-1.4,2-3c0.6-1.1,2.2-4.2,2-8l0-1.1l-0.2-1.5l-0.2-0.9l-0.3-1.1l-0.1-0.4l-0.1-0.2l-0.3-0.7     l-0.2-0.6L65,339l-0.1-0.3l-0.1-0.2"
   id="path70" />
		</g>
		<path
   class="st2"
   d="M40.7,357.5"
   id="path71" />
		<path
   class="st3"
   d="M25.4,347.9"
   id="path72" />
	</g>
	<g
   id="g76">
		<ellipse
   cx="132.9"
   cy="356.4"
   rx="20"
   ry="9.5"
   id="ellipse72" />
		<path
   class="st0"
   d="M143.9,345.9c0,9.4-7.6,17-17,17c-7.1,0-11.9-4.8-12.4-5.4c-0.7-0.7-4.7-5.2-4.6-11.6c0.2-7.9,6.8-17,17-17    C136.3,328.9,143.9,336.5,143.9,345.9z"
   id="path73" />
		<g
   id="g74">
			<path
   class="st1"
   d="M141.9,337.9c0.1,1.3,0,2.3,0,3c0,0.3-0.1,1-0.5,3.4c-0.3,1.5-0.4,2.2-0.5,2.6c-0.1,0.6-0.7,2.6-2,5     c-0.7,1.2-1.5,2.6-3,4c-1.9,1.8-3.9,2.6-5,3c-1.7,0.7-3.2,0.9-4,1c-1.7,0.2-3.1,0.1-4,0c-1.5-0.2-2.5-0.5-4-1c-1.3-0.4-3-1.1-5-2     c1,1.2,2.6,2.7,5,4c2.9,1.6,5.5,1.9,6,2c0.7,0.1,2.2,0.2,4,0c1.8-0.2,3.1-0.7,4-1c0.3-0.1,1-0.4,1.9-0.9c0.9-0.5,1.9-1.2,3.1-2.1     c1.1-0.9,1.8-1.7,2-2c0.3-0.3,1.2-1.4,2-3c0.6-1.1,2.2-4.2,2-8l0-1.1l-0.2-1.5l-0.2-0.9l-0.3-1.1l-0.1-0.4l-0.1-0.2l-0.3-0.7     l-0.2-0.6l-0.2-0.4l-0.1-0.3l-0.1-0.2"
   id="path74" />
		</g>
		<path
   class="st2"
   d="M118.2,357.5"
   id="path75" />
		<path
   class="st3"
   d="M102.9,347.9"
   id="path76" />
	</g>
	<g
   id="g80">
		<ellipse
   cx="210.4"
   cy="356.4"
   rx="20"
   ry="9.5"
   id="ellipse76" />
		<path
   class="st0"
   d="M221.4,345.9c0,9.4-7.6,17-17,17c-7.1,0-11.9-4.8-12.4-5.4c-0.7-0.7-4.7-5.2-4.6-11.6c0.2-7.9,6.8-17,17-17    C213.8,328.9,221.4,336.5,221.4,345.9z"
   id="path77" />
		<g
   id="g78">
			<path
   class="st1"
   d="M219.4,337.9c0.1,1.3,0,2.3,0,3c0,0.3-0.1,1-0.5,3.4c-0.3,1.5-0.4,2.2-0.5,2.6c-0.1,0.6-0.7,2.6-2,5     c-0.7,1.2-1.5,2.6-3,4c-1.9,1.8-3.9,2.6-5,3c-1.7,0.7-3.2,0.9-4,1c-1.7,0.2-3.1,0.1-4,0c-1.5-0.2-2.5-0.5-4-1c-1.3-0.4-3-1.1-5-2     c1,1.2,2.6,2.7,5,4c2.9,1.6,5.5,1.9,6,2c0.7,0.1,2.2,0.2,4,0c1.8-0.2,3.1-0.7,4-1c0.3-0.1,1-0.4,1.9-0.9c0.9-0.5,1.9-1.2,3.1-2.1     c1.1-0.9,1.8-1.7,2-2c0.3-0.3,1.2-1.4,2-3c0.6-1.1,2.2-4.2,2-8l0-1.1l-0.2-1.5l-0.2-0.9l-0.3-1.1l-0.1-0.4l-0.1-0.2l-0.3-0.7     l-0.2-0.6L220,339l-0.1-0.3l-0.1-0.2"
   id="path78" />
		</g>
		<path
   class="st2"
   d="M195.7,357.5"
   id="path79" />
		<path
   class="st3"
   d="M180.4,347.9"
   id="path80" />
	</g>
	<g
   id="g89">
		<g
   id="g84">
			<ellipse
   cx="365.5"
   cy="279.3"
   rx="20"
   ry="9.5"
   id="ellipse80" />
			<path
   class="st0"
   d="M376.5,268.8c0,9.4-7.6,17-17,17c-7.1,0-11.9-4.8-12.4-5.4c-0.7-0.7-4.7-5.2-4.6-11.6c0.2-7.9,6.8-17,17-17     C368.9,251.8,376.5,259.4,376.5,268.8z"
   id="path81" />
			<g
   id="g82">
				<path
   class="st1"
   d="M374.5,260.8c0.1,1.3,0,2.3,0,3c0,0.3-0.1,1-0.5,3.4c-0.3,1.5-0.4,2.2-0.5,2.6c-0.1,0.6-0.7,2.6-2,5      c-0.7,1.2-1.5,2.6-3,4c-1.9,1.8-3.9,2.6-5,3c-1.7,0.7-3.2,0.9-4,1c-1.7,0.2-3.1,0.1-4,0c-1.5-0.2-2.5-0.5-4-1      c-1.3-0.4-3-1.1-5-2c1,1.2,2.6,2.7,5,4c2.9,1.6,5.5,1.9,6,2c0.7,0.1,2.2,0.2,4,0c1.8-0.2,3.1-0.7,4-1c0.3-0.1,1-0.4,1.9-0.9      c0.9-0.5,1.9-1.2,3.1-2.1c1.1-0.9,1.8-1.7,2-2c0.3-0.3,1.2-1.4,2-3c0.6-1.1,2.2-4.2,2-8l0-1.1l-0.2-1.5l-0.2-0.9l-0.3-1.1      l-0.1-0.4l-0.1-0.2l-0.3-0.7l-0.2-0.6l-0.2-0.4l-0.1-0.3l-0.1-0.2"
   id="path82" />
			</g>
			<path
   class="st2"
   d="M350.7,280.4"
   id="path83" />
			<path
   class="st3"
   d="M335.5,270.8"
   id="path84" />
		</g>
		<g
   id="g88">
			<ellipse
   cx="365.5"
   cy="356.4"
   rx="20"
   ry="9.5"
   id="ellipse84" />
			<path
   class="st0"
   d="M376.5,345.9c0,9.4-7.6,17-17,17c-7.1,0-11.9-4.8-12.4-5.4c-0.7-0.7-4.7-5.2-4.6-11.6c0.2-7.9,6.8-17,17-17     C368.9,328.9,376.5,336.5,376.5,345.9z"
   id="path85" />
			<g
   id="g86">
				<path
   class="st1"
   d="M374.5,337.9c0.1,1.3,0,2.3,0,3c0,0.3-0.1,1-0.5,3.4c-0.3,1.5-0.4,2.2-0.5,2.6c-0.1,0.6-0.7,2.6-2,5      c-0.7,1.2-1.5,2.6-3,4c-1.9,1.8-3.9,2.6-5,3c-1.7,0.7-3.2,0.9-4,1c-1.7,0.2-3.1,0.1-4,0c-1.5-0.2-2.5-0.5-4-1      c-1.3-0.4-3-1.1-5-2c1,1.2,2.6,2.7,5,4c2.9,1.6,5.5,1.9,6,2c0.7,0.1,2.2,0.2,4,0c1.8-0.2,3.1-0.7,4-1c0.3-0.1,1-0.4,1.9-0.9      c0.9-0.5,1.9-1.2,3.1-2.1c1.1-0.9,1.8-1.7,2-2c0.3-0.3,1.2-1.4,2-3c0.6-1.1,2.2-4.2,2-8l0-1.1l-0.2-1.5l-0.2-0.9l-0.3-1.1      l-0.1-0.4l-0.1-0.2l-0.3-0.7l-0.2-0.6L375,339l-0.1-0.3l-0.1-0.2"
   id="path86" />
			</g>
			<path
   class="st2"
   d="M350.7,357.5"
   id="path87" />
			<path
   class="st3"
   d="M335.5,347.9"
   id="path88" />
		</g>
	</g>
	<g
   id="g102">
		<g
   id="g92">
			<ellipse
   cx="288"
   cy="356.4"
   rx="20"
   ry="9.5"
   id="ellipse89" />
			<path
   class="st0"
   d="M299,345.9c0,9.4-7.6,17-17,17c-7.1,0-11.9-4.8-12.4-5.4c-0.7-0.7-4.7-5.2-4.6-11.6c0.2-7.9,6.8-17,17-17     C291.3,328.9,299,336.5,299,345.9z"
   id="path89" />
			<g
   id="g90">
				<path
   class="st1"
   d="M297,337.9c0.1,1.3,0,2.3,0,3c0,0.3-0.1,1-0.5,3.4c-0.3,1.5-0.4,2.2-0.5,2.6c-0.1,0.6-0.7,2.6-2,5      c-0.7,1.2-1.5,2.6-3,4c-1.9,1.8-3.9,2.6-5,3c-1.7,0.7-3.2,0.9-4,1c-1.7,0.2-3.1,0.1-4,0c-1.5-0.2-2.5-0.5-4-1      c-1.3-0.4-3-1.1-5-2c1,1.2,2.6,2.7,5,4c2.9,1.6,5.5,1.9,6,2c0.7,0.1,2.2,0.2,4,0c1.8-0.2,3.1-0.7,4-1c0.3-0.1,1-0.4,1.9-0.9      c0.9-0.5,1.9-1.2,3.1-2.1c1.1-0.9,1.8-1.7,2-2c0.3-0.3,1.2-1.4,2-3c0.6-1.1,2.2-4.2,2-8l0-1.1l-0.2-1.5l-0.2-0.9l-0.3-1.1      l-0.1-0.4l-0.1-0.2l-0.3-0.7l-0.2-0.6l-0.2-0.4l-0.1-0.3l-0.1-0.2"
   id="path90" />
			</g>
			<path
   class="st2"
   d="M273.2,357.5"
   id="path91" />
			<path
   class="st3"
   d="M258,347.9"
   id="path92" />
		</g>
		<g
   id="g101">
			<g
   id="g96">
				<ellipse
   cx="288"
   cy="47.9"
   rx="20"
   ry="9.5"
   id="ellipse92" />
				<path
   class="st0"
   d="M299,37.4c0,9.4-7.6,17-17,17c-7.1,0-11.9-4.8-12.4-5.4c-0.7-0.7-4.7-5.2-4.6-11.6c0.2-7.9,6.8-17,17-17      C291.4,20.4,299,28,299,37.4z"
   id="path93" />
				<g
   id="g94">
					<path
   class="st1"
   d="M297,29.4c0.1,1.3,0,2.3,0,3c0,0.3-0.1,1-0.5,3.4c-0.3,1.5-0.4,2.2-0.5,2.6c-0.1,0.6-0.7,2.6-2,5       c-0.7,1.2-1.5,2.6-3,4c-1.9,1.8-3.9,2.6-5,3c-1.7,0.7-3.2,0.9-4,1c-1.7,0.2-3.1,0.1-4,0c-1.5-0.2-2.5-0.5-4-1       c-1.3-0.4-3-1.1-5-2c1,1.2,2.6,2.7,5,4c2.9,1.6,5.5,1.9,6,2c0.7,0.1,2.2,0.2,4,0c1.8-0.2,3.1-0.7,4-1c0.3-0.1,1-0.4,1.9-0.9       c0.9-0.5,1.9-1.2,3.1-2.1c1.1-0.9,1.8-1.7,2-2c0.3-0.3,1.2-1.4,2-3c0.6-1.1,2.2-4.2,2-8l0-1.1l-0.2-1.5l-0.2-0.9l-0.3-1.1       l-0.1-0.4l-0.1-0.2l-0.3-0.7l-0.2-0.6l-0.2-0.4l-0.1-0.3l-0.1-0.2"
   id="path94" />
				</g>
				<path
   class="st2"
   d="M273.2,49"
   id="path95" />
				<path
   class="st3"
   d="M258,39.4"
   id="path96" />
			</g>
			<g
   id="g100">
				<ellipse
   cx="365.5"
   cy="47.9"
   rx="20"
   ry="9.5"
   id="ellipse96" />
				<path
   class="st0"
   d="M376.5,37.4c0,9.4-7.6,17-17,17c-7.1,0-11.9-4.8-12.4-5.4c-0.7-0.7-4.7-5.2-4.6-11.6c0.2-7.9,6.8-17,17-17      C368.9,20.4,376.5,28,376.5,37.4z"
   id="path97" />
				<g
   id="g98">
					<path
   class="st1"
   d="M374.5,29.4c0.1,1.3,0,2.3,0,3c0,0.3-0.1,1-0.5,3.4c-0.3,1.5-0.4,2.2-0.5,2.6c-0.1,0.6-0.7,2.6-2,5       c-0.7,1.2-1.5,2.6-3,4c-1.9,1.8-3.9,2.6-5,3c-1.7,0.7-3.2,0.9-4,1c-1.7,0.2-3.1,0.1-4,0c-1.5-0.2-2.5-0.5-4-1       c-1.3-0.4-3-1.1-5-2c1,1.2,2.6,2.7,5,4c2.9,1.6,5.5,1.9,6,2c0.7,0.1,2.2,0.2,4,0c1.8-0.2,3.1-0.7,4-1c0.3-0.1,1-0.4,1.9-0.9       c0.9-0.5,1.9-1.2,3.1-2.1c1.1-0.9,1.8-1.7,2-2c0.3-0.3,1.2-1.4,2-3c0.6-1.1,2.2-4.2,2-8l0-1.1l-0.2-1.5l-0.2-0.9l-0.3-1.1       l-0.1-0.4l-0.1-0.2l-0.3-0.7l-0.2-0.6l-0.2-0.4l-0.1-0.3l-0.1-0.2"
   id="path98" />
				</g>
				<path
   class="st2"
   d="M350.7,49"
   id="path99" />
				<path
   class="st3"
   d="M335.5,39.4"
   id="path100" />
			</g>
		</g>
	</g>
</g>
<g
   id="Livello_2">
	<line
   class="st8"
   x1="389"
   y1="308.8"
   x2="412"
   y2="308.8"
   id="line102" />
	<line
   class="st2"
   x1="25.5"
   y1="154.6"
   x2="385"
   y2="154.6"
   id="line103" />
	<line
   class="st2"
   x1="25.5"
   y1="308.8"
   x2="385"
   y2="308.8"
   id="line104" />
	<line
   class="st9"
   x1="166.7"
   y1="362"
   x2="166.7"
   y2="9.4"
   id="line105" />
	<line
   class="st9"
   x1="321.7"
   y1="362"
   x2="321.7"
   y2="9.4"
   id="line106" />
	<line
   class="st8"
   x1="389"
   y1="154.6"
   x2="412"
   y2="154.6"
   id="line107" />
	<line
   class="st8"
   x1="166.7"
   y1="385"
   x2="166.7"
   y2="362"
   id="line108" />
	<line
   class="st8"
   x1="321.7"
   y1="385"
   x2="321.7"
   y2="362"
   id="line109" />
</g>
</svg>
