<?xml version="1.0" encoding="utf-8"?>
<!-- Generator: Adobe Illustrator 14.0.0, SVG Export Plug-In . SVG Version: 6.00 Build 43363)  -->
<!DOCTYPE svg PUBLIC "-//W3C//DTD SVG 1.1//EN" "http://www.w3.org/Graphics/SVG/1.1/DTD/svg11.dtd">
<svg version="1.1" xmlns="http://www.w3.org/2000/svg" xmlns:xlink="http://www.w3.org/1999/xlink" x="0px" y="0px" width="1500px"
	 height="1125px" viewBox="0 0 1500 1125" enable-background="new 0 0 1500 1125" xml:space="preserve">
<g id="Layer_1">
	<g>
		<g>
			<radialGradient id="SVGID_1_" cx="738.8193" cy="576.502" r="987.0185" gradientUnits="userSpaceOnUse">
				<stop  offset="0" style="stop-color:#FFFFFF"/>
				<stop  offset="0.1422" style="stop-color:#FCFEFF"/>
				<stop  offset="0.2343" style="stop-color:#F4FBFD"/>
				<stop  offset="0.3123" style="stop-color:#E5F5FB"/>
				<stop  offset="0.3823" style="stop-color:#D0ECF9"/>
				<stop  offset="0.447" style="stop-color:#B4E2F5"/>
				<stop  offset="0.5078" style="stop-color:#93D5F0"/>
				<stop  offset="0.5657" style="stop-color:#6BC5EB"/>
				<stop  offset="0.6197" style="stop-color:#3EB3E5"/>
				<stop  offset="0.6424" style="stop-color:#29ABE2"/>
				<stop  offset="0.6463" style="stop-color:#28A6DF"/>
				<stop  offset="0.6863" style="stop-color:#1D7ABF"/>
				<stop  offset="0.7283" style="stop-color:#1455A3"/>
				<stop  offset="0.7716" style="stop-color:#0D368D"/>
				<stop  offset="0.8167" style="stop-color:#071E7C"/>
				<stop  offset="0.8645" style="stop-color:#030D70"/>
				<stop  offset="0.9168" style="stop-color:#010368"/>
				<stop  offset="0.9818" style="stop-color:#000066"/>
			</radialGradient>
			<path fill="url(#SVGID_1_)" d="M1500,860.249c-3.389,9.09-6.941,18.134-10.666,27.125
				c-36.307,87.653-87.279,167.433-151.733,237.626H1500V860.249z"/>
			<radialGradient id="SVGID_2_" cx="738.8193" cy="576.502" r="987.0186" gradientUnits="userSpaceOnUse">
				<stop  offset="0" style="stop-color:#FFFFFF"/>
				<stop  offset="0.1422" style="stop-color:#FCFEFF"/>
				<stop  offset="0.2343" style="stop-color:#F4FBFD"/>
				<stop  offset="0.3123" style="stop-color:#E5F5FB"/>
				<stop  offset="0.3823" style="stop-color:#D0ECF9"/>
				<stop  offset="0.447" style="stop-color:#B4E2F5"/>
				<stop  offset="0.5078" style="stop-color:#93D5F0"/>
				<stop  offset="0.5657" style="stop-color:#6BC5EB"/>
				<stop  offset="0.6197" style="stop-color:#3EB3E5"/>
				<stop  offset="0.6424" style="stop-color:#29ABE2"/>
				<stop  offset="0.6463" style="stop-color:#28A6DF"/>
				<stop  offset="0.6863" style="stop-color:#1D7ABF"/>
				<stop  offset="0.7283" style="stop-color:#1455A3"/>
				<stop  offset="0.7716" style="stop-color:#0D368D"/>
				<stop  offset="0.8167" style="stop-color:#071E7C"/>
				<stop  offset="0.8645" style="stop-color:#030D70"/>
				<stop  offset="0.9168" style="stop-color:#010368"/>
				<stop  offset="0.9818" style="stop-color:#000066"/>
			</radialGradient>
			<path fill="url(#SVGID_2_)" d="M166.981,0H0v238.779C40.141,150.961,95.429,71.524,164.635,2.318
				C165.413,1.54,166.201,0.774,166.981,0z"/>
			<radialGradient id="SVGID_3_" cx="738.8193" cy="576.502" r="987.0186" gradientUnits="userSpaceOnUse">
				<stop  offset="0" style="stop-color:#FFFFFF"/>
				<stop  offset="0.1422" style="stop-color:#FCFEFF"/>
				<stop  offset="0.2343" style="stop-color:#F4FBFD"/>
				<stop  offset="0.3123" style="stop-color:#E5F5FB"/>
				<stop  offset="0.3823" style="stop-color:#D0ECF9"/>
				<stop  offset="0.447" style="stop-color:#B4E2F5"/>
				<stop  offset="0.5078" style="stop-color:#93D5F0"/>
				<stop  offset="0.5657" style="stop-color:#6BC5EB"/>
				<stop  offset="0.6197" style="stop-color:#3EB3E5"/>
				<stop  offset="0.6424" style="stop-color:#29ABE2"/>
				<stop  offset="0.6463" style="stop-color:#28A6DF"/>
				<stop  offset="0.6863" style="stop-color:#1D7ABF"/>
				<stop  offset="0.7283" style="stop-color:#1455A3"/>
				<stop  offset="0.7716" style="stop-color:#0D368D"/>
				<stop  offset="0.8167" style="stop-color:#071E7C"/>
				<stop  offset="0.8645" style="stop-color:#030D70"/>
				<stop  offset="0.9168" style="stop-color:#010368"/>
				<stop  offset="0.9818" style="stop-color:#000066"/>
			</radialGradient>
			<path fill="url(#SVGID_3_)" d="M0,1125h140.039C82.228,1062.041,35.263,991.371,0,914.224V1125z"/>
			<radialGradient id="SVGID_4_" cx="738.8193" cy="576.502" r="987.0184" gradientUnits="userSpaceOnUse">
				<stop  offset="0" style="stop-color:#FFFFFF"/>
				<stop  offset="0.1422" style="stop-color:#FCFEFF"/>
				<stop  offset="0.2343" style="stop-color:#F4FBFD"/>
				<stop  offset="0.3123" style="stop-color:#E5F5FB"/>
				<stop  offset="0.3823" style="stop-color:#D0ECF9"/>
				<stop  offset="0.447" style="stop-color:#B4E2F5"/>
				<stop  offset="0.5078" style="stop-color:#93D5F0"/>
				<stop  offset="0.5657" style="stop-color:#6BC5EB"/>
				<stop  offset="0.6197" style="stop-color:#3EB3E5"/>
				<stop  offset="0.6424" style="stop-color:#29ABE2"/>
				<stop  offset="0.6463" style="stop-color:#28A6DF"/>
				<stop  offset="0.6863" style="stop-color:#1D7ABF"/>
				<stop  offset="0.7283" style="stop-color:#1455A3"/>
				<stop  offset="0.7716" style="stop-color:#0D368D"/>
				<stop  offset="0.8167" style="stop-color:#071E7C"/>
				<stop  offset="0.8645" style="stop-color:#030D70"/>
				<stop  offset="0.9168" style="stop-color:#010368"/>
				<stop  offset="0.9818" style="stop-color:#000066"/>
			</radialGradient>
			<path fill="url(#SVGID_4_)" d="M1489.334,265.629c3.725,8.992,7.277,18.035,10.666,27.125V0h-189.343
				c0.779,0.773,1.565,1.538,2.343,2.315C1389.195,78.511,1448.522,167.102,1489.334,265.629z"/>
			<radialGradient id="SVGID_5_" cx="738.8193" cy="576.502" r="987.0185" gradientUnits="userSpaceOnUse">
				<stop  offset="0" style="stop-color:#FFFFFF"/>
				<stop  offset="0.1422" style="stop-color:#FCFEFF"/>
				<stop  offset="0.2343" style="stop-color:#F4FBFD"/>
				<stop  offset="0.3123" style="stop-color:#E5F5FB"/>
				<stop  offset="0.3823" style="stop-color:#D0ECF9"/>
				<stop  offset="0.447" style="stop-color:#B4E2F5"/>
				<stop  offset="0.5078" style="stop-color:#93D5F0"/>
				<stop  offset="0.5657" style="stop-color:#6BC5EB"/>
				<stop  offset="0.6197" style="stop-color:#3EB3E5"/>
				<stop  offset="0.6424" style="stop-color:#29ABE2"/>
				<stop  offset="0.6463" style="stop-color:#28A6DF"/>
				<stop  offset="0.6863" style="stop-color:#1D7ABF"/>
				<stop  offset="0.7283" style="stop-color:#1455A3"/>
				<stop  offset="0.7716" style="stop-color:#0D368D"/>
				<stop  offset="0.8167" style="stop-color:#071E7C"/>
				<stop  offset="0.8645" style="stop-color:#030D70"/>
				<stop  offset="0.9168" style="stop-color:#010368"/>
				<stop  offset="0.9818" style="stop-color:#000066"/>
			</radialGradient>
			<path fill="url(#SVGID_5_)" d="M1500,860.249V292.754c-3.389-9.09-6.941-18.134-10.666-27.125
				C1448.522,167.102,1389.195,78.511,1313,2.315c-0.777-0.777-1.563-1.542-2.343-2.315H945.232
				c84.152,30.066,161.284,78.674,226.348,143.737c115.597,115.598,179.258,269.29,179.258,432.765
				c0,163.475-63.661,317.166-179.255,432.762c-47.701,47.7-101.893,86.547-160.577,115.736h326.595
				c64.454-70.193,115.427-149.973,151.733-237.626C1493.059,878.383,1496.611,869.339,1500,860.249z"/>
			
				<radialGradient id="SVGID_6_" cx="738.8193" cy="576.502" r="812.0186" gradientTransform="matrix(1 0 0 0.95 0 28.8251)" gradientUnits="userSpaceOnUse">
				<stop  offset="0" style="stop-color:#FFFFFF"/>
				<stop  offset="0.1341" style="stop-color:#FCFEFF"/>
				<stop  offset="0.221" style="stop-color:#F4FBFD"/>
				<stop  offset="0.2946" style="stop-color:#E5F5FB"/>
				<stop  offset="0.3606" style="stop-color:#D0ECF9"/>
				<stop  offset="0.4217" style="stop-color:#B4E2F5"/>
				<stop  offset="0.4791" style="stop-color:#93D5F0"/>
				<stop  offset="0.5337" style="stop-color:#6BC5EB"/>
				<stop  offset="0.5846" style="stop-color:#3EB3E5"/>
				<stop  offset="0.6061" style="stop-color:#29ABE2"/>
				<stop  offset="0.6537" style="stop-color:#2390CF"/>
				<stop  offset="0.7561" style="stop-color:#124C9D"/>
				<stop  offset="0.8606" style="stop-color:#000066"/>
			</radialGradient>
			<path fill="url(#SVGID_6_)" d="M1500,860.249V292.754c-3.389-9.09-6.941-18.134-10.666-27.125
				C1448.522,167.102,1389.195,78.511,1313,2.315c-0.777-0.777-1.563-1.542-2.343-2.315H945.232
				c84.152,30.066,161.284,78.674,226.348,143.737c115.597,115.598,179.258,269.29,179.258,432.765
				c0,163.475-63.661,317.166-179.255,432.762c-47.701,47.7-101.893,86.547-160.577,115.736h326.595
				c64.454-70.193,115.427-149.973,151.733-237.626C1493.059,878.383,1496.611,869.339,1500,860.249z"/>
			<radialGradient id="SVGID_7_" cx="738.8193" cy="576.502" r="987.0186" gradientUnits="userSpaceOnUse">
				<stop  offset="0" style="stop-color:#FFFFFF"/>
				<stop  offset="0.1422" style="stop-color:#FCFEFF"/>
				<stop  offset="0.2343" style="stop-color:#F4FBFD"/>
				<stop  offset="0.3123" style="stop-color:#E5F5FB"/>
				<stop  offset="0.3823" style="stop-color:#D0ECF9"/>
				<stop  offset="0.447" style="stop-color:#B4E2F5"/>
				<stop  offset="0.5078" style="stop-color:#93D5F0"/>
				<stop  offset="0.5657" style="stop-color:#6BC5EB"/>
				<stop  offset="0.6197" style="stop-color:#3EB3E5"/>
				<stop  offset="0.6424" style="stop-color:#29ABE2"/>
				<stop  offset="0.6463" style="stop-color:#28A6DF"/>
				<stop  offset="0.6863" style="stop-color:#1D7ABF"/>
				<stop  offset="0.7283" style="stop-color:#1455A3"/>
				<stop  offset="0.7716" style="stop-color:#0D368D"/>
				<stop  offset="0.8167" style="stop-color:#071E7C"/>
				<stop  offset="0.8645" style="stop-color:#030D70"/>
				<stop  offset="0.9168" style="stop-color:#010368"/>
				<stop  offset="0.9818" style="stop-color:#000066"/>
			</radialGradient>
			<path fill="url(#SVGID_7_)" d="M126.8,576.502c0-163.477,63.661-317.168,179.256-432.763C371.12,78.676,448.252,30.066,532.405,0
				H166.981c-0.78,0.774-1.568,1.54-2.346,2.318C95.429,71.524,40.141,150.961,0,238.779v675.444
				C35.263,991.371,82.228,1062.041,140.039,1125h326.594c-58.684-29.189-112.875-68.035-160.575-115.734
				C190.461,893.669,126.8,739.978,126.8,576.502z"/>
			
				<radialGradient id="SVGID_8_" cx="738.8193" cy="576.502" r="812.0186" gradientTransform="matrix(1 0 0 0.95 0 28.8251)" gradientUnits="userSpaceOnUse">
				<stop  offset="0" style="stop-color:#FFFFFF"/>
				<stop  offset="0.1341" style="stop-color:#FCFEFF"/>
				<stop  offset="0.221" style="stop-color:#F4FBFD"/>
				<stop  offset="0.2946" style="stop-color:#E5F5FB"/>
				<stop  offset="0.3606" style="stop-color:#D0ECF9"/>
				<stop  offset="0.4217" style="stop-color:#B4E2F5"/>
				<stop  offset="0.4791" style="stop-color:#93D5F0"/>
				<stop  offset="0.5337" style="stop-color:#6BC5EB"/>
				<stop  offset="0.5846" style="stop-color:#3EB3E5"/>
				<stop  offset="0.6061" style="stop-color:#29ABE2"/>
				<stop  offset="0.6537" style="stop-color:#2390CF"/>
				<stop  offset="0.7561" style="stop-color:#124C9D"/>
				<stop  offset="0.8606" style="stop-color:#000066"/>
			</radialGradient>
			<path fill="url(#SVGID_8_)" d="M126.8,576.502c0-163.477,63.661-317.168,179.256-432.763C371.12,78.676,448.252,30.066,532.405,0
				H166.981c-0.78,0.774-1.568,1.54-2.346,2.318C95.429,71.524,40.141,150.961,0,238.779v675.444
				C35.263,991.371,82.228,1062.041,140.039,1125h326.594c-58.684-29.189-112.875-68.035-160.575-115.734
				C190.461,893.669,126.8,739.978,126.8,576.502z"/>
			<radialGradient id="SVGID_9_" cx="738.8193" cy="576.502" r="987.0185" gradientUnits="userSpaceOnUse">
				<stop  offset="0" style="stop-color:#FFFFFF"/>
				<stop  offset="0.1422" style="stop-color:#FCFEFF"/>
				<stop  offset="0.2343" style="stop-color:#F4FBFD"/>
				<stop  offset="0.3123" style="stop-color:#E5F5FB"/>
				<stop  offset="0.3823" style="stop-color:#D0ECF9"/>
				<stop  offset="0.447" style="stop-color:#B4E2F5"/>
				<stop  offset="0.5078" style="stop-color:#93D5F0"/>
				<stop  offset="0.5657" style="stop-color:#6BC5EB"/>
				<stop  offset="0.6197" style="stop-color:#3EB3E5"/>
				<stop  offset="0.6424" style="stop-color:#29ABE2"/>
				<stop  offset="0.6463" style="stop-color:#28A6DF"/>
				<stop  offset="0.6863" style="stop-color:#1D7ABF"/>
				<stop  offset="0.7283" style="stop-color:#1455A3"/>
				<stop  offset="0.7716" style="stop-color:#0D368D"/>
				<stop  offset="0.8167" style="stop-color:#071E7C"/>
				<stop  offset="0.8645" style="stop-color:#030D70"/>
				<stop  offset="0.9168" style="stop-color:#010368"/>
				<stop  offset="0.9818" style="stop-color:#000066"/>
			</radialGradient>
			<path fill="url(#SVGID_9_)" d="M1350.838,576.502c0-163.475-63.661-317.167-179.258-432.765
				C1106.517,78.674,1029.385,30.066,945.232,0H532.405C448.252,30.066,371.12,78.676,306.057,143.739
				C190.461,259.334,126.8,413.025,126.8,576.502c0,163.476,63.661,317.167,179.257,432.764
				c47.7,47.699,101.891,86.545,160.575,115.734h544.373c58.685-29.189,112.876-68.036,160.577-115.736
				C1287.177,893.668,1350.838,739.977,1350.838,576.502z M738.819,1043.521c-124.744,0-242.022-48.578-330.231-136.786
				C320.379,818.525,271.8,701.246,271.8,576.502c0-124.746,48.579-242.024,136.787-330.232
				c88.208-88.208,205.487-136.787,330.232-136.787c124.745,0,242.023,48.578,330.232,136.786
				c88.209,88.21,136.787,205.489,136.787,330.234c0,124.744-48.578,242.022-136.786,330.231
				C980.842,994.942,863.563,1043.521,738.819,1043.521z"/>
			
				<radialGradient id="SVGID_10_" cx="738.8193" cy="576.502" r="812.0186" gradientTransform="matrix(1 0 0 0.95 0 28.8251)" gradientUnits="userSpaceOnUse">
				<stop  offset="0" style="stop-color:#FFFFFF"/>
				<stop  offset="0.1341" style="stop-color:#FCFEFF"/>
				<stop  offset="0.221" style="stop-color:#F4FBFD"/>
				<stop  offset="0.2946" style="stop-color:#E5F5FB"/>
				<stop  offset="0.3606" style="stop-color:#D0ECF9"/>
				<stop  offset="0.4217" style="stop-color:#B4E2F5"/>
				<stop  offset="0.4791" style="stop-color:#93D5F0"/>
				<stop  offset="0.5337" style="stop-color:#6BC5EB"/>
				<stop  offset="0.5846" style="stop-color:#3EB3E5"/>
				<stop  offset="0.6061" style="stop-color:#29ABE2"/>
				<stop  offset="0.6537" style="stop-color:#2390CF"/>
				<stop  offset="0.7561" style="stop-color:#124C9D"/>
				<stop  offset="0.8606" style="stop-color:#000066"/>
			</radialGradient>
			<path fill="url(#SVGID_10_)" d="M1350.838,576.502c0-163.475-63.661-317.167-179.258-432.765
				C1106.517,78.674,1029.385,30.066,945.232,0H532.405C448.252,30.066,371.12,78.676,306.057,143.739
				C190.461,259.334,126.8,413.025,126.8,576.502c0,163.476,63.661,317.167,179.257,432.764
				c47.7,47.699,101.891,86.545,160.575,115.734h544.373c58.685-29.189,112.876-68.036,160.577-115.736
				C1287.177,893.668,1350.838,739.977,1350.838,576.502z M738.819,1043.521c-124.744,0-242.022-48.578-330.231-136.786
				C320.379,818.525,271.8,701.246,271.8,576.502c0-124.746,48.579-242.024,136.787-330.232
				c88.208-88.208,205.487-136.787,330.232-136.787c124.745,0,242.023,48.578,330.232,136.786
				c88.209,88.21,136.787,205.489,136.787,330.234c0,124.744-48.578,242.022-136.786,330.231
				C980.842,994.942,863.563,1043.521,738.819,1043.521z"/>
			
				<radialGradient id="SVGID_11_" cx="738.8193" cy="576.502" r="612.0186" gradientTransform="matrix(1 0 0 0.97 0 17.295)" gradientUnits="userSpaceOnUse">
				<stop  offset="0" style="stop-color:#FFFFFF"/>
				<stop  offset="0.1502" style="stop-color:#FCFEFF"/>
				<stop  offset="0.2476" style="stop-color:#F4FBFD"/>
				<stop  offset="0.3299" style="stop-color:#E5F5FB"/>
				<stop  offset="0.4039" style="stop-color:#D0ECF9"/>
				<stop  offset="0.4723" style="stop-color:#B4E2F5"/>
				<stop  offset="0.5366" style="stop-color:#93D5F0"/>
				<stop  offset="0.5977" style="stop-color:#6BC5EB"/>
				<stop  offset="0.6547" style="stop-color:#3EB3E5"/>
				<stop  offset="0.6788" style="stop-color:#29ABE2"/>
				<stop  offset="0.7108" style="stop-color:#2498D4"/>
				<stop  offset="0.8514" style="stop-color:#114699"/>
				<stop  offset="0.9512" style="stop-color:#051474"/>
				<stop  offset="1" style="stop-color:#000066"/>
			</radialGradient>
			<path fill="url(#SVGID_11_)" d="M1350.838,576.502c0-163.475-63.661-317.167-179.258-432.765
				C1106.517,78.674,1029.385,30.066,945.232,0H532.405C448.252,30.066,371.12,78.676,306.057,143.739
				C190.461,259.334,126.8,413.025,126.8,576.502c0,163.476,63.661,317.167,179.257,432.764
				c47.7,47.699,101.891,86.545,160.575,115.734h544.373c58.685-29.189,112.876-68.036,160.577-115.736
				C1287.177,893.668,1350.838,739.977,1350.838,576.502z M738.819,1043.521c-124.744,0-242.022-48.578-330.231-136.786
				C320.379,818.525,271.8,701.246,271.8,576.502c0-124.746,48.579-242.024,136.787-330.232
				c88.208-88.208,205.487-136.787,330.232-136.787c124.745,0,242.023,48.578,330.232,136.786
				c88.209,88.21,136.787,205.489,136.787,330.234c0,124.744-48.578,242.022-136.786,330.231
				C980.842,994.942,863.563,1043.521,738.819,1043.521z"/>
			<radialGradient id="SVGID_12_" cx="738.8193" cy="576.502" r="987.0185" gradientUnits="userSpaceOnUse">
				<stop  offset="0" style="stop-color:#FFFFFF"/>
				<stop  offset="0.1422" style="stop-color:#FCFEFF"/>
				<stop  offset="0.2343" style="stop-color:#F4FBFD"/>
				<stop  offset="0.3123" style="stop-color:#E5F5FB"/>
				<stop  offset="0.3823" style="stop-color:#D0ECF9"/>
				<stop  offset="0.447" style="stop-color:#B4E2F5"/>
				<stop  offset="0.5078" style="stop-color:#93D5F0"/>
				<stop  offset="0.5657" style="stop-color:#6BC5EB"/>
				<stop  offset="0.6197" style="stop-color:#3EB3E5"/>
				<stop  offset="0.6424" style="stop-color:#29ABE2"/>
				<stop  offset="0.6463" style="stop-color:#28A6DF"/>
				<stop  offset="0.6863" style="stop-color:#1D7ABF"/>
				<stop  offset="0.7283" style="stop-color:#1455A3"/>
				<stop  offset="0.7716" style="stop-color:#0D368D"/>
				<stop  offset="0.8167" style="stop-color:#071E7C"/>
				<stop  offset="0.8645" style="stop-color:#030D70"/>
				<stop  offset="0.9168" style="stop-color:#010368"/>
				<stop  offset="0.9818" style="stop-color:#000066"/>
			</radialGradient>
			<path fill="url(#SVGID_12_)" d="M1069.051,246.268c-88.209-88.208-205.487-136.786-330.232-136.786
				c-124.745,0-242.024,48.579-330.232,136.787C320.379,334.478,271.8,451.756,271.8,576.502
				c0,124.744,48.579,242.023,136.787,330.232c88.209,88.208,205.488,136.786,330.231,136.786s242.023-48.578,330.233-136.787
				c88.208-88.209,136.786-205.487,136.786-330.231C1205.838,451.757,1157.26,334.479,1069.051,246.268z M991.27,828.952
				c-67.434,67.433-157.089,104.568-252.451,104.568c-95.362,0-185.018-37.137-252.45-104.568
				C418.937,761.52,381.8,671.864,381.8,576.502c0-95.363,37.136-185.019,104.568-252.451
				c67.432-67.432,157.087-104.569,252.45-104.569c95.363,0,185.018,37.136,252.451,104.568
				c67.432,67.433,104.568,157.088,104.568,252.452C1095.838,671.865,1058.701,761.52,991.27,828.952z"/>
			
				<radialGradient id="SVGID_13_" cx="738.8193" cy="576.502" r="812.0186" gradientTransform="matrix(1 0 0 0.95 0 28.8251)" gradientUnits="userSpaceOnUse">
				<stop  offset="0" style="stop-color:#FFFFFF"/>
				<stop  offset="0.1341" style="stop-color:#FCFEFF"/>
				<stop  offset="0.221" style="stop-color:#F4FBFD"/>
				<stop  offset="0.2946" style="stop-color:#E5F5FB"/>
				<stop  offset="0.3606" style="stop-color:#D0ECF9"/>
				<stop  offset="0.4217" style="stop-color:#B4E2F5"/>
				<stop  offset="0.4791" style="stop-color:#93D5F0"/>
				<stop  offset="0.5337" style="stop-color:#6BC5EB"/>
				<stop  offset="0.5846" style="stop-color:#3EB3E5"/>
				<stop  offset="0.6061" style="stop-color:#29ABE2"/>
				<stop  offset="0.6537" style="stop-color:#2390CF"/>
				<stop  offset="0.7561" style="stop-color:#124C9D"/>
				<stop  offset="0.8606" style="stop-color:#000066"/>
			</radialGradient>
			<path fill="url(#SVGID_13_)" d="M1069.051,246.268c-88.209-88.208-205.487-136.786-330.232-136.786
				c-124.745,0-242.024,48.579-330.232,136.787C320.379,334.478,271.8,451.756,271.8,576.502
				c0,124.744,48.579,242.023,136.787,330.232c88.209,88.208,205.488,136.786,330.231,136.786s242.023-48.578,330.233-136.787
				c88.208-88.209,136.786-205.487,136.786-330.231C1205.838,451.757,1157.26,334.479,1069.051,246.268z M991.27,828.952
				c-67.434,67.433-157.089,104.568-252.451,104.568c-95.362,0-185.018-37.137-252.45-104.568
				C418.937,761.52,381.8,671.864,381.8,576.502c0-95.363,37.136-185.019,104.568-252.451
				c67.432-67.432,157.087-104.569,252.45-104.569c95.363,0,185.018,37.136,252.451,104.568
				c67.432,67.433,104.568,157.088,104.568,252.452C1095.838,671.865,1058.701,761.52,991.27,828.952z"/>
			
				<radialGradient id="SVGID_14_" cx="738.8193" cy="576.502" r="612.0186" gradientTransform="matrix(1 0 0 0.97 0 17.295)" gradientUnits="userSpaceOnUse">
				<stop  offset="0" style="stop-color:#FFFFFF"/>
				<stop  offset="0.1502" style="stop-color:#FCFEFF"/>
				<stop  offset="0.2476" style="stop-color:#F4FBFD"/>
				<stop  offset="0.3299" style="stop-color:#E5F5FB"/>
				<stop  offset="0.4039" style="stop-color:#D0ECF9"/>
				<stop  offset="0.4723" style="stop-color:#B4E2F5"/>
				<stop  offset="0.5366" style="stop-color:#93D5F0"/>
				<stop  offset="0.5977" style="stop-color:#6BC5EB"/>
				<stop  offset="0.6547" style="stop-color:#3EB3E5"/>
				<stop  offset="0.6788" style="stop-color:#29ABE2"/>
				<stop  offset="0.7108" style="stop-color:#2498D4"/>
				<stop  offset="0.8514" style="stop-color:#114699"/>
				<stop  offset="0.9512" style="stop-color:#051474"/>
				<stop  offset="1" style="stop-color:#000066"/>
			</radialGradient>
			<path fill="url(#SVGID_14_)" d="M1069.051,246.268c-88.209-88.208-205.487-136.786-330.232-136.786
				c-124.745,0-242.024,48.579-330.232,136.787C320.379,334.478,271.8,451.756,271.8,576.502
				c0,124.744,48.579,242.023,136.787,330.232c88.209,88.208,205.488,136.786,330.231,136.786s242.023-48.578,330.233-136.787
				c88.208-88.209,136.786-205.487,136.786-330.231C1205.838,451.757,1157.26,334.479,1069.051,246.268z M991.27,828.952
				c-67.434,67.433-157.089,104.568-252.451,104.568c-95.362,0-185.018-37.137-252.45-104.568
				C418.937,761.52,381.8,671.864,381.8,576.502c0-95.363,37.136-185.019,104.568-252.451
				c67.432-67.432,157.087-104.569,252.45-104.569c95.363,0,185.018,37.136,252.451,104.568
				c67.432,67.433,104.568,157.088,104.568,252.452C1095.838,671.865,1058.701,761.52,991.27,828.952z"/>
			
				<radialGradient id="SVGID_15_" cx="738.8193" cy="576.502" r="467.0186" gradientTransform="matrix(1 0 0 0.92 0 46.1202)" gradientUnits="userSpaceOnUse">
				<stop  offset="0" style="stop-color:#FFFFFF"/>
				<stop  offset="0.1529" style="stop-color:#FCFEFF"/>
				<stop  offset="0.252" style="stop-color:#F4FBFD"/>
				<stop  offset="0.3358" style="stop-color:#E5F5FB"/>
				<stop  offset="0.4111" style="stop-color:#D0ECF9"/>
				<stop  offset="0.4807" style="stop-color:#B4E2F5"/>
				<stop  offset="0.5462" style="stop-color:#93D5F0"/>
				<stop  offset="0.6084" style="stop-color:#6BC5EB"/>
				<stop  offset="0.6664" style="stop-color:#3EB3E5"/>
				<stop  offset="0.6909" style="stop-color:#29ABE2"/>
				<stop  offset="0.7351" style="stop-color:#28A7DF"/>
				<stop  offset="0.7825" style="stop-color:#259AD5"/>
				<stop  offset="0.8316" style="stop-color:#2084C6"/>
				<stop  offset="0.8818" style="stop-color:#1866B0"/>
				<stop  offset="0.9328" style="stop-color:#0F3F94"/>
				<stop  offset="0.9837" style="stop-color:#041172"/>
				<stop  offset="1" style="stop-color:#000066"/>
			</radialGradient>
			<path fill="url(#SVGID_15_)" d="M1069.051,246.268c-88.209-88.208-205.487-136.786-330.232-136.786
				c-124.745,0-242.024,48.579-330.232,136.787C320.379,334.478,271.8,451.756,271.8,576.502
				c0,124.744,48.579,242.023,136.787,330.232c88.209,88.208,205.488,136.786,330.231,136.786s242.023-48.578,330.233-136.787
				c88.208-88.209,136.786-205.487,136.786-330.231C1205.838,451.757,1157.26,334.479,1069.051,246.268z M991.27,828.952
				c-67.434,67.433-157.089,104.568-252.451,104.568c-95.362,0-185.018-37.137-252.45-104.568
				C418.937,761.52,381.8,671.864,381.8,576.502c0-95.363,37.136-185.019,104.568-252.451
				c67.432-67.432,157.087-104.569,252.45-104.569c95.363,0,185.018,37.136,252.451,104.568
				c67.432,67.433,104.568,157.088,104.568,252.452C1095.838,671.865,1058.701,761.52,991.27,828.952z"/>
			<radialGradient id="SVGID_16_" cx="738.8193" cy="576.502" r="987.0186" gradientUnits="userSpaceOnUse">
				<stop  offset="0" style="stop-color:#FFFFFF"/>
				<stop  offset="0.1422" style="stop-color:#FCFEFF"/>
				<stop  offset="0.2343" style="stop-color:#F4FBFD"/>
				<stop  offset="0.3123" style="stop-color:#E5F5FB"/>
				<stop  offset="0.3823" style="stop-color:#D0ECF9"/>
				<stop  offset="0.447" style="stop-color:#B4E2F5"/>
				<stop  offset="0.5078" style="stop-color:#93D5F0"/>
				<stop  offset="0.5657" style="stop-color:#6BC5EB"/>
				<stop  offset="0.6197" style="stop-color:#3EB3E5"/>
				<stop  offset="0.6424" style="stop-color:#29ABE2"/>
				<stop  offset="0.6463" style="stop-color:#28A6DF"/>
				<stop  offset="0.6863" style="stop-color:#1D7ABF"/>
				<stop  offset="0.7283" style="stop-color:#1455A3"/>
				<stop  offset="0.7716" style="stop-color:#0D368D"/>
				<stop  offset="0.8167" style="stop-color:#071E7C"/>
				<stop  offset="0.8645" style="stop-color:#030D70"/>
				<stop  offset="0.9168" style="stop-color:#010368"/>
				<stop  offset="0.9818" style="stop-color:#000066"/>
			</radialGradient>
			<path fill="url(#SVGID_16_)" d="M991.27,324.05c-67.433-67.432-157.088-104.568-252.451-104.568
				c-95.363,0-185.019,37.137-252.45,104.569C418.937,391.483,381.8,481.139,381.8,576.502c0,95.362,37.136,185.018,104.568,252.45
				c67.433,67.432,157.088,104.568,252.45,104.568c95.362,0,185.017-37.136,252.451-104.568
				c67.432-67.433,104.568-157.087,104.568-252.45C1095.838,481.138,1058.701,391.483,991.27,324.05z M927.63,765.313
				c-50.434,50.433-117.487,78.208-188.811,78.208c-71.323,0-138.377-27.775-188.811-78.208
				C499.575,714.879,471.8,647.824,471.8,576.502c0-71.324,27.775-138.378,78.208-188.811
				c50.433-50.434,117.487-78.208,188.811-78.208c71.324,0,138.377,27.775,188.811,78.208
				c50.434,50.434,78.208,117.488,78.208,188.812C1005.838,647.825,978.063,714.879,927.63,765.313z"/>
			
				<radialGradient id="SVGID_17_" cx="738.8193" cy="576.502" r="812.0186" gradientTransform="matrix(1 0 0 0.95 0 28.8251)" gradientUnits="userSpaceOnUse">
				<stop  offset="0" style="stop-color:#FFFFFF"/>
				<stop  offset="0.1341" style="stop-color:#FCFEFF"/>
				<stop  offset="0.221" style="stop-color:#F4FBFD"/>
				<stop  offset="0.2946" style="stop-color:#E5F5FB"/>
				<stop  offset="0.3606" style="stop-color:#D0ECF9"/>
				<stop  offset="0.4217" style="stop-color:#B4E2F5"/>
				<stop  offset="0.4791" style="stop-color:#93D5F0"/>
				<stop  offset="0.5337" style="stop-color:#6BC5EB"/>
				<stop  offset="0.5846" style="stop-color:#3EB3E5"/>
				<stop  offset="0.6061" style="stop-color:#29ABE2"/>
				<stop  offset="0.6537" style="stop-color:#2390CF"/>
				<stop  offset="0.7561" style="stop-color:#124C9D"/>
				<stop  offset="0.8606" style="stop-color:#000066"/>
			</radialGradient>
			<path fill="url(#SVGID_17_)" d="M991.27,324.05c-67.433-67.432-157.088-104.568-252.451-104.568
				c-95.363,0-185.019,37.137-252.45,104.569C418.937,391.483,381.8,481.139,381.8,576.502c0,95.362,37.136,185.018,104.568,252.45
				c67.433,67.432,157.088,104.568,252.45,104.568c95.362,0,185.017-37.136,252.451-104.568
				c67.432-67.433,104.568-157.087,104.568-252.45C1095.838,481.138,1058.701,391.483,991.27,324.05z M927.63,765.313
				c-50.434,50.433-117.487,78.208-188.811,78.208c-71.323,0-138.377-27.775-188.811-78.208
				C499.575,714.879,471.8,647.824,471.8,576.502c0-71.324,27.775-138.378,78.208-188.811
				c50.433-50.434,117.487-78.208,188.811-78.208c71.324,0,138.377,27.775,188.811,78.208
				c50.434,50.434,78.208,117.488,78.208,188.812C1005.838,647.825,978.063,714.879,927.63,765.313z"/>
			
				<radialGradient id="SVGID_18_" cx="738.8193" cy="576.502" r="612.0186" gradientTransform="matrix(1 0 0 0.97 0 17.295)" gradientUnits="userSpaceOnUse">
				<stop  offset="0" style="stop-color:#FFFFFF"/>
				<stop  offset="0.1502" style="stop-color:#FCFEFF"/>
				<stop  offset="0.2476" style="stop-color:#F4FBFD"/>
				<stop  offset="0.3299" style="stop-color:#E5F5FB"/>
				<stop  offset="0.4039" style="stop-color:#D0ECF9"/>
				<stop  offset="0.4723" style="stop-color:#B4E2F5"/>
				<stop  offset="0.5366" style="stop-color:#93D5F0"/>
				<stop  offset="0.5977" style="stop-color:#6BC5EB"/>
				<stop  offset="0.6547" style="stop-color:#3EB3E5"/>
				<stop  offset="0.6788" style="stop-color:#29ABE2"/>
				<stop  offset="0.7108" style="stop-color:#2498D4"/>
				<stop  offset="0.8514" style="stop-color:#114699"/>
				<stop  offset="0.9512" style="stop-color:#051474"/>
				<stop  offset="1" style="stop-color:#000066"/>
			</radialGradient>
			<path fill="url(#SVGID_18_)" d="M991.27,324.05c-67.433-67.432-157.088-104.568-252.451-104.568
				c-95.363,0-185.019,37.137-252.45,104.569C418.937,391.483,381.8,481.139,381.8,576.502c0,95.362,37.136,185.018,104.568,252.45
				c67.433,67.432,157.088,104.568,252.45,104.568c95.362,0,185.017-37.136,252.451-104.568
				c67.432-67.433,104.568-157.087,104.568-252.45C1095.838,481.138,1058.701,391.483,991.27,324.05z M927.63,765.313
				c-50.434,50.433-117.487,78.208-188.811,78.208c-71.323,0-138.377-27.775-188.811-78.208
				C499.575,714.879,471.8,647.824,471.8,576.502c0-71.324,27.775-138.378,78.208-188.811
				c50.433-50.434,117.487-78.208,188.811-78.208c71.324,0,138.377,27.775,188.811,78.208
				c50.434,50.434,78.208,117.488,78.208,188.812C1005.838,647.825,978.063,714.879,927.63,765.313z"/>
			
				<radialGradient id="SVGID_19_" cx="738.8193" cy="576.502" r="467.0186" gradientTransform="matrix(1 0 0 0.92 0 46.1202)" gradientUnits="userSpaceOnUse">
				<stop  offset="0" style="stop-color:#FFFFFF"/>
				<stop  offset="0.1529" style="stop-color:#FCFEFF"/>
				<stop  offset="0.252" style="stop-color:#F4FBFD"/>
				<stop  offset="0.3358" style="stop-color:#E5F5FB"/>
				<stop  offset="0.4111" style="stop-color:#D0ECF9"/>
				<stop  offset="0.4807" style="stop-color:#B4E2F5"/>
				<stop  offset="0.5462" style="stop-color:#93D5F0"/>
				<stop  offset="0.6084" style="stop-color:#6BC5EB"/>
				<stop  offset="0.6664" style="stop-color:#3EB3E5"/>
				<stop  offset="0.6909" style="stop-color:#29ABE2"/>
				<stop  offset="0.7351" style="stop-color:#28A7DF"/>
				<stop  offset="0.7825" style="stop-color:#259AD5"/>
				<stop  offset="0.8316" style="stop-color:#2084C6"/>
				<stop  offset="0.8818" style="stop-color:#1866B0"/>
				<stop  offset="0.9328" style="stop-color:#0F3F94"/>
				<stop  offset="0.9837" style="stop-color:#041172"/>
				<stop  offset="1" style="stop-color:#000066"/>
			</radialGradient>
			<path fill="url(#SVGID_19_)" d="M991.27,324.05c-67.433-67.432-157.088-104.568-252.451-104.568
				c-95.363,0-185.019,37.137-252.45,104.569C418.937,391.483,381.8,481.139,381.8,576.502c0,95.362,37.136,185.018,104.568,252.45
				c67.433,67.432,157.088,104.568,252.45,104.568c95.362,0,185.017-37.136,252.451-104.568
				c67.432-67.433,104.568-157.087,104.568-252.45C1095.838,481.138,1058.701,391.483,991.27,324.05z M927.63,765.313
				c-50.434,50.433-117.487,78.208-188.811,78.208c-71.323,0-138.377-27.775-188.811-78.208
				C499.575,714.879,471.8,647.824,471.8,576.502c0-71.324,27.775-138.378,78.208-188.811
				c50.433-50.434,117.487-78.208,188.811-78.208c71.324,0,138.377,27.775,188.811,78.208
				c50.434,50.434,78.208,117.488,78.208,188.812C1005.838,647.825,978.063,714.879,927.63,765.313z"/>
			
				<radialGradient id="SVGID_20_" cx="738.8193" cy="576.502" r="357.0186" gradientTransform="matrix(1 0 0 0.95 0 28.8251)" gradientUnits="userSpaceOnUse">
				<stop  offset="0" style="stop-color:#FFFFFF"/>
				<stop  offset="0.173" style="stop-color:#FCFEFF"/>
				<stop  offset="0.2852" style="stop-color:#F4FBFD"/>
				<stop  offset="0.38" style="stop-color:#E5F5FB"/>
				<stop  offset="0.4652" style="stop-color:#D0ECF9"/>
				<stop  offset="0.544" style="stop-color:#B4E2F5"/>
				<stop  offset="0.618" style="stop-color:#93D5F0"/>
				<stop  offset="0.6884" style="stop-color:#6BC5EB"/>
				<stop  offset="0.7541" style="stop-color:#3EB3E5"/>
				<stop  offset="0.7818" style="stop-color:#29ABE2"/>
				<stop  offset="0.8109" style="stop-color:#28A6DE"/>
				<stop  offset="0.8447" style="stop-color:#2498D4"/>
				<stop  offset="0.8809" style="stop-color:#1F81C3"/>
				<stop  offset="0.9188" style="stop-color:#1760AC"/>
				<stop  offset="0.9579" style="stop-color:#0D368D"/>
				<stop  offset="0.9977" style="stop-color:#010368"/>
				<stop  offset="1" style="stop-color:#000066"/>
			</radialGradient>
			<path fill="url(#SVGID_20_)" d="M991.27,324.05c-67.433-67.432-157.088-104.568-252.451-104.568
				c-95.363,0-185.019,37.137-252.45,104.569C418.937,391.483,381.8,481.139,381.8,576.502c0,95.362,37.136,185.018,104.568,252.45
				c67.433,67.432,157.088,104.568,252.45,104.568c95.362,0,185.017-37.136,252.451-104.568
				c67.432-67.433,104.568-157.087,104.568-252.45C1095.838,481.138,1058.701,391.483,991.27,324.05z M927.63,765.313
				c-50.434,50.433-117.487,78.208-188.811,78.208c-71.323,0-138.377-27.775-188.811-78.208
				C499.575,714.879,471.8,647.824,471.8,576.502c0-71.324,27.775-138.378,78.208-188.811
				c50.433-50.434,117.487-78.208,188.811-78.208c71.324,0,138.377,27.775,188.811,78.208
				c50.434,50.434,78.208,117.488,78.208,188.812C1005.838,647.825,978.063,714.879,927.63,765.313z"/>
			<radialGradient id="SVGID_21_" cx="738.8193" cy="576.502" r="987.0186" gradientUnits="userSpaceOnUse">
				<stop  offset="0" style="stop-color:#FFFFFF"/>
				<stop  offset="0.1422" style="stop-color:#FCFEFF"/>
				<stop  offset="0.2343" style="stop-color:#F4FBFD"/>
				<stop  offset="0.3123" style="stop-color:#E5F5FB"/>
				<stop  offset="0.3823" style="stop-color:#D0ECF9"/>
				<stop  offset="0.447" style="stop-color:#B4E2F5"/>
				<stop  offset="0.5078" style="stop-color:#93D5F0"/>
				<stop  offset="0.5657" style="stop-color:#6BC5EB"/>
				<stop  offset="0.6197" style="stop-color:#3EB3E5"/>
				<stop  offset="0.6424" style="stop-color:#29ABE2"/>
				<stop  offset="0.6463" style="stop-color:#28A6DF"/>
				<stop  offset="0.6863" style="stop-color:#1D7ABF"/>
				<stop  offset="0.7283" style="stop-color:#1455A3"/>
				<stop  offset="0.7716" style="stop-color:#0D368D"/>
				<stop  offset="0.8167" style="stop-color:#071E7C"/>
				<stop  offset="0.8645" style="stop-color:#030D70"/>
				<stop  offset="0.9168" style="stop-color:#010368"/>
				<stop  offset="0.9818" style="stop-color:#000066"/>
			</radialGradient>
			<path fill="url(#SVGID_21_)" d="M927.63,387.69c-50.434-50.433-117.487-78.208-188.811-78.208
				c-71.323,0-138.377,27.775-188.811,78.208C499.575,438.124,471.8,505.178,471.8,576.502c0,71.322,27.775,138.377,78.208,188.811
				c50.433,50.433,117.487,78.208,188.811,78.208c71.324,0,138.377-27.775,188.811-78.208
				c50.434-50.434,78.208-117.487,78.208-188.811C1005.838,505.178,978.063,438.124,927.63,387.69z M738.819,768.521
				c-106.049,0-192.019-85.971-192.019-192.019c0-106.05,85.97-192.02,192.019-192.02c106.049,0,192.019,85.97,192.019,192.02
				C930.838,682.55,844.868,768.521,738.819,768.521z"/>
			
				<radialGradient id="SVGID_22_" cx="738.8193" cy="576.502" r="812.0186" gradientTransform="matrix(1 0 0 0.95 0 28.8251)" gradientUnits="userSpaceOnUse">
				<stop  offset="0" style="stop-color:#FFFFFF"/>
				<stop  offset="0.1341" style="stop-color:#FCFEFF"/>
				<stop  offset="0.221" style="stop-color:#F4FBFD"/>
				<stop  offset="0.2946" style="stop-color:#E5F5FB"/>
				<stop  offset="0.3606" style="stop-color:#D0ECF9"/>
				<stop  offset="0.4217" style="stop-color:#B4E2F5"/>
				<stop  offset="0.4791" style="stop-color:#93D5F0"/>
				<stop  offset="0.5337" style="stop-color:#6BC5EB"/>
				<stop  offset="0.5846" style="stop-color:#3EB3E5"/>
				<stop  offset="0.6061" style="stop-color:#29ABE2"/>
				<stop  offset="0.6537" style="stop-color:#2390CF"/>
				<stop  offset="0.7561" style="stop-color:#124C9D"/>
				<stop  offset="0.8606" style="stop-color:#000066"/>
			</radialGradient>
			<path fill="url(#SVGID_22_)" d="M927.63,387.69c-50.434-50.433-117.487-78.208-188.811-78.208
				c-71.323,0-138.377,27.775-188.811,78.208C499.575,438.124,471.8,505.178,471.8,576.502c0,71.322,27.775,138.377,78.208,188.811
				c50.433,50.433,117.487,78.208,188.811,78.208c71.324,0,138.377-27.775,188.811-78.208
				c50.434-50.434,78.208-117.487,78.208-188.811C1005.838,505.178,978.063,438.124,927.63,387.69z M738.819,768.521
				c-106.049,0-192.019-85.971-192.019-192.019c0-106.05,85.97-192.02,192.019-192.02c106.049,0,192.019,85.97,192.019,192.02
				C930.838,682.55,844.868,768.521,738.819,768.521z"/>
			
				<radialGradient id="SVGID_23_" cx="738.8193" cy="576.502" r="612.0186" gradientTransform="matrix(1 0 0 0.97 0 17.295)" gradientUnits="userSpaceOnUse">
				<stop  offset="0" style="stop-color:#FFFFFF"/>
				<stop  offset="0.1502" style="stop-color:#FCFEFF"/>
				<stop  offset="0.2476" style="stop-color:#F4FBFD"/>
				<stop  offset="0.3299" style="stop-color:#E5F5FB"/>
				<stop  offset="0.4039" style="stop-color:#D0ECF9"/>
				<stop  offset="0.4723" style="stop-color:#B4E2F5"/>
				<stop  offset="0.5366" style="stop-color:#93D5F0"/>
				<stop  offset="0.5977" style="stop-color:#6BC5EB"/>
				<stop  offset="0.6547" style="stop-color:#3EB3E5"/>
				<stop  offset="0.6788" style="stop-color:#29ABE2"/>
				<stop  offset="0.7108" style="stop-color:#2498D4"/>
				<stop  offset="0.8514" style="stop-color:#114699"/>
				<stop  offset="0.9512" style="stop-color:#051474"/>
				<stop  offset="1" style="stop-color:#000066"/>
			</radialGradient>
			<path fill="url(#SVGID_23_)" d="M927.63,387.69c-50.434-50.433-117.487-78.208-188.811-78.208
				c-71.323,0-138.377,27.775-188.811,78.208C499.575,438.124,471.8,505.178,471.8,576.502c0,71.322,27.775,138.377,78.208,188.811
				c50.433,50.433,117.487,78.208,188.811,78.208c71.324,0,138.377-27.775,188.811-78.208
				c50.434-50.434,78.208-117.487,78.208-188.811C1005.838,505.178,978.063,438.124,927.63,387.69z M738.819,768.521
				c-106.049,0-192.019-85.971-192.019-192.019c0-106.05,85.97-192.02,192.019-192.02c106.049,0,192.019,85.97,192.019,192.02
				C930.838,682.55,844.868,768.521,738.819,768.521z"/>
			
				<radialGradient id="SVGID_24_" cx="738.8193" cy="576.502" r="467.0186" gradientTransform="matrix(1 0 0 0.92 0 46.1202)" gradientUnits="userSpaceOnUse">
				<stop  offset="0" style="stop-color:#FFFFFF"/>
				<stop  offset="0.1529" style="stop-color:#FCFEFF"/>
				<stop  offset="0.252" style="stop-color:#F4FBFD"/>
				<stop  offset="0.3358" style="stop-color:#E5F5FB"/>
				<stop  offset="0.4111" style="stop-color:#D0ECF9"/>
				<stop  offset="0.4807" style="stop-color:#B4E2F5"/>
				<stop  offset="0.5462" style="stop-color:#93D5F0"/>
				<stop  offset="0.6084" style="stop-color:#6BC5EB"/>
				<stop  offset="0.6664" style="stop-color:#3EB3E5"/>
				<stop  offset="0.6909" style="stop-color:#29ABE2"/>
				<stop  offset="0.7351" style="stop-color:#28A7DF"/>
				<stop  offset="0.7825" style="stop-color:#259AD5"/>
				<stop  offset="0.8316" style="stop-color:#2084C6"/>
				<stop  offset="0.8818" style="stop-color:#1866B0"/>
				<stop  offset="0.9328" style="stop-color:#0F3F94"/>
				<stop  offset="0.9837" style="stop-color:#041172"/>
				<stop  offset="1" style="stop-color:#000066"/>
			</radialGradient>
			<path fill="url(#SVGID_24_)" d="M927.63,387.69c-50.434-50.433-117.487-78.208-188.811-78.208
				c-71.323,0-138.377,27.775-188.811,78.208C499.575,438.124,471.8,505.178,471.8,576.502c0,71.322,27.775,138.377,78.208,188.811
				c50.433,50.433,117.487,78.208,188.811,78.208c71.324,0,138.377-27.775,188.811-78.208
				c50.434-50.434,78.208-117.487,78.208-188.811C1005.838,505.178,978.063,438.124,927.63,387.69z M738.819,768.521
				c-106.049,0-192.019-85.971-192.019-192.019c0-106.05,85.97-192.02,192.019-192.02c106.049,0,192.019,85.97,192.019,192.02
				C930.838,682.55,844.868,768.521,738.819,768.521z"/>
			
				<radialGradient id="SVGID_25_" cx="738.8193" cy="576.502" r="357.0186" gradientTransform="matrix(1 0 0 0.95 0 28.8251)" gradientUnits="userSpaceOnUse">
				<stop  offset="0" style="stop-color:#FFFFFF"/>
				<stop  offset="0.173" style="stop-color:#FCFEFF"/>
				<stop  offset="0.2852" style="stop-color:#F4FBFD"/>
				<stop  offset="0.38" style="stop-color:#E5F5FB"/>
				<stop  offset="0.4652" style="stop-color:#D0ECF9"/>
				<stop  offset="0.544" style="stop-color:#B4E2F5"/>
				<stop  offset="0.618" style="stop-color:#93D5F0"/>
				<stop  offset="0.6884" style="stop-color:#6BC5EB"/>
				<stop  offset="0.7541" style="stop-color:#3EB3E5"/>
				<stop  offset="0.7818" style="stop-color:#29ABE2"/>
				<stop  offset="0.8109" style="stop-color:#28A6DE"/>
				<stop  offset="0.8447" style="stop-color:#2498D4"/>
				<stop  offset="0.8809" style="stop-color:#1F81C3"/>
				<stop  offset="0.9188" style="stop-color:#1760AC"/>
				<stop  offset="0.9579" style="stop-color:#0D368D"/>
				<stop  offset="0.9977" style="stop-color:#010368"/>
				<stop  offset="1" style="stop-color:#000066"/>
			</radialGradient>
			<path fill="url(#SVGID_25_)" d="M927.63,387.69c-50.434-50.433-117.487-78.208-188.811-78.208
				c-71.323,0-138.377,27.775-188.811,78.208C499.575,438.124,471.8,505.178,471.8,576.502c0,71.322,27.775,138.377,78.208,188.811
				c50.433,50.433,117.487,78.208,188.811,78.208c71.324,0,138.377-27.775,188.811-78.208
				c50.434-50.434,78.208-117.487,78.208-188.811C1005.838,505.178,978.063,438.124,927.63,387.69z M738.819,768.521
				c-106.049,0-192.019-85.971-192.019-192.019c0-106.05,85.97-192.02,192.019-192.02c106.049,0,192.019,85.97,192.019,192.02
				C930.838,682.55,844.868,768.521,738.819,768.521z"/>
			
				<radialGradient id="SVGID_26_" cx="738.8193" cy="576.502" r="267.0186" gradientTransform="matrix(1 0 0 0.98 0 11.53)" gradientUnits="userSpaceOnUse">
				<stop  offset="0.6606" style="stop-color:#FFFFFF"/>
				<stop  offset="0.6686" style="stop-color:#ECF7FC"/>
				<stop  offset="0.6921" style="stop-color:#B9E3F5"/>
				<stop  offset="0.716" style="stop-color:#8DD2EF"/>
				<stop  offset="0.7399" style="stop-color:#69C4EB"/>
				<stop  offset="0.7639" style="stop-color:#4DB9E7"/>
				<stop  offset="0.7879" style="stop-color:#39B1E4"/>
				<stop  offset="0.812" style="stop-color:#2DADE3"/>
				<stop  offset="0.8364" style="stop-color:#29ABE2"/>
				<stop  offset="0.9391" style="stop-color:#0D83C8"/>
				<stop  offset="1" style="stop-color:#0071BC"/>
			</radialGradient>
			<path fill="url(#SVGID_26_)" d="M927.63,387.69c-50.434-50.433-117.487-78.208-188.811-78.208
				c-71.323,0-138.377,27.775-188.811,78.208C499.575,438.124,471.8,505.178,471.8,576.502c0,71.322,27.775,138.377,78.208,188.811
				c50.433,50.433,117.487,78.208,188.811,78.208c71.324,0,138.377-27.775,188.811-78.208
				c50.434-50.434,78.208-117.487,78.208-188.811C1005.838,505.178,978.063,438.124,927.63,387.69z M738.819,768.521
				c-106.049,0-192.019-85.971-192.019-192.019c0-106.05,85.97-192.02,192.019-192.02c106.049,0,192.019,85.97,192.019,192.02
				C930.838,682.55,844.868,768.521,738.819,768.521z"/>
			<radialGradient id="SVGID_27_" cx="738.8193" cy="576.502" r="987.0185" gradientUnits="userSpaceOnUse">
				<stop  offset="0" style="stop-color:#FFFFFF"/>
				<stop  offset="0.1422" style="stop-color:#FCFEFF"/>
				<stop  offset="0.2343" style="stop-color:#F4FBFD"/>
				<stop  offset="0.3123" style="stop-color:#E5F5FB"/>
				<stop  offset="0.3823" style="stop-color:#D0ECF9"/>
				<stop  offset="0.447" style="stop-color:#B4E2F5"/>
				<stop  offset="0.5078" style="stop-color:#93D5F0"/>
				<stop  offset="0.5657" style="stop-color:#6BC5EB"/>
				<stop  offset="0.6197" style="stop-color:#3EB3E5"/>
				<stop  offset="0.6424" style="stop-color:#29ABE2"/>
				<stop  offset="0.6463" style="stop-color:#28A6DF"/>
				<stop  offset="0.6863" style="stop-color:#1D7ABF"/>
				<stop  offset="0.7283" style="stop-color:#1455A3"/>
				<stop  offset="0.7716" style="stop-color:#0D368D"/>
				<stop  offset="0.8167" style="stop-color:#071E7C"/>
				<stop  offset="0.8645" style="stop-color:#030D70"/>
				<stop  offset="0.9168" style="stop-color:#010368"/>
				<stop  offset="0.9818" style="stop-color:#000066"/>
			</radialGradient>
			<circle fill="url(#SVGID_27_)" cx="738.819" cy="576.501" r="192.019"/>
			
				<radialGradient id="SVGID_28_" cx="738.8193" cy="576.502" r="812.0185" gradientTransform="matrix(1 0 0 0.95 0 28.8251)" gradientUnits="userSpaceOnUse">
				<stop  offset="0" style="stop-color:#FFFFFF"/>
				<stop  offset="0.1341" style="stop-color:#FCFEFF"/>
				<stop  offset="0.221" style="stop-color:#F4FBFD"/>
				<stop  offset="0.2946" style="stop-color:#E5F5FB"/>
				<stop  offset="0.3606" style="stop-color:#D0ECF9"/>
				<stop  offset="0.4217" style="stop-color:#B4E2F5"/>
				<stop  offset="0.4791" style="stop-color:#93D5F0"/>
				<stop  offset="0.5337" style="stop-color:#6BC5EB"/>
				<stop  offset="0.5846" style="stop-color:#3EB3E5"/>
				<stop  offset="0.6061" style="stop-color:#29ABE2"/>
				<stop  offset="0.6537" style="stop-color:#2390CF"/>
				<stop  offset="0.7561" style="stop-color:#124C9D"/>
				<stop  offset="0.8606" style="stop-color:#000066"/>
			</radialGradient>
			<circle fill="url(#SVGID_28_)" cx="738.819" cy="576.501" r="192.019"/>
			
				<radialGradient id="SVGID_29_" cx="738.8193" cy="576.502" r="612.0186" gradientTransform="matrix(1 0 0 0.97 0 17.295)" gradientUnits="userSpaceOnUse">
				<stop  offset="0" style="stop-color:#FFFFFF"/>
				<stop  offset="0.1502" style="stop-color:#FCFEFF"/>
				<stop  offset="0.2476" style="stop-color:#F4FBFD"/>
				<stop  offset="0.3299" style="stop-color:#E5F5FB"/>
				<stop  offset="0.4039" style="stop-color:#D0ECF9"/>
				<stop  offset="0.4723" style="stop-color:#B4E2F5"/>
				<stop  offset="0.5366" style="stop-color:#93D5F0"/>
				<stop  offset="0.5977" style="stop-color:#6BC5EB"/>
				<stop  offset="0.6547" style="stop-color:#3EB3E5"/>
				<stop  offset="0.6788" style="stop-color:#29ABE2"/>
				<stop  offset="0.7108" style="stop-color:#2498D4"/>
				<stop  offset="0.8514" style="stop-color:#114699"/>
				<stop  offset="0.9512" style="stop-color:#051474"/>
				<stop  offset="1" style="stop-color:#000066"/>
			</radialGradient>
			<circle fill="url(#SVGID_29_)" cx="738.819" cy="576.501" r="192.019"/>
			
				<radialGradient id="SVGID_30_" cx="738.8193" cy="576.502" r="467.0186" gradientTransform="matrix(1 0 0 0.92 0 46.1202)" gradientUnits="userSpaceOnUse">
				<stop  offset="0" style="stop-color:#FFFFFF"/>
				<stop  offset="0.1529" style="stop-color:#FCFEFF"/>
				<stop  offset="0.252" style="stop-color:#F4FBFD"/>
				<stop  offset="0.3358" style="stop-color:#E5F5FB"/>
				<stop  offset="0.4111" style="stop-color:#D0ECF9"/>
				<stop  offset="0.4807" style="stop-color:#B4E2F5"/>
				<stop  offset="0.5462" style="stop-color:#93D5F0"/>
				<stop  offset="0.6084" style="stop-color:#6BC5EB"/>
				<stop  offset="0.6664" style="stop-color:#3EB3E5"/>
				<stop  offset="0.6909" style="stop-color:#29ABE2"/>
				<stop  offset="0.7351" style="stop-color:#28A7DF"/>
				<stop  offset="0.7825" style="stop-color:#259AD5"/>
				<stop  offset="0.8316" style="stop-color:#2084C6"/>
				<stop  offset="0.8818" style="stop-color:#1866B0"/>
				<stop  offset="0.9328" style="stop-color:#0F3F94"/>
				<stop  offset="0.9837" style="stop-color:#041172"/>
				<stop  offset="1" style="stop-color:#000066"/>
			</radialGradient>
			<circle fill="url(#SVGID_30_)" cx="738.819" cy="576.501" r="192.019"/>
			
				<radialGradient id="SVGID_31_" cx="738.8193" cy="576.502" r="357.0186" gradientTransform="matrix(1 0 0 0.95 0 28.8251)" gradientUnits="userSpaceOnUse">
				<stop  offset="0" style="stop-color:#FFFFFF"/>
				<stop  offset="0.173" style="stop-color:#FCFEFF"/>
				<stop  offset="0.2852" style="stop-color:#F4FBFD"/>
				<stop  offset="0.38" style="stop-color:#E5F5FB"/>
				<stop  offset="0.4652" style="stop-color:#D0ECF9"/>
				<stop  offset="0.544" style="stop-color:#B4E2F5"/>
				<stop  offset="0.618" style="stop-color:#93D5F0"/>
				<stop  offset="0.6884" style="stop-color:#6BC5EB"/>
				<stop  offset="0.7541" style="stop-color:#3EB3E5"/>
				<stop  offset="0.7818" style="stop-color:#29ABE2"/>
				<stop  offset="0.8109" style="stop-color:#28A6DE"/>
				<stop  offset="0.8447" style="stop-color:#2498D4"/>
				<stop  offset="0.8809" style="stop-color:#1F81C3"/>
				<stop  offset="0.9188" style="stop-color:#1760AC"/>
				<stop  offset="0.9579" style="stop-color:#0D368D"/>
				<stop  offset="0.9977" style="stop-color:#010368"/>
				<stop  offset="1" style="stop-color:#000066"/>
			</radialGradient>
			<circle fill="url(#SVGID_31_)" cx="738.819" cy="576.501" r="192.019"/>
			
				<radialGradient id="SVGID_32_" cx="738.8193" cy="576.502" r="267.0186" gradientTransform="matrix(1 0 0 0.98 0 11.53)" gradientUnits="userSpaceOnUse">
				<stop  offset="0.6606" style="stop-color:#FFFFFF"/>
				<stop  offset="0.6686" style="stop-color:#ECF7FC"/>
				<stop  offset="0.6921" style="stop-color:#B9E3F5"/>
				<stop  offset="0.716" style="stop-color:#8DD2EF"/>
				<stop  offset="0.7399" style="stop-color:#69C4EB"/>
				<stop  offset="0.7639" style="stop-color:#4DB9E7"/>
				<stop  offset="0.7879" style="stop-color:#39B1E4"/>
				<stop  offset="0.812" style="stop-color:#2DADE3"/>
				<stop  offset="0.8364" style="stop-color:#29ABE2"/>
				<stop  offset="0.9391" style="stop-color:#0D83C8"/>
				<stop  offset="1" style="stop-color:#0071BC"/>
			</radialGradient>
			<circle fill="url(#SVGID_32_)" cx="738.819" cy="576.501" r="192.019"/>
			<radialGradient id="SVGID_33_" cx="738.8193" cy="576.502" r="192.0185" gradientUnits="userSpaceOnUse">
				<stop  offset="0.0182" style="stop-color:#1B14B0"/>
				<stop  offset="0.1614" style="stop-color:#1B149C"/>
				<stop  offset="0.5439" style="stop-color:#1B146B"/>
				<stop  offset="0.8356" style="stop-color:#1B144D"/>
				<stop  offset="1" style="stop-color:#1B1442"/>
			</radialGradient>
			<circle fill="url(#SVGID_33_)" cx="738.819" cy="576.501" r="192.019"/>
		</g>
	</g>
</g>
<g id="Layer_3">
	<g>
		<path fill="#0071BC" d="M318.973,622.499c-14.512,6.472-25.094-7.103-21.114-20.798c4.194-14.431,24.105-20.426,36.725-24.146
			c39.084-11.519,79.148-24.599,111.69-49.885c3.324-2.583,2.692-8.209,0-10.901c-3.247-3.247-7.587-2.576-10.901,0
			c-18.87,14.663-40.864,24.353-63.234,32.315c-11.337,4.036-22.814,7.67-34.237,11.454c-8.989,2.978-17.958,5.321-26.659,9.18
			c-18.466,8.189-32.409,23.894-29.207,45.111c1.354,8.971,7.69,17.1,15.519,21.394c9.322,5.114,19.871,3.748,29.2-0.412
			c3.839-1.712,4.712-7.224,2.765-10.547C327.225,621.349,322.811,620.788,318.973,622.499L318.973,622.499z"/>
	</g>
	<g>
		<path fill="#0071BC" d="M404.504,555.354c-8.974,7.044-16.6,15.533-21.963,25.646c-5.128,9.669-7.901,20.375-10.089,31.028
			c-3.026,14.741-5.865,29.382-9.481,43.999c-9.028,36.485-18.761,73.425-33.201,108.196c-2.116,5.095-4.683,10.478-7.48,15.423
			c-1.216,2.149-2.545,4.232-4.007,6.223c1.172-1.597-0.615,0.687-0.925,1.03c-1.04,1.152-2.185,2.225-3.333,3.265
			c-11.172,10.123-29.012,9.606-42.288,4.791c-15.945-5.783-24.59-20.576-24.59-37.094c0-10.047,3.088-20.614,10.853-27.284
			c7.704-6.618,17.721-7.29,27.382-6.623c9.928,0.686,9.861-14.735,0-15.416c-12.216-0.844-24.124,0.961-34.346,8.085
			c-10.799,7.527-16.47,19.031-18.463,31.845c-3.523,22.651,5.225,44.788,25.12,56.735c16.984,10.199,39.009,11.122,56.864,2.847
			c13.409-6.215,20.796-18.912,26.654-31.782c15.66-34.405,25.365-71.82,34.668-108.345c3.394-13.322,6.837-26.702,9.263-40.24
			c1.993-11.125,4.042-22.313,8.005-32.936c3.619-9.698,9.958-17.815,17.607-24.661c1.497-1.34,3.072-2.591,4.651-3.83
			c3.311-2.6,2.703-8.199,0-10.902C412.17,552.119,407.806,552.762,404.504,555.354L404.504,555.354z"/>
	</g>
	<g>
		<path fill="#0071BC" d="M417.153,642.426c22.245-16.29,41.609-35.697,56.214-59.19c8.017-12.896,13.187-26.987,17.199-41.593
			c2.267-8.254,3.985-16.715,4.647-25.259c0.493-6.366,0.198-14.07-3.651-19.464c-4.441-6.223-12.087-8.063-19.209-5.563
			c-7.361,2.583-12.484,8.773-16.231,15.364c-8.246,14.505-11.506,31.943-14.386,48.177c-3.354,18.906-6.778,37.74-10.461,56.595
			c-4.354,22.29-7.665,44.755-11.96,67.043c-3.889,20.178-9.429,40.039-14.587,59.916c4.956,1.366,9.911,2.731,14.866,4.098
			c6.686-27.141,16.348-53.65,29.196-78.488c4.867-9.408,10.231-18.851,16.833-27.168c2.369-2.984,4.96-5.798,7.826-8.312
			c1.663-1.459,3.236-2.429,5.342-2.871c-1.022,0.215-1.964,0.372-3.675-1.202c-0.807-0.742-1.093-2.579-0.545-0.301
			c0.434,1.805-0.147-1.818,0.042,0.203c0.061,0.65,0.069,1.305,0.082,1.957c0.034,1.779-0.109,3.563-0.27,5.333
			c-0.638,7.022-2.672,15.633-4.453,23.277c-3.428,14.711-8.785,29.702-6.604,44.968c0.866,6.065,4.127,11.399,9.152,14.842
			c5.904,4.045,13.842,2.165,19.749-0.626c12.781-6.039,19.368-21.808,23.238-34.45c2.918-9.531-11.964-13.575-14.866-4.098
			c-2.881,9.409-7.062,20.264-16.153,25.235c-7.505,4.105-6.403-8.073-6.161-12.923c0.125-2.514-0.187,0.729,0.199-1.538
			c0.232-1.366,0.518-2.723,0.806-4.077c0.796-3.749,1.712-7.474,2.615-11.198c2.042-8.427,4.118-16.849,5.782-25.36
			c1.911-9.775,7.477-35.866-9.934-35.313c-7.311,0.232-13.545,5.302-18.435,10.263c-6.978,7.081-12.537,15.704-17.591,24.211
			c-17.064,28.722-29.068,61.183-37.039,93.539c-2.377,9.648,12.368,13.725,14.866,4.098c5.319-20.494,10.986-40.966,14.943-61.78
			c4.569-24.033,8.26-48.215,12.987-72.231c3.653-18.559,6.674-37.192,10.223-55.76c2.777-14.533,6.261-34.515,16.323-44.686
			c1.25-1.263,2.255-1.866,3.646-2.276c0.888-0.18,0.86-0.209-0.084-0.088c0.63-0.083,1.264-0.068,1.896-0.045
			c-1.098-0.181-1.23-0.181-0.397,0c1.713,0.41-1.433-0.808,0.034,0.055c-0.871-0.727-1-0.812-0.386-0.255
			c1.263,1.183-0.889-1.414,0.067,0.108c1.087,1.731-0.061-0.676,0.547,1.437c0.113,0.423,0.211,0.849,0.296,1.278
			c0.47,2.192-0.121-1.604,0.115,0.755c0.13,1.3,0.141,2.61,0.138,3.915c-0.027,12.153-4.044,25.078-8.018,36.968
			c-4.026,12.049-8.499,20.778-16.323,32.395c-12.294,18.253-28.53,33.816-46.229,46.776c-3.383,2.478-5.054,6.64-2.765,10.547
			C408.565,643.004,413.755,644.913,417.153,642.426L417.153,642.426z"/>
	</g>
	<g>
		<path fill="#0071BC" d="M1241.331,403.912c-11.327,50.986-18.604,102.93-27.769,154.333c-1.733,9.719,13.123,13.875,14.865,4.099
			c9.166-51.403,16.442-103.347,27.769-154.333C1258.349,398.324,1243.486,394.208,1241.331,403.912L1241.331,403.912z"/>
	</g>
	<g>
		<path fill="#0071BC" d="M1219.68,584.35c-6.7-0.789-13.009,4.563-16.42,9.779c-4.324,6.611-2.304,17.139,6.03,19.469
			c15.276,4.272,23.492-16.126,16.601-27.589c-5.115-8.507-18.448-0.762-13.313,7.781c0.869,1.445-0.527-1.732,0.059-0.005
			c0.137,0.403,0.408,2.222,0.163,0.212c0.075,0.618,0.071,1.244,0.069,1.865c-0.009,0.429-0.034,0.855-0.076,1.282
			c0.145-0.976,0.137-1.018-0.023-0.126c-0.123,0.632-0.32,1.245-0.519,1.855c0.542-1.666-0.057,0.039-0.256,0.396
			c-0.93,1.657,1.058-1.059-0.216,0.238c0.867-0.607,0.947-0.692,0.242-0.253c0.547-0.352,1.146-0.504,1.795-0.456
			c-1.405,0.171,0.352,0.073,0.805,0.346c0.726,0.436,1.291,1.003,1.541,1.845c0.116,0.392-0.227,2.845,0.15,1.342
			c0.276-0.805,0.255-0.759-0.064,0.139c0.207-0.383,0.436-0.753,0.684-1.11c-0.896,1.37,0.358-0.31,0.55-0.505
			c0.327-0.32,0.669-0.624,1.023-0.913c-0.659,0.522-0.63,0.538,0.087,0.049c1.733-1.097-1.391,0.372,0.436-0.26
			c1.232-0.426-1.388-0.205,0.652,0.035c4.183,0.492,7.708-3.879,7.708-7.708C1227.388,587.484,1223.852,584.84,1219.68,584.35
			L1219.68,584.35z"/>
	</g>
	<g>
		<path fill="#0071BC" d="M569.513,602.309c-8.458-11.027-20.633-17.813-33.969-10.482c-11.9,6.541-18.833,20.58-23.835,32.548
			c-7.459,17.849-20.511,61.632,8.384,67.102c24.854,4.704,38.347-19.083,45.213-39.049c6.588-19.158,8.23-39.195,12.474-58.859
			c-4.581-1.263-9.162-2.526-13.742-3.789c-3.128,19.042-7.77,37.773-11.496,56.699c-1.354,6.877-2.917,14.103-1.198,21.053
			c2.242,9.068,11.336,10.892,19.278,8.977c8.957-2.16,16.101-10.388,21.249-17.521c5.179-7.177,9.275-14.786,12.493-23.023
			c7.388-18.912,11.218-39.964,12.442-60.177c-4.798,0-9.597,0-14.396,0c-0.203,27.057-2.846,54.071-4.979,81.024
			c4.811,0,9.622,0,14.433,0c1.553-19.755,2.509-39.88,7.462-59.148c2.125-8.27,4.616-14.266,11.473-18.822
			c6.24-4.147,14.355-6.071,18.414,1.511c2.727,5.095,1.611,11.139,0.517,16.501c-1.36,6.666-2.313,13.337-3.306,19.951
			c-1.181,7.865-0.894,16.214,1.044,23.938c1.928,7.687,8.444,15.152,17.112,11.913c8.804-3.29,14-12.885,17.924-20.839
			c9.71-19.678,15.362-41.068,23.85-61.256c9.206-21.894,19.628-43.042,29.805-64.475c6.27-13.204,12.83-26.556,15.226-41.105
			c1.607-9.755,2.249-26.053-6.552-33.086c-15.087-12.057-27.881,14.378-30.95,25.505c-3.058,11.088-4.173,22.873-5.639,34.243
			c-2.202,17.077-3.983,34.209-5.682,51.343c-3.154,31.818-5.949,63.685-8.456,95.56c4.756,0,9.513,0,14.27,0
			c0.295-12.984,1.603-25.898,4.828-38.503c3.057-11.944,8.353-25.102,18.948-32.291c4.317-2.93,11.312-5.976,16.45-3.561
			c4.218,1.982,5.627,7.042,3.678,11.158c-6.586,13.91-29.167,11.053-41.565,13.837c-6.373,1.432-6.735,10.016-1.724,13.19
			c12.084,7.654,18.493,20.452,29.329,29.29c10.838,8.839,25.68,10.29,38.071,3.978c8.347-4.252,0.996-16.779-7.328-12.539
			c-10.416,5.306-19.912-0.289-26.8-8.153c-8.12-9.271-15.434-18.36-25.987-25.038c-0.575,4.396-1.149,8.794-1.724,13.19
			c18.055-4.064,41.187-1.488,50.642-21.486c3.859-8.162,2.841-18.116-3.193-24.97c-6.774-7.693-17.162-8.882-26.586-6.147
			c-34.978,10.149-40.64,57.643-41.308,88.044c-0.205,9.3,13.564,9.054,14.27,0c2.77-35.55,5.808-71.079,9.453-106.553
			c1.792-17.439,3.646-34.896,6.229-52.238c1.754-11.784,3.505-23.344,10.487-33.341c0.814-1.166,1.896-2.181,2.958-3.121
			c-0.813,0.719,0.884-0.44,0.923-0.461c-0.777,0.41-1.214,0.33-2.063,0.197c-1.467-0.229-0.852-1.07-0.227,0.423
			c1.22,2.914,1.791,6.249,1.954,9.38c0.754,14.484-5.91,28.599-11.937,41.366c-10.099,21.395-20.778,42.381-30.112,64.147
			c-8.857,20.653-15.121,42.35-24.375,62.817c-1.891,4.183-3.99,8.278-6.462,12.149c-1,1.565-1.806,2.524-3.029,3.83
			c-0.462,0.493-1.185,1.188-1.735,1.571c-1.166,0.813,0.012,0.3,1.101,0.45c0.349,0.048,1.924,1.519,0.803,0.44
			c1.043,1.004-0.17-0.401-0.342-0.72c0.597,1.107-0.394-1.173-0.393-1.168c-0.263-0.822-0.443-1.67-0.629-2.512
			c-0.768-3.477-0.756-7.346-0.659-11.063c0.181-6.891,1.657-15.179,3.458-23.417c2.259-10.334,2.583-20.557-3.152-29.862
			c-9.463-15.353-29.567-11.261-41.47-1.565c-11.647,9.487-14.638,25.039-16.94,39.139c-2.617,16.028-3.522,32.21-4.786,48.375
			c-0.726,9.287,13.708,9.214,14.433,0c2.121-26.954,4.751-53.968,4.941-81.024c0.066-9.35-13.843-9.19-14.396,0
			c-1.016,16.902-4.386,33.807-9.547,49.923c-4.103,12.813-11.478,28.529-23.279,35.901c-1.236,0.771-2.458,1.158-3.868,1.499
			c-0.439,0.105-2.021-0.043-1.016,0.4c0.931,0.411,0.304,0.239,0.309,0.254c-0.307-0.926-0.285-1.995-0.271-3.388
			c0.063-5.844,1.766-11.83,2.871-17.539c3.191-16.476,7.377-32.707,10.17-49.269c1.5-8.897-11.74-12.879-13.742-3.789
			c-5.836,26.502-6.228,56.96-22.977,79.622c-3.162,4.278-7.206,7.166-12.493,8.216c-1.176,0.233-5.025-0.058-7.158-0.59
			c-0.881-0.22-1.744-0.513-2.604-0.802c1.908,0.642,0.832,0.355,0.3,0.042c-1.25-0.735,1.291,1.139,0.207,0.145
			c-1.412-1.295,0.5,0.862-0.204-0.162c-0.255-0.371-0.466-0.771-0.677-1.169c-0.775-1.456,0.572,1.558-0.038-0.05
			c-0.378-0.997-0.631-2.04-0.859-3.08c-0.124-0.567-0.213-1.142-0.304-1.714c0.286,1.813,0.004-0.257-0.021-0.532
			c-0.139-1.558-0.16-3.124-0.15-4.686c0.039-6.758,0.968-11.715,2.595-18.493c1.703-7.095,4.139-14.251,7.043-20.531
			c2.984-6.454,6.815-12.657,10.254-16.535c0.905-1.02,1.88-1.972,2.886-2.891c1.123-1.024,0.595-0.657,2.538-1.872
			c0.49-0.307,1.049-0.557,1.565-0.82c1.713-0.874-1.419,0.502,0.35-0.144c0.52-0.188,1.056-0.325,1.591-0.46
			c2.062-0.52-0.51-0.031,0.743-0.105c0.542-0.032,1.086,0,1.627,0.032c-1.924-0.115-0.199-0.006,0.245,0.094
			c0.563,0.125,1.107,0.317,1.65,0.508c-1.669-0.585,0.681,0.399,1.019,0.592c1.843,1.05,3.919,2.972,5.703,5.307
			c2.417,3.164,6.252,4.831,10.016,2.626C570.006,610.498,571.948,605.484,569.513,602.309L569.513,602.309z"/>
	</g>
	<g>
		<path fill="#0071BC" d="M995.383,437.296c-17.075,12.682-25.309,36.112-31.827,55.5c-7.148,21.261-11.255,43.093-14.18,65.277
			c-3.163,23.985-5.368,48.088-8.451,72.085c-2.642,20.558-5.301,42.486-21.977,56.911c-10.317,8.925-22.5,15.075-36.292,16.114
			c-12.802,0.966-25.435-0.883-34.235-10.932c-8.667-9.896-7.542-26.958-2.124-38.094c5.488-11.279,17.144-16.757,29.349-16.293
			c9.776,0.371,9.808-15.11,0-15.191c-22.45-0.186-40.779,12.711-46.768,34.647c-6.071,22.239,2.03,47.571,24.166,57.126
			c20.479,8.84,46.231,3.901,64.68-7.469c19.891-12.257,31.144-32.576,35.011-55.133c6.134-35.768,7.959-72.138,13.569-107.98
			c2.833-18.101,8.114-35.309,13.557-52.747c2.716-8.7,6.719-17.242,11.073-25.228c3.035-5.568,7.098-12.211,11.928-15.8
			c3.234-2.404,4.868-6.362,2.657-10.136C1003.646,436.757,998.633,434.883,995.383,437.296L995.383,437.296z"/>
	</g>
	<g>
		<path fill="#0071BC" d="M1014.668,501.36c-11.301,5.353-20.202,14.201-27.393,24.295c-6.846,9.609-10.002,20.007-11.227,31.602
			c-1.1,10.407-0.281,21.901,6.242,30.524c6.169,8.153,16.153,13.094,26.416,12.518c18.283-1.026,32.006-17.518,38.928-33.056
			c7.373-16.55,10.074-37.93-0.839-53.628c-2.268-3.261-4.946-6.29-9.003-7.14c-5.48-1.148-9.498,2.473-9.996,7.752
			c-0.862,9.134,14.462,13.142,20.956,13.845c7.637,0.826,13.289-1.608,19.6-3.77c5.18-1.774,10.43-3.365,15.684-4.906
			c-2.787-2.787-5.574-5.574-8.361-8.361c-4.923,16.831-15.701,32.543-16.822,50.353c-0.88,13.974,4.129,31.835,18.862,36.536
			c13.155,4.196,25.444-6.472,31.529-17.014c4.649-8.055,6.807-17.508,9.38-26.363c3.197-11,6.131-22.077,8.874-33.199
			c2.099-8.51-11-12.118-13.105-3.613c-4.799,19.39-10.982,39.338-10.861,59.491c0.051,8.377,1.805,17.851,9.115,22.967
			c8.359,5.851,19.34,1.76,27.466-2.298c7.844-3.917,0.957-15.643-6.861-11.738c-3.04,1.519-7.395,3.146-9.815,3.321
			c-2.226,0.161-1.188,0.238-3.133-0.408c0.412,0.137,0.063,0.141-1.012-1.04c0.661,0.727-0.917-1.922-0.815-1.645
			c-0.555-1.509-0.862-3.104-1.12-4.685c-0.355-2.183-0.249-7.336-0.042-10.61c1.071-16.891,6.218-33.378,10.185-49.742
			c-4.368-1.205-8.737-2.409-13.105-3.613c-4.178,17.289-8.402,34.921-14.548,51.635c-1.911,5.196-5.151,9.713-9.38,13.257
			c-1.227,1.028-3.172,1.815-4.2,2.115c-1.997,0.581-3.05,0.617-4.278,0.353c-2.721-0.585-5.495-3.18-7.032-6.842
			c-2.376-5.658-3.293-13.096-2.333-19.14c2.463-15.508,11.781-29.483,16.163-44.462c1.443-4.936-3.423-9.81-8.361-8.361
			c-6.223,1.825-12.439,3.717-18.544,5.907c-3.265,1.171-5.736,2.471-9.249,2.542c-3.063,0.062-10.711-0.631-12.167-3.94
			c0.229,1.746,0.457,3.492,0.686,5.238c-6.646,0.527-8.753,1.958-6.321,4.292c0.479,0.559,0.86,1.231,1.258,1.847
			c0.746,1.155,1.444,2.419,1.96,3.694c1.165,2.883,1.885,5.997,2.173,9.088c0.692,7.434-0.726,14.758-3.08,21.782
			c-4.031,12.027-12.973,25.741-25.851,29.364c-6.402,1.802-12.885-0.808-17.478-5.696c-5.516-5.873-4.763-15.818-4.091-23.149
			c1.717-18.713,14.913-36.144,31.846-44.099C1029.527,509.417,1022.592,497.607,1014.668,501.36L1014.668,501.36z"/>
	</g>
	<g>
		<path fill="#0071BC" d="M879.271,458.321c0.769-7.046,3.875-19.584,12.63-20.309c9.529-0.789,13.548,6.643,15.908,14.308
			c0.755,2.448,0.443,0.955,0.582,3.562c0.083,1.564,0.028,3.135-0.053,4.698c-0.196,3.78-0.715,6.443-1.537,10.39
			c-1.813,8.699-4.502,17.213-7.211,25.666c-5.738,17.907-12.426,35.733-15.57,54.338c-2.527,14.955-2.889,32.65,9.106,43.858
			c8.678,8.108,21.931,11.737,33.528,9.808c13.909-2.314,24.35-11.914,32.575-22.764c2.474-3.263,0.519-8.372-2.688-10.251
			c-3.848-2.255-7.781-0.554-10.251,2.688c-6.925,9.092-16.544,16.397-28.411,15.696c-4.897-0.289-9.874-2.776-13.804-5.564
			c-1.51-1.071-3.023-3.146-4.41-5.946c-0.48-0.971-1.645-5.606-1.79-6.896c-0.439-3.894-0.278-7.845,0.06-11.738
			c0.726-8.362,2.997-16.819,5.282-24.961c5.103-18.183,11.999-35.826,16.69-54.128c4.197-16.373,6.218-34.464-5.418-48.452
			c-7.234-8.697-22.063-11.774-32.104-6.909c-12.402,6.01-16.809,20.209-18.193,32.907c-0.447,4.094,3.767,7.54,7.539,7.54
			C876.179,465.86,878.825,462.405,879.271,458.321L879.271,458.321z"/>
	</g>
	<g>
		<path fill="#FFFFFF" d="M328.973,612.499c-14.512,6.472-25.094-7.103-21.114-20.798c4.194-14.431,24.105-20.426,36.725-24.146
			c39.084-11.518,79.148-24.599,111.69-49.885c3.324-2.583,2.692-8.209,0-10.901c-3.247-3.247-7.587-2.576-10.901,0
			c-18.87,14.663-40.864,24.353-63.234,32.315c-11.337,4.036-22.814,7.67-34.237,11.454c-8.989,2.978-17.958,5.321-26.659,9.18
			c-18.466,8.19-32.409,23.894-29.207,45.112c1.354,8.971,7.69,17.1,15.519,21.394c9.322,5.114,19.871,3.748,29.2-0.412
			c3.839-1.712,4.712-7.224,2.765-10.547C337.225,611.349,332.811,610.788,328.973,612.499L328.973,612.499z"/>
	</g>
	<g>
		<path fill="#FFFFFF" d="M414.504,545.354c-8.974,7.044-16.6,15.533-21.963,25.646c-5.128,9.669-7.901,20.375-10.089,31.028
			c-3.026,14.741-5.865,29.382-9.481,43.999c-9.028,36.485-18.761,73.425-33.201,108.196c-2.116,5.095-4.683,10.478-7.48,15.423
			c-1.216,2.149-2.545,4.232-4.007,6.223c1.172-1.597-0.615,0.687-0.925,1.03c-1.04,1.152-2.185,2.225-3.333,3.265
			c-11.172,10.123-29.012,9.606-42.288,4.791c-15.945-5.783-24.59-20.576-24.59-37.094c0-10.047,3.088-20.614,10.853-27.284
			c7.704-6.618,17.721-7.29,27.382-6.623c9.928,0.686,9.861-14.735,0-15.416c-12.216-0.844-24.124,0.961-34.346,8.085
			c-10.799,7.527-16.47,19.031-18.463,31.845c-3.523,22.651,5.225,44.788,25.12,56.735c16.984,10.199,39.009,11.122,56.864,2.847
			c13.409-6.215,20.796-18.912,26.654-31.782c15.66-34.405,25.365-71.82,34.668-108.345c3.394-13.322,6.837-26.702,9.263-40.24
			c1.993-11.125,4.042-22.313,8.005-32.936c3.619-9.698,9.958-17.815,17.607-24.662c1.497-1.34,3.072-2.59,4.651-3.83
			c3.311-2.599,2.703-8.198,0-10.901C422.17,542.119,417.806,542.762,414.504,545.354L414.504,545.354z"/>
	</g>
	<g>
		<path fill="#FFFFFF" d="M427.153,632.426c22.245-16.29,41.609-35.697,56.214-59.19c8.017-12.896,13.187-26.987,17.199-41.593
			c2.267-8.254,3.985-16.715,4.647-25.259c0.493-6.366,0.198-14.07-3.651-19.464c-4.441-6.223-12.087-8.063-19.209-5.563
			c-7.361,2.583-12.484,8.773-16.231,15.364c-8.246,14.505-11.506,31.943-14.386,48.177c-3.354,18.906-6.778,37.74-10.461,56.595
			c-4.354,22.29-7.665,44.755-11.96,67.043c-3.889,20.178-9.429,40.039-14.587,59.916c4.956,1.366,9.911,2.731,14.866,4.098
			c6.686-27.141,16.348-53.65,29.196-78.488c4.867-9.408,10.231-18.851,16.833-27.168c2.369-2.984,4.96-5.798,7.826-8.312
			c1.663-1.459,3.236-2.429,5.342-2.871c-1.022,0.215-1.964,0.372-3.675-1.202c-0.807-0.742-1.093-2.579-0.545-0.301
			c0.434,1.805-0.147-1.818,0.042,0.203c0.061,0.65,0.069,1.305,0.082,1.957c0.034,1.779-0.109,3.563-0.27,5.333
			c-0.638,7.022-2.672,15.633-4.453,23.277c-3.428,14.711-8.785,29.702-6.604,44.968c0.866,6.065,4.127,11.399,9.152,14.842
			c5.904,4.045,13.842,2.165,19.749-0.626c12.781-6.039,19.368-21.808,23.238-34.45c2.918-9.531-11.964-13.575-14.866-4.098
			c-2.881,9.409-7.062,20.264-16.153,25.235c-7.505,4.105-6.403-8.073-6.161-12.923c0.125-2.514-0.187,0.729,0.199-1.538
			c0.232-1.366,0.518-2.723,0.806-4.077c0.796-3.749,1.712-7.474,2.615-11.198c2.042-8.427,4.118-16.849,5.782-25.36
			c1.911-9.775,7.477-35.866-9.934-35.313c-7.311,0.232-13.545,5.302-18.435,10.263c-6.978,7.081-12.537,15.704-17.591,24.211
			c-17.064,28.722-29.068,61.183-37.039,93.539c-2.377,9.648,12.368,13.725,14.866,4.098c5.319-20.494,10.986-40.966,14.943-61.78
			c4.569-24.033,8.26-48.215,12.987-72.231c3.653-18.559,6.674-37.192,10.223-55.76c2.777-14.533,6.261-34.515,16.323-44.686
			c1.25-1.263,2.255-1.866,3.646-2.276c0.888-0.18,0.86-0.209-0.084-0.088c0.63-0.083,1.264-0.068,1.896-0.045
			c-1.098-0.181-1.23-0.181-0.397,0c1.713,0.41-1.433-0.808,0.034,0.055c-0.871-0.727-1-0.812-0.386-0.255
			c1.263,1.183-0.889-1.414,0.067,0.108c1.087,1.731-0.061-0.676,0.547,1.437c0.113,0.423,0.211,0.849,0.296,1.278
			c0.47,2.192-0.121-1.604,0.115,0.755c0.13,1.3,0.141,2.61,0.138,3.915c-0.027,12.153-4.044,25.078-8.018,36.968
			c-4.026,12.049-8.499,20.778-16.323,32.395c-12.294,18.253-28.53,33.816-46.229,46.776c-3.383,2.478-5.054,6.64-2.765,10.547
			C418.565,633.004,423.755,634.913,427.153,632.426L427.153,632.426z"/>
	</g>
	<g>
		<path fill="#FFFFFF" d="M1251.331,393.912c-11.327,50.986-18.604,102.93-27.769,154.333c-1.733,9.719,13.123,13.875,14.865,4.099
			c9.166-51.403,16.442-103.347,27.769-154.333C1268.349,388.324,1253.486,384.208,1251.331,393.912L1251.331,393.912z"/>
	</g>
	<g>
		<path fill="#FFFFFF" d="M1229.68,574.35c-6.7-0.789-13.009,4.563-16.42,9.779c-4.324,6.611-2.304,17.139,6.03,19.469
			c15.276,4.272,23.492-16.126,16.601-27.589c-5.115-8.507-18.448-0.762-13.313,7.781c0.869,1.445-0.527-1.732,0.059-0.005
			c0.137,0.403,0.408,2.222,0.163,0.212c0.075,0.618,0.071,1.244,0.069,1.865c-0.009,0.429-0.034,0.855-0.076,1.282
			c0.145-0.976,0.137-1.018-0.023-0.126c-0.123,0.632-0.32,1.245-0.519,1.855c0.542-1.666-0.057,0.039-0.256,0.396
			c-0.93,1.657,1.058-1.059-0.216,0.238c0.867-0.607,0.947-0.692,0.242-0.253c0.547-0.352,1.146-0.504,1.795-0.456
			c-1.405,0.171,0.352,0.073,0.805,0.346c0.726,0.436,1.291,1.003,1.541,1.845c0.116,0.392-0.227,2.845,0.15,1.342
			c0.276-0.805,0.255-0.759-0.064,0.139c0.207-0.383,0.436-0.753,0.684-1.11c-0.896,1.37,0.358-0.31,0.55-0.505
			c0.327-0.32,0.669-0.624,1.023-0.913c-0.659,0.522-0.63,0.538,0.087,0.049c1.733-1.097-1.391,0.372,0.436-0.26
			c1.232-0.426-1.388-0.205,0.652,0.035c4.183,0.492,7.708-3.879,7.708-7.708C1237.388,577.484,1233.852,574.84,1229.68,574.35
			L1229.68,574.35z"/>
	</g>
	<g>
		<path fill="#FFFFFF" d="M579.513,592.309c-8.458-11.027-20.633-17.813-33.969-10.482c-11.9,6.541-18.833,20.58-23.835,32.548
			c-7.459,17.849-20.511,61.632,8.384,67.102c24.854,4.704,38.347-19.083,45.213-39.049c6.588-19.158,8.23-39.195,12.474-58.859
			c-4.581-1.263-9.162-2.526-13.742-3.789c-3.128,19.042-7.77,37.773-11.496,56.699c-1.354,6.877-2.917,14.103-1.198,21.053
			c2.242,9.068,11.336,10.892,19.278,8.977c8.957-2.16,16.101-10.388,21.249-17.521c5.179-7.177,9.275-14.786,12.493-23.023
			c7.388-18.912,11.218-39.964,12.442-60.177c-4.798,0-9.597,0-14.396,0c-0.203,27.057-2.846,54.071-4.979,81.024
			c4.811,0,9.622,0,14.433,0c1.553-19.755,2.509-39.88,7.462-59.148c2.125-8.27,4.616-14.266,11.473-18.822
			c6.24-4.147,14.355-6.071,18.414,1.511c2.727,5.095,1.611,11.139,0.517,16.501c-1.36,6.666-2.313,13.337-3.306,19.951
			c-1.181,7.865-0.894,16.214,1.044,23.938c1.928,7.687,8.444,15.152,17.112,11.913c8.804-3.29,14-12.885,17.924-20.839
			c9.71-19.678,15.362-41.068,23.85-61.255c9.206-21.895,19.628-43.042,29.805-64.475c6.27-13.204,12.83-26.556,15.226-41.105
			c1.607-9.755,2.249-26.053-6.552-33.086c-15.087-12.057-27.881,14.378-30.95,25.505c-3.058,11.088-4.173,22.873-5.639,34.243
			c-2.202,17.077-3.983,34.209-5.682,51.343c-3.154,31.818-5.949,63.685-8.456,95.56c4.756,0,9.513,0,14.27,0
			c0.295-12.984,1.603-25.898,4.828-38.503c3.057-11.944,8.353-25.102,18.948-32.292c4.317-2.93,11.312-5.976,16.45-3.561
			c4.218,1.982,5.627,7.042,3.678,11.159c-6.586,13.91-29.167,11.053-41.565,13.837c-6.373,1.432-6.735,10.016-1.724,13.19
			c12.084,7.654,18.493,20.452,29.329,29.29c10.838,8.839,25.68,10.29,38.071,3.978c8.347-4.252,0.996-16.779-7.328-12.539
			c-10.416,5.306-19.912-0.289-26.8-8.153c-8.12-9.271-15.434-18.36-25.987-25.038c-0.575,4.396-1.149,8.794-1.724,13.19
			c18.055-4.064,41.187-1.488,50.642-21.486c3.859-8.162,2.841-18.116-3.193-24.97c-6.774-7.693-17.162-8.882-26.586-6.147
			c-34.978,10.149-40.64,57.643-41.308,88.044c-0.205,9.3,13.564,9.054,14.27,0c2.77-35.55,5.808-71.08,9.453-106.553
			c1.792-17.439,3.646-34.896,6.229-52.238c1.754-11.784,3.505-23.344,10.487-33.341c0.814-1.166,1.896-2.181,2.958-3.121
			c-0.813,0.719,0.884-0.44,0.923-0.461c-0.777,0.41-1.214,0.33-2.063,0.197c-1.467-0.229-0.852-1.07-0.227,0.423
			c1.22,2.914,1.791,6.249,1.954,9.38c0.754,14.484-5.91,28.599-11.937,41.366c-10.099,21.395-20.778,42.381-30.112,64.147
			c-8.857,20.653-15.121,42.35-24.375,62.817c-1.891,4.183-3.99,8.278-6.462,12.149c-1,1.565-1.806,2.524-3.029,3.83
			c-0.462,0.493-1.185,1.188-1.735,1.571c-1.166,0.813,0.012,0.3,1.101,0.45c0.349,0.048,1.924,1.519,0.803,0.44
			c1.043,1.004-0.17-0.401-0.342-0.72c0.597,1.107-0.394-1.173-0.393-1.168c-0.263-0.822-0.443-1.67-0.629-2.512
			c-0.768-3.477-0.756-7.346-0.659-11.063c0.181-6.891,1.657-15.179,3.458-23.417c2.259-10.334,2.583-20.557-3.152-29.862
			c-9.463-15.353-29.567-11.261-41.47-1.566c-11.647,9.487-14.638,25.039-16.94,39.139c-2.617,16.028-3.522,32.21-4.786,48.375
			c-0.726,9.287,13.708,9.214,14.433,0c2.121-26.954,4.751-53.968,4.941-81.024c0.066-9.35-13.843-9.19-14.396,0
			c-1.016,16.902-4.386,33.807-9.547,49.923c-4.103,12.813-11.478,28.529-23.279,35.901c-1.236,0.771-2.458,1.158-3.868,1.499
			c-0.439,0.105-2.021-0.043-1.016,0.4c0.931,0.411,0.304,0.239,0.309,0.254c-0.307-0.926-0.285-1.995-0.271-3.388
			c0.063-5.844,1.766-11.83,2.871-17.539c3.191-16.476,7.377-32.707,10.17-49.269c1.5-8.897-11.74-12.879-13.742-3.789
			c-5.836,26.502-6.228,56.96-22.977,79.622c-3.162,4.278-7.206,7.166-12.493,8.216c-1.176,0.233-5.025-0.058-7.158-0.59
			c-0.881-0.22-1.744-0.513-2.604-0.802c1.908,0.642,0.832,0.355,0.3,0.042c-1.25-0.735,1.291,1.139,0.207,0.145
			c-1.412-1.295,0.5,0.862-0.204-0.162c-0.255-0.371-0.466-0.771-0.677-1.169c-0.775-1.456,0.572,1.558-0.038-0.05
			c-0.378-0.997-0.631-2.04-0.859-3.08c-0.124-0.567-0.213-1.142-0.304-1.714c0.286,1.813,0.004-0.257-0.021-0.532
			c-0.139-1.558-0.16-3.124-0.15-4.686c0.039-6.758,0.968-11.715,2.595-18.493c1.703-7.095,4.139-14.251,7.043-20.531
			c2.984-6.454,6.815-12.657,10.254-16.535c0.905-1.02,1.88-1.972,2.886-2.891c1.123-1.024,0.595-0.657,2.538-1.872
			c0.49-0.307,1.049-0.557,1.565-0.82c1.713-0.874-1.419,0.502,0.35-0.144c0.52-0.188,1.056-0.325,1.591-0.46
			c2.062-0.52-0.51-0.031,0.743-0.105c0.542-0.032,1.086,0,1.627,0.032c-1.924-0.115-0.199-0.006,0.245,0.094
			c0.563,0.125,1.107,0.317,1.65,0.508c-1.669-0.585,0.681,0.399,1.019,0.592c1.843,1.05,3.919,2.972,5.703,5.307
			c2.417,3.164,6.252,4.831,10.016,2.626C580.006,600.498,581.948,595.484,579.513,592.309L579.513,592.309z"/>
	</g>
	<g>
		<path fill="#FFFFFF" d="M1005.383,427.296c-17.075,12.682-25.309,36.112-31.827,55.5c-7.148,21.261-11.255,43.093-14.18,65.277
			c-3.163,23.985-5.368,48.088-8.451,72.085c-2.642,20.558-5.301,42.486-21.977,56.911c-10.317,8.925-22.5,15.075-36.292,16.114
			c-12.802,0.966-25.435-0.883-34.235-10.932c-8.667-9.896-7.542-26.958-2.124-38.094c5.488-11.279,17.144-16.757,29.349-16.293
			c9.776,0.371,9.808-15.11,0-15.191c-22.45-0.186-40.779,12.711-46.768,34.647c-6.071,22.239,2.03,47.571,24.166,57.126
			c20.479,8.84,46.231,3.901,64.68-7.469c19.891-12.257,31.144-32.576,35.011-55.133c6.134-35.768,7.959-72.138,13.569-107.98
			c2.833-18.101,8.114-35.309,13.557-52.747c2.716-8.7,6.719-17.242,11.073-25.228c3.035-5.568,7.098-12.211,11.928-15.8
			c3.234-2.404,4.868-6.362,2.657-10.136C1013.646,426.757,1008.633,424.883,1005.383,427.296L1005.383,427.296z"/>
	</g>
	<g>
		<path fill="#FFFFFF" d="M1024.668,491.36c-11.301,5.353-20.202,14.201-27.393,24.295c-6.846,9.609-10.002,20.007-11.227,31.602
			c-1.1,10.408-0.281,21.901,6.242,30.524c6.169,8.153,16.153,13.094,26.416,12.518c18.283-1.026,32.006-17.518,38.928-33.056
			c7.373-16.55,10.074-37.93-0.839-53.628c-2.268-3.261-4.946-6.29-9.003-7.14c-5.48-1.148-9.498,2.473-9.996,7.752
			c-0.862,9.134,14.462,13.142,20.956,13.845c7.637,0.826,13.289-1.608,19.6-3.77c5.18-1.774,10.43-3.365,15.684-4.906
			c-2.787-2.787-5.574-5.574-8.361-8.361c-4.923,16.831-15.701,32.543-16.822,50.353c-0.88,13.974,4.129,31.835,18.862,36.536
			c13.155,4.196,25.444-6.472,31.529-17.014c4.649-8.055,6.807-17.508,9.38-26.363c3.197-11,6.131-22.077,8.874-33.199
			c2.099-8.51-11-12.118-13.105-3.613c-4.799,19.39-10.982,39.338-10.861,59.491c0.051,8.377,1.805,17.851,9.115,22.967
			c8.359,5.851,19.34,1.76,27.466-2.298c7.844-3.917,0.957-15.643-6.861-11.738c-3.04,1.519-7.395,3.146-9.815,3.321
			c-2.226,0.161-1.188,0.238-3.133-0.408c0.412,0.137,0.063,0.141-1.012-1.04c0.661,0.727-0.917-1.922-0.815-1.645
			c-0.555-1.509-0.862-3.104-1.12-4.685c-0.355-2.183-0.249-7.336-0.042-10.61c1.071-16.891,6.218-33.378,10.185-49.742
			c-4.368-1.205-8.737-2.409-13.105-3.613c-4.178,17.289-8.402,34.921-14.548,51.634c-1.911,5.197-5.151,9.713-9.38,13.257
			c-1.227,1.028-3.172,1.815-4.2,2.115c-1.997,0.581-3.05,0.617-4.278,0.353c-2.721-0.585-5.495-3.18-7.032-6.842
			c-2.376-5.658-3.293-13.096-2.333-19.14c2.463-15.508,11.781-29.483,16.163-44.462c1.443-4.936-3.423-9.81-8.361-8.361
			c-6.223,1.825-12.439,3.717-18.544,5.907c-3.265,1.171-5.736,2.471-9.249,2.542c-3.063,0.062-10.711-0.631-12.167-3.94
			c0.229,1.746,0.457,3.492,0.686,5.238c-6.646,0.527-8.753,1.958-6.321,4.292c0.479,0.559,0.86,1.231,1.258,1.847
			c0.746,1.155,1.444,2.419,1.96,3.694c1.165,2.883,1.885,5.997,2.173,9.088c0.692,7.434-0.726,14.758-3.08,21.782
			c-4.031,12.027-12.973,25.741-25.851,29.364c-6.402,1.802-12.885-0.808-17.478-5.696c-5.516-5.873-4.763-15.819-4.091-23.149
			c1.717-18.713,14.913-36.144,31.846-44.099C1039.527,499.417,1032.592,487.607,1024.668,491.36L1024.668,491.36z"/>
	</g>
	<g>
		<path fill="#FFFFFF" d="M889.271,448.321c0.769-7.046,3.875-19.584,12.63-20.309c9.529-0.789,13.548,6.643,15.908,14.308
			c0.755,2.448,0.443,0.955,0.582,3.562c0.083,1.564,0.028,3.135-0.053,4.698c-0.196,3.78-0.715,6.443-1.537,10.39
			c-1.813,8.699-4.502,17.213-7.211,25.666c-5.738,17.907-12.426,35.733-15.57,54.338c-2.527,14.955-2.889,32.65,9.106,43.858
			c8.678,8.108,21.931,11.737,33.528,9.808c13.909-2.314,24.35-11.914,32.575-22.764c2.474-3.263,0.519-8.372-2.688-10.251
			c-3.848-2.254-7.781-0.554-10.251,2.688c-6.925,9.092-16.544,16.397-28.411,15.696c-4.897-0.289-9.874-2.776-13.804-5.564
			c-1.51-1.071-3.023-3.146-4.41-5.946c-0.48-0.971-1.645-5.606-1.79-6.896c-0.439-3.893-0.278-7.845,0.06-11.738
			c0.726-8.362,2.997-16.819,5.282-24.961c5.103-18.183,11.999-35.826,16.69-54.128c4.197-16.373,6.218-34.464-5.418-48.452
			c-7.234-8.697-22.063-11.774-32.104-6.909c-12.402,6.01-16.809,20.209-18.193,32.907c-0.447,4.094,3.767,7.54,7.539,7.54
			C886.179,455.86,888.825,452.405,889.271,448.321L889.271,448.321z"/>
	</g>
</g>
</svg>
