<?xml version="1.0" encoding="UTF-8" standalone="no"?>
<!-- Generator: Adobe Illustrator 26.1.0, SVG Export Plug-In . SVG Version: 6.00 Build 0)  -->

<svg
   version="1.1"
   x="0px"
   y="0px"
   viewBox="0 0 410.9 386.3"
   style="enable-background:new 0 0 410.9 386.3;"
   xml:space="preserve"
   id="svg64"
   sodipodi:docname="cdmft ed.svg"
   inkscape:version="1.4.2 (ebf0e940d0, 2025-05-08)"
   xmlns:inkscape="http://www.inkscape.org/namespaces/inkscape"
   xmlns:sodipodi="http://sodipodi.sourceforge.net/DTD/sodipodi-0.dtd"
   xmlns="http://www.w3.org/2000/svg"
   xmlns:svg="http://www.w3.org/2000/svg"><defs
   id="defs64" /><sodipodi:namedview
   id="namedview64"
   pagecolor="#ffffff"
   bordercolor="#000000"
   borderopacity="0.25"
   inkscape:showpageshadow="2"
   inkscape:pageopacity="0.0"
   inkscape:pagecheckerboard="0"
   inkscape:deskcolor="#d1d1d1"
   inkscape:zoom="1.752524"
   inkscape:cx="205.70332"
   inkscape:cy="193.14999"
   inkscape:window-width="1500"
   inkscape:window-height="928"
   inkscape:window-x="0"
   inkscape:window-y="0"
   inkscape:window-maximized="1"
   inkscape:current-layer="svg64" />
<style
   type="text/css"
   id="style1">
	.st0{fill:#FECD4D;}
	.st1{fill:#CC9C32;}
	.st2{fill:none;stroke:#000000;stroke-miterlimit:10;}
	.st3{fill:none;stroke:#000000;stroke-width:0.5;stroke-miterlimit:10;}
	.st4{fill:#EA4C8E;}
	.st5{fill:#A03263;}
	.st6{fill:#FECD4F;}
	.st7{fill:none;stroke:#000000;stroke-width:0.75;stroke-linecap:round;stroke-miterlimit:10;}
	.st8{fill:none;stroke:#000000;stroke-width:0.75;stroke-linecap:round;stroke-miterlimit:10;stroke-dasharray:2.0002,2.0002;}
	.st9{fill:none;stroke:#000000;stroke-width:0.75;stroke-linecap:round;stroke-miterlimit:10;stroke-dasharray:2.0079,2.0079;}
	.st10{fill:none;stroke:#000000;stroke-width:0.75;stroke-linecap:round;stroke-miterlimit:10;stroke-dasharray:2.008,2.008;}
	.st11{fill:none;stroke:#000000;stroke-width:0.75;stroke-linecap:round;stroke-miterlimit:10;stroke-dasharray:2.0001,2.0001;}
</style>
<g
   id="Livello_1">
	<g
   id="Livello_3">
	</g>
	<g
   id="g4">
		<ellipse
   cx="210.5"
   cy="47.9"
   rx="20"
   ry="9.5"
   id="ellipse1" />
		<path
   class="st0"
   d="M221.5,37.4c0,9.4-7.6,17-17,17c-7.1,0-11.9-4.8-12.4-5.4c-0.7-0.7-4.7-5.2-4.6-11.6c0.2-7.9,6.8-17,17-17    C213.9,20.4,221.5,28,221.5,37.4z"
   id="path1" />
		<g
   id="g2">
			<path
   class="st1"
   d="M219.5,29.4c0.1,1.3,0,2.3,0,3c0,0.3-0.1,1-0.5,3.4c-0.3,1.5-0.4,2.2-0.5,2.6c-0.1,0.6-0.7,2.6-2,5     c-0.7,1.2-1.5,2.6-3,4c-1.9,1.8-3.9,2.6-5,3c-1.7,0.7-3.2,0.9-4,1c-1.7,0.2-3.1,0.1-4,0c-1.5-0.2-2.5-0.5-4-1c-1.3-0.4-3-1.1-5-2     c1,1.2,2.6,2.7,5,4c2.9,1.6,5.5,1.9,6,2c0.7,0.1,2.2,0.2,4,0c1.8-0.2,3.1-0.7,4-1c0.3-0.1,1-0.4,1.9-0.9c0.9-0.5,1.9-1.2,3.1-2.1     c1.1-0.9,1.8-1.7,2-2c0.3-0.3,1.2-1.4,2-3c0.6-1.1,2.2-4.2,2-8l0-1.1l-0.2-1.5l-0.2-0.9l-0.3-1.1l-0.1-0.4l-0.1-0.2l-0.3-0.7     l-0.2-0.6l-0.2-0.4l-0.1-0.3l-0.1-0.2"
   id="path2" />
		</g>
		<path
   class="st2"
   d="M195.7,49"
   id="path3" />
		<path
   class="st3"
   d="M180.5,39.4"
   id="path4" />
	</g>
	<g
   id="g8">
		<ellipse
   cx="288"
   cy="47.9"
   rx="20"
   ry="9.5"
   id="ellipse4" />
		<path
   class="st0"
   d="M299,37.4c0,9.4-7.6,17-17,17c-7.1,0-11.9-4.8-12.4-5.4c-0.7-0.7-4.7-5.2-4.6-11.6c0.2-7.9,6.8-17,17-17    C291.4,20.4,299,28,299,37.4z"
   id="path5" />
		<g
   id="g6">
			<path
   class="st1"
   d="M297,29.4c0.1,1.3,0,2.3,0,3c0,0.3-0.1,1-0.5,3.4c-0.3,1.5-0.4,2.2-0.5,2.6c-0.1,0.6-0.7,2.6-2,5     c-0.7,1.2-1.5,2.6-3,4c-1.9,1.8-3.9,2.6-5,3c-1.7,0.7-3.2,0.9-4,1c-1.7,0.2-3.1,0.1-4,0c-1.5-0.2-2.5-0.5-4-1c-1.3-0.4-3-1.1-5-2     c1,1.2,2.6,2.7,5,4c2.9,1.6,5.5,1.9,6,2c0.7,0.1,2.2,0.2,4,0c1.8-0.2,3.1-0.7,4-1c0.3-0.1,1-0.4,1.9-0.9c0.9-0.5,1.9-1.2,3.1-2.1     c1.1-0.9,1.8-1.7,2-2c0.3-0.3,1.2-1.4,2-3c0.6-1.1,2.2-4.2,2-8l0-1.1l-0.2-1.5l-0.2-0.9l-0.3-1.1l-0.1-0.4l-0.1-0.2l-0.3-0.7     l-0.2-0.6l-0.2-0.4l-0.1-0.3l-0.1-0.2"
   id="path6" />
		</g>
		<path
   class="st2"
   d="M273.2,49"
   id="path7" />
		<path
   class="st3"
   d="M258,39.4"
   id="path8" />
	</g>
	<g
   id="g12">
		<ellipse
   cx="210.5"
   cy="125"
   rx="20"
   ry="9.5"
   id="ellipse8" />
		<path
   class="st0"
   d="M221.5,114.5c0,9.4-7.6,17-17,17c-7.1,0-11.9-4.8-12.4-5.4c-0.7-0.7-4.7-5.2-4.6-11.6c0.2-7.9,6.8-17,17-17    C213.9,97.5,221.5,105.1,221.5,114.5z"
   id="path9" />
		<g
   id="g10">
			<path
   class="st1"
   d="M219.5,106.5c0.1,1.3,0,2.3,0,3c0,0.3-0.1,1-0.5,3.4c-0.3,1.5-0.4,2.2-0.5,2.6c-0.1,0.6-0.7,2.6-2,5     c-0.7,1.2-1.5,2.6-3,4c-1.9,1.8-3.9,2.6-5,3c-1.7,0.7-3.2,0.9-4,1c-1.7,0.2-3.1,0.1-4,0c-1.5-0.2-2.5-0.5-4-1c-1.3-0.4-3-1.1-5-2     c1,1.2,2.6,2.7,5,4c2.9,1.6,5.5,1.9,6,2c0.7,0.1,2.2,0.2,4,0c1.8-0.2,3.1-0.7,4-1c0.3-0.1,1-0.4,1.9-0.9c0.9-0.5,1.9-1.2,3.1-2.1     c1.1-0.9,1.8-1.7,2-2c0.3-0.3,1.2-1.4,2-3c0.6-1.1,2.2-4.2,2-8l0-1.1l-0.2-1.5l-0.2-0.9l-0.3-1.1l-0.1-0.4l-0.1-0.2l-0.3-0.7     l-0.2-0.6l-0.2-0.4l-0.1-0.3l-0.1-0.2"
   id="path10" />
		</g>
		<path
   class="st2"
   d="M195.7,126.1"
   id="path11" />
		<path
   class="st3"
   d="M180.5,116.5"
   id="path12" />
	</g>
	<g
   id="g16">
		<ellipse
   cx="288"
   cy="125"
   rx="20"
   ry="9.5"
   id="ellipse12" />
		<path
   class="st0"
   d="M299,114.5c0,9.4-7.6,17-17,17c-7.1,0-11.9-4.8-12.4-5.4c-0.7-0.7-4.7-5.2-4.6-11.6c0.2-7.9,6.8-17,17-17    C291.4,97.5,299,105.1,299,114.5z"
   id="path13" />
		<g
   id="g14">
			<path
   class="st1"
   d="M297,106.5c0.1,1.3,0,2.3,0,3c0,0.3-0.1,1-0.5,3.4c-0.3,1.5-0.4,2.2-0.5,2.6c-0.1,0.6-0.7,2.6-2,5     c-0.7,1.2-1.5,2.6-3,4c-1.9,1.8-3.9,2.6-5,3c-1.7,0.7-3.2,0.9-4,1c-1.7,0.2-3.1,0.1-4,0c-1.5-0.2-2.5-0.5-4-1c-1.3-0.4-3-1.1-5-2     c1,1.2,2.6,2.7,5,4c2.9,1.6,5.5,1.9,6,2c0.7,0.1,2.2,0.2,4,0c1.8-0.2,3.1-0.7,4-1c0.3-0.1,1-0.4,1.9-0.9c0.9-0.5,1.9-1.2,3.1-2.1     c1.1-0.9,1.8-1.7,2-2c0.3-0.3,1.2-1.4,2-3c0.6-1.1,2.2-4.2,2-8l0-1.1l-0.2-1.5l-0.2-0.9l-0.3-1.1l-0.1-0.4l-0.1-0.2l-0.3-0.7     l-0.2-0.6l-0.2-0.4l-0.1-0.3l-0.1-0.2"
   id="path14" />
		</g>
		<path
   class="st2"
   d="M273.2,126.1"
   id="path15" />
		<path
   class="st3"
   d="M258,116.5"
   id="path16" />
	</g>
	<g
   id="g20">
		<ellipse
   cx="55.5"
   cy="202.1"
   rx="20"
   ry="9.5"
   id="ellipse16" />
		<path
   class="st0"
   d="M66.5,191.6c0,9.4-7.6,17-17,17c-7.1,0-11.9-4.8-12.4-5.4c-0.7-0.7-4.7-5.2-4.6-11.6c0.2-7.9,6.8-17,17-17    C58.9,174.6,66.5,182.2,66.5,191.6z"
   id="path17" />
		<g
   id="g18">
			<path
   class="st1"
   d="M64.5,183.6c0.1,1.3,0,2.3,0,3c0,0.3-0.1,1-0.5,3.4c-0.3,1.5-0.4,2.2-0.5,2.6c-0.1,0.6-0.7,2.6-2,5     c-0.7,1.2-1.5,2.6-3,4c-1.9,1.8-3.9,2.6-5,3c-1.7,0.7-3.2,0.9-4,1c-1.7,0.2-3.1,0.1-4,0c-1.5-0.2-2.5-0.5-4-1c-1.3-0.4-3-1.1-5-2     c1,1.2,2.6,2.7,5,4c2.9,1.6,5.5,1.9,6,2c0.7,0.1,2.2,0.2,4,0c1.8-0.2,3.1-0.7,4-1c0.3-0.1,1-0.4,1.9-0.9c0.9-0.5,1.9-1.2,3.1-2.1     c1.1-0.9,1.8-1.7,2-2c0.3-0.3,1.2-1.4,2-3c0.6-1.1,2.2-4.2,2-8l0-1.1l-0.2-1.5l-0.2-0.9l-0.3-1.1l-0.1-0.4l-0.1-0.2l-0.3-0.7     l-0.2-0.6l-0.2-0.4l-0.1-0.3l-0.1-0.2"
   id="path18" />
		</g>
		<path
   class="st2"
   d="M40.7,203.3"
   id="path19" />
		<path
   class="st3"
   d="M25.5,193.6"
   id="path20" />
	</g>
	<g
   id="g24">
		<ellipse
   cx="133"
   cy="202.1"
   rx="20"
   ry="9.5"
   id="ellipse20" />
		<path
   class="st0"
   d="M144,191.6c0,9.4-7.6,17-17,17c-7.1,0-11.9-4.8-12.4-5.4c-0.7-0.7-4.7-5.2-4.6-11.6c0.2-7.9,6.8-17,17-17    C136.4,174.6,144,182.2,144,191.6z"
   id="path21" />
		<g
   id="g22">
			<path
   class="st1"
   d="M142,183.6c0.1,1.3,0,2.3,0,3c0,0.3-0.1,1-0.5,3.4c-0.3,1.5-0.4,2.2-0.5,2.6c-0.1,0.6-0.7,2.6-2,5     c-0.7,1.2-1.5,2.6-3,4c-1.9,1.8-3.9,2.6-5,3c-1.7,0.7-3.2,0.9-4,1c-1.7,0.2-3.1,0.1-4,0c-1.5-0.2-2.5-0.5-4-1c-1.3-0.4-3-1.1-5-2     c1,1.2,2.6,2.7,5,4c2.9,1.6,5.5,1.9,6,2c0.7,0.1,2.2,0.2,4,0c1.8-0.2,3.1-0.7,4-1c0.3-0.1,1-0.4,1.9-0.9c0.9-0.5,1.9-1.2,3.1-2.1     c1.1-0.9,1.8-1.7,2-2c0.3-0.3,1.2-1.4,2-3c0.6-1.1,2.2-4.2,2-8l0-1.1l-0.2-1.5l-0.2-0.9l-0.3-1.1l-0.1-0.4l-0.1-0.2l-0.3-0.7     l-0.2-0.6l-0.2-0.4l-0.1-0.3l-0.1-0.2"
   id="path22" />
		</g>
		<path
   class="st2"
   d="M118.2,203.3"
   id="path23" />
		<path
   class="st3"
   d="M103,193.6"
   id="path24" />
	</g>
	<g
   id="g28">
		<ellipse
   cx="288"
   cy="279.3"
   rx="20"
   ry="9.5"
   id="ellipse24" />
		<path
   class="st4"
   d="M299,268.8c0,9.4-7.6,17-17,17c-7.1,0-11.9-4.8-12.4-5.4c-0.7-0.7-4.7-5.2-4.6-11.6c0.2-7.9,6.8-17,17-17    C291.3,251.8,299,259.4,299,268.8z"
   id="path25"
   style="fill:#f43f5e;fill-opacity:1" />
		<g
   id="g26">
			<path
   class="st5"
   d="M297,260.8c0.1,1.3,0,2.3,0,3c0,0.3-0.1,1-0.5,3.4c-0.3,1.5-0.4,2.2-0.5,2.6c-0.1,0.6-0.7,2.6-2,5     c-0.7,1.2-1.5,2.6-3,4c-1.9,1.8-3.9,2.6-5,3c-1.7,0.7-3.2,0.9-4,1c-1.7,0.2-3.1,0.1-4,0c-1.5-0.2-2.5-0.5-4-1c-1.3-0.4-3-1.1-5-2     c1,1.2,2.6,2.7,5,4c2.9,1.6,5.5,1.9,6,2c0.7,0.1,2.2,0.2,4,0c1.8-0.2,3.1-0.7,4-1c0.3-0.1,1-0.4,1.9-0.9c0.9-0.5,1.9-1.2,3.1-2.1     c1.1-0.9,1.8-1.7,2-2c0.3-0.3,1.2-1.4,2-3c0.6-1.1,2.2-4.2,2-8l0-1.1l-0.2-1.5l-0.2-0.9l-0.3-1.1l-0.1-0.4l-0.1-0.2l-0.3-0.7     l-0.2-0.6l-0.2-0.4l-0.1-0.3l-0.1-0.2"
   id="path26" />
		</g>
		<path
   class="st2"
   d="M273.2,280.4"
   id="path27" />
		<path
   class="st3"
   d="M258,270.8"
   id="path28" />
	</g>
	<g
   id="g32">
		<ellipse
   cx="55.4"
   cy="279.3"
   rx="20"
   ry="9.5"
   id="ellipse28" />
		<path
   class="st0"
   d="M66.4,268.8c0,9.4-7.6,17-17,17c-7.1,0-11.9-4.8-12.4-5.4c-0.7-0.7-4.7-5.2-4.6-11.6c0.2-7.9,6.8-17,17-17    C58.8,251.8,66.4,259.4,66.4,268.8z"
   id="path29" />
		<g
   id="g30">
			<path
   class="st1"
   d="M64.4,260.8c0.1,1.3,0,2.3,0,3c0,0.3-0.1,1-0.5,3.4c-0.3,1.5-0.4,2.2-0.5,2.6c-0.1,0.6-0.7,2.6-2,5     c-0.7,1.2-1.5,2.6-3,4c-1.9,1.8-3.9,2.6-5,3c-1.7,0.7-3.2,0.9-4,1c-1.7,0.2-3.1,0.1-4,0c-1.5-0.2-2.5-0.5-4-1c-1.3-0.4-3-1.1-5-2     c1,1.2,2.6,2.7,5,4c2.9,1.6,5.5,1.9,6,2c0.7,0.1,2.2,0.2,4,0c1.8-0.2,3.1-0.7,4-1c0.3-0.1,1-0.4,1.9-0.9c0.9-0.5,1.9-1.2,3.1-2.1     c1.1-0.9,1.8-1.7,2-2c0.3-0.3,1.2-1.4,2-3c0.6-1.1,2.2-4.2,2-8l0-1.1l-0.2-1.5l-0.2-0.9l-0.3-1.1l-0.1-0.4l-0.1-0.2l-0.3-0.7     l-0.2-0.6l-0.2-0.4l-0.1-0.3l-0.1-0.2"
   id="path30" />
		</g>
		<path
   class="st2"
   d="M40.7,280.4"
   id="path31" />
		<path
   class="st3"
   d="M25.4,270.8"
   id="path32" />
	</g>
	<g
   id="g36">
		<ellipse
   cx="132.9"
   cy="279.3"
   rx="20"
   ry="9.5"
   id="ellipse32" />
		<path
   class="st6"
   d="M143.9,268.8c0,9.4-7.6,17-17,17c-7.1,0-11.9-4.8-12.4-5.4c-0.7-0.7-4.7-5.2-4.6-11.6c0.2-7.9,6.8-17,17-17    C136.3,251.8,143.9,259.4,143.9,268.8z"
   id="path33" />
		<g
   id="g34">
			<path
   class="st1"
   d="M141.9,260.8c0.1,1.3,0,2.3,0,3c0,0.3-0.1,1-0.5,3.4c-0.3,1.5-0.4,2.2-0.5,2.6c-0.1,0.6-0.7,2.6-2,5     c-0.7,1.2-1.5,2.6-3,4c-1.9,1.8-3.9,2.6-5,3c-1.7,0.7-3.2,0.9-4,1c-1.7,0.2-3.1,0.1-4,0c-1.5-0.2-2.5-0.5-4-1c-1.3-0.4-3-1.1-5-2     c1,1.2,2.6,2.7,5,4c2.9,1.6,5.5,1.9,6,2c0.7,0.1,2.2,0.2,4,0c1.8-0.2,3.1-0.7,4-1c0.3-0.1,1-0.4,1.9-0.9c0.9-0.5,1.9-1.2,3.1-2.1     c1.1-0.9,1.8-1.7,2-2c0.3-0.3,1.2-1.4,2-3c0.6-1.1,2.2-4.2,2-8l0-1.1l-0.2-1.5l-0.2-0.9l-0.3-1.1l-0.1-0.4l-0.1-0.2l-0.3-0.7     l-0.2-0.6l-0.2-0.4l-0.1-0.3l-0.1-0.2"
   id="path34" />
		</g>
		<path
   class="st2"
   d="M118.2,280.4"
   id="path35" />
		<path
   class="st3"
   d="M102.9,270.8"
   id="path36" />
	</g>
	<g
   id="g40">
		<ellipse
   cx="365.5"
   cy="279.3"
   rx="20"
   ry="9.5"
   id="ellipse36" />
		<path
   class="st4"
   d="M376.5,268.8c0,9.4-7.6,17-17,17c-7.1,0-11.9-4.8-12.4-5.4c-0.7-0.7-4.7-5.2-4.6-11.6c0.2-7.9,6.8-17,17-17    C368.9,251.8,376.5,259.4,376.5,268.8z"
   id="path37"
   style="fill:#f43f5e;fill-opacity:1" />
		<g
   id="g38">
			<path
   class="st5"
   d="M374.5,260.8c0.1,1.3,0,2.3,0,3c0,0.3-0.1,1-0.5,3.4c-0.3,1.5-0.4,2.2-0.5,2.6c-0.1,0.6-0.7,2.6-2,5     c-0.7,1.2-1.5,2.6-3,4c-1.9,1.8-3.9,2.6-5,3c-1.7,0.7-3.2,0.9-4,1c-1.7,0.2-3.1,0.1-4,0c-1.5-0.2-2.5-0.5-4-1c-1.3-0.4-3-1.1-5-2     c1,1.2,2.6,2.7,5,4c2.9,1.6,5.5,1.9,6,2c0.7,0.1,2.2,0.2,4,0c1.8-0.2,3.1-0.7,4-1c0.3-0.1,1-0.4,1.9-0.9c0.9-0.5,1.9-1.2,3.1-2.1     c1.1-0.9,1.8-1.7,2-2c0.3-0.3,1.2-1.4,2-3c0.6-1.1,2.2-4.2,2-8l0-1.1l-0.2-1.5l-0.2-0.9l-0.3-1.1l-0.1-0.4l-0.1-0.2l-0.3-0.7     l-0.2-0.6l-0.2-0.4l-0.1-0.3l-0.1-0.2"
   id="path38" />
		</g>
		<path
   class="st2"
   d="M350.7,280.4"
   id="path39" />
		<path
   class="st3"
   d="M335.5,270.8"
   id="path40" />
	</g>
	<g
   id="g44">
		<ellipse
   cx="288"
   cy="356.4"
   rx="20"
   ry="9.5"
   id="ellipse40" />
		<path
   class="st4"
   d="M299,345.9c0,9.4-7.6,17-17,17c-7.1,0-11.9-4.8-12.4-5.4c-0.7-0.7-4.7-5.2-4.6-11.6c0.2-7.9,6.8-17,17-17    C291.3,328.9,299,336.5,299,345.9z"
   id="path41"
   style="fill:#f43f5e;fill-opacity:1" />
		<g
   id="g42">
			<path
   class="st5"
   d="M297,337.9c0.1,1.3,0,2.3,0,3c0,0.3-0.1,1-0.5,3.4c-0.3,1.5-0.4,2.2-0.5,2.6c-0.1,0.6-0.7,2.6-2,5     c-0.7,1.2-1.5,2.6-3,4c-1.9,1.8-3.9,2.6-5,3c-1.7,0.7-3.2,0.9-4,1c-1.7,0.2-3.1,0.1-4,0c-1.5-0.2-2.5-0.5-4-1c-1.3-0.4-3-1.1-5-2     c1,1.2,2.6,2.7,5,4c2.9,1.6,5.5,1.9,6,2c0.7,0.1,2.2,0.2,4,0c1.8-0.2,3.1-0.7,4-1c0.3-0.1,1-0.4,1.9-0.9c0.9-0.5,1.9-1.2,3.1-2.1     c1.1-0.9,1.8-1.7,2-2c0.3-0.3,1.2-1.4,2-3c0.6-1.1,2.2-4.2,2-8l0-1.1l-0.2-1.5l-0.2-0.9l-0.3-1.1l-0.1-0.4l-0.1-0.2l-0.3-0.7     l-0.2-0.6l-0.2-0.4l-0.1-0.3l-0.1-0.2"
   id="path42" />
		</g>
		<path
   class="st2"
   d="M273.2,357.5"
   id="path43" />
		<path
   class="st3"
   d="M258,347.9"
   id="path44" />
	</g>
	<g
   id="g48">
		<ellipse
   cx="365.5"
   cy="356.4"
   rx="20"
   ry="9.5"
   id="ellipse44" />
		<path
   class="st4"
   d="M376.5,345.9c0,9.4-7.6,17-17,17c-7.1,0-11.9-4.8-12.4-5.4c-0.7-0.7-4.7-5.2-4.6-11.6c0.2-7.9,6.8-17,17-17    C368.9,328.9,376.5,336.5,376.5,345.9z"
   id="path45"
   style="fill:#f43f5e;fill-opacity:1" />
		<g
   id="g46">
			<path
   class="st5"
   d="M374.5,337.9c0.1,1.3,0,2.3,0,3c0,0.3-0.1,1-0.5,3.4c-0.3,1.5-0.4,2.2-0.5,2.6c-0.1,0.6-0.7,2.6-2,5     c-0.7,1.2-1.5,2.6-3,4c-1.9,1.8-3.9,2.6-5,3c-1.7,0.7-3.2,0.9-4,1c-1.7,0.2-3.1,0.1-4,0c-1.5-0.2-2.5-0.5-4-1c-1.3-0.4-3-1.1-5-2     c1,1.2,2.6,2.7,5,4c2.9,1.6,5.5,1.9,6,2c0.7,0.1,2.2,0.2,4,0c1.8-0.2,3.1-0.7,4-1c0.3-0.1,1-0.4,1.9-0.9c0.9-0.5,1.9-1.2,3.1-2.1     c1.1-0.9,1.8-1.7,2-2c0.3-0.3,1.2-1.4,2-3c0.6-1.1,2.2-4.2,2-8l0-1.1l-0.2-1.5l-0.2-0.9l-0.3-1.1l-0.1-0.4l-0.1-0.2l-0.3-0.7     l-0.2-0.6L375,339l-0.1-0.3l-0.1-0.2"
   id="path46" />
		</g>
		<path
   class="st2"
   d="M350.7,357.5"
   id="path47" />
		<path
   class="st3"
   d="M335.5,347.9"
   id="path48" />
	</g>
</g>
<g
   id="Livello_2">
	<g
   id="g52">
		<g
   id="g51">
			<line
   class="st7"
   x1="204.5"
   y1="37.4"
   x2="204.8"
   y2="38.3"
   id="line48" />
			<line
   class="st8"
   x1="205.4"
   y1="40.2"
   x2="281.3"
   y2="266.9"
   id="line49" />
			<polyline
   class="st7"
   points="281.6,267.8 282,268.8 281,268.5    "
   id="polyline49" />
			<line
   class="st9"
   x1="279.1"
   y1="267.8"
   x2="51.4"
   y2="192.3"
   id="line50" />
			<line
   class="st7"
   x1="50.4"
   y1="192"
   x2="49.5"
   y2="191.6"
   id="line51" />
		</g>
	</g>
	<g
   id="g56">
		<g
   id="g55">
			<line
   class="st7"
   x1="282"
   y1="37.4"
   x2="282.3"
   y2="38.3"
   id="line52" />
			<line
   class="st8"
   x1="282.9"
   y1="40.2"
   x2="358.8"
   y2="266.9"
   id="line53" />
			<polyline
   class="st7"
   points="359.1,267.8 359.5,268.8 358.5,268.5    "
   id="polyline53" />
			<line
   class="st9"
   x1="356.6"
   y1="267.8"
   x2="128.9"
   y2="192.3"
   id="line54" />
			<line
   class="st7"
   x1="127.9"
   y1="192"
   x2="127"
   y2="191.6"
   id="line55" />
		</g>
	</g>
	<g
   id="g60">
		<g
   id="g59">
			<line
   class="st7"
   x1="282"
   y1="114.5"
   x2="282.3"
   y2="115.5"
   id="line56" />
			<line
   class="st8"
   x1="282.9"
   y1="117.4"
   x2="358.8"
   y2="344"
   id="line57" />
			<polyline
   class="st7"
   points="359.1,344.9 359.5,345.9 358.5,345.6    "
   id="polyline57" />
			<line
   class="st10"
   x1="356.6"
   y1="345"
   x2="128.8"
   y2="269.4"
   id="line58" />
			<line
   class="st7"
   x1="127.9"
   y1="269.1"
   x2="126.9"
   y2="268.8"
   id="line59" />
		</g>
	</g>
	<g
   id="g64">
		<g
   id="g63">
			<line
   class="st7"
   x1="49.4"
   y1="268.8"
   x2="50.4"
   y2="269.1"
   id="line60" />
			<line
   class="st10"
   x1="52.3"
   y1="269.7"
   x2="280"
   y2="345.3"
   id="line61" />
			<polyline
   class="st7"
   points="281,345.6 282,345.9 281.6,344.9    "
   id="polyline61" />
			<line
   class="st11"
   x1="281"
   y1="343.1"
   x2="205.1"
   y2="116.4"
   id="line62" />
			<line
   class="st7"
   x1="204.8"
   y1="115.5"
   x2="204.5"
   y2="114.5"
   id="line63" />
		</g>
	</g>
</g>
</svg>
