<?xml version="1.0" encoding="UTF-8" standalone="no"?>
<!-- Generator: Adobe Illustrator 26.1.0, SVG Export Plug-In . SVG Version: 6.00 Build 0)  -->

<svg
   version="1.1"
   id="Livello_1"
   x="0px"
   y="0px"
   viewBox="0 0 410 386"
   style="enable-background:new 0 0 410 386;"
   xml:space="preserve"
   sodipodi:docname="cdmft bagno.svg"
   inkscape:version="1.4.2 (ebf0e940d0, 2025-05-08)"
   xmlns:inkscape="http://www.inkscape.org/namespaces/inkscape"
   xmlns:sodipodi="http://sodipodi.sourceforge.net/DTD/sodipodi-0.dtd"
   xmlns="http://www.w3.org/2000/svg"
   xmlns:svg="http://www.w3.org/2000/svg"><defs
   id="defs15" /><sodipodi:namedview
   id="namedview15"
   pagecolor="#ffffff"
   bordercolor="#000000"
   borderopacity="0.25"
   inkscape:showpageshadow="2"
   inkscape:pageopacity="0.0"
   inkscape:pagecheckerboard="0"
   inkscape:deskcolor="#d1d1d1"
   inkscape:zoom="1.753886"
   inkscape:cx="204.97341"
   inkscape:cy="193"
   inkscape:window-width="1500"
   inkscape:window-height="928"
   inkscape:window-x="0"
   inkscape:window-y="0"
   inkscape:window-maximized="1"
   inkscape:current-layer="Livello_1" />
<style
   type="text/css"
   id="style1">
	.st0{fill:url(#SVGID_1_);}
	.st1{fill:#1D1D1B;}
	.st2{fill:#EA4D8F;}
	.st3{fill:#9F3263;}
</style>
<radialGradient
   id="SVGID_1_"
   cx="211.0601"
   cy="352.5852"
   r="191.1609"
   gradientTransform="matrix(1.03 0 0 -1.05 -13.25 563.2145)"
   gradientUnits="userSpaceOnUse">
	<stop
   offset="0"
   style="stop-color:#FECD4D"
   id="stop1" />
	<stop
   offset="0"
   style="stop-color:#FECD4D"
   id="stop2" />
	<stop
   offset="0.28"
   style="stop-color:#FECD4D"
   id="stop3" />
	<stop
   offset="0.65"
   style="stop-color:#FECD4D;stop-opacity:0.5"
   id="stop4" />
	<stop
   offset="0.82"
   style="stop-color:#FECD4D;stop-opacity:0.2"
   id="stop5" />
	<stop
   offset="0.9"
   style="stop-color:#FECD4D;stop-opacity:0.1"
   id="stop6" />
	<stop
   offset="0.97"
   style="stop-color:#FFFFFF;stop-opacity:0.1"
   id="stop7" />
</radialGradient>
<rect
   class="st0"
   width="410"
   height="386"
   id="rect7" />
<g
   id="Livello_3">
</g>
<g
   id="g15">
	<g
   id="g8">
		<ellipse
   class="st1"
   cx="171.2"
   cy="163.4"
   rx="20"
   ry="9.5"
   id="ellipse7" />
		<path
   class="st2"
   d="M182.2,152.9c0,9.4-7.6,17-17,17c-7.1,0-11.9-4.8-12.4-5.4c-0.7-0.7-4.8-5.2-4.6-11.6c0.2-7.9,6.8-17,17-17    C174.6,135.9,182.2,143.6,182.2,152.9z"
   id="path7"
   style="fill:#f43f5e;fill-opacity:1" />
		<path
   class="st3"
   d="M180.2,144.9c0.1,1.3,0.1,2.3,0,3c0,0.3-0.1,0.9-0.5,3.4c-0.3,1.5-0.4,2.2-0.5,2.6c-0.1,0.6-0.7,2.6-2,5    c-0.6,1.1-1.4,2.6-3,4c-1.9,1.8-3.9,2.6-5,3c-1.7,0.7-3.2,0.9-4,1c-1.7,0.2-3.1,0.1-4,0c-1.5-0.2-2.5-0.5-4-1c-1.3-0.4-3-1.1-5-2    c1,1.1,2.6,2.7,5,4c2.9,1.6,5.5,1.9,6,2c0.7,0.1,2.1,0.2,4,0c1.8-0.2,3.1-0.7,4-1c0.3-0.1,1-0.4,1.9-0.9c0.9-0.5,1.9-1.1,3.1-2.1    c1.1-0.9,1.8-1.7,2-2c0.3-0.4,1.2-1.4,2-3c0.6-1.1,2.2-4.2,2-8l0-1.1l-0.2-1.5l-0.2-0.9l-0.3-1.1l-0.1-0.4l-0.1-0.2l-0.2-0.7    l-0.2-0.6l-0.1-0.4l-0.1-0.3l-0.1-0.2"
   id="path8" />
	</g>
	<g
   id="g10">
		<ellipse
   class="st1"
   cx="248.8"
   cy="163.4"
   rx="20"
   ry="9.5"
   id="ellipse8" />
		<path
   class="st2"
   d="M259.8,152.9c0,9.4-7.6,17-17,17c-7.1,0-11.9-4.8-12.4-5.4c-0.7-0.7-4.8-5.2-4.6-11.6c0.2-7.9,6.8-17,17-17    C252.1,135.9,259.8,143.6,259.8,152.9z"
   id="path9"
   style="fill:#f43f5e;fill-opacity:1" />
		<path
   class="st3"
   d="M257.8,144.9c0.1,1.3,0,2.3,0,3c0,0.3-0.1,0.9-0.5,3.4c-0.3,1.5-0.4,2.2-0.5,2.6c-0.1,0.6-0.7,2.6-2,5    c-0.6,1.1-1.4,2.6-3,4c-1.9,1.8-3.9,2.6-5,3c-1.7,0.7-3.2,0.9-4,1c-1.7,0.2-3.1,0.1-4,0c-1.5-0.2-2.5-0.5-4-1c-1.3-0.4-3-1.1-5-2    c1,1.1,2.6,2.7,5,4c2.9,1.6,5.5,1.9,6,2c0.7,0.1,2.1,0.2,4,0c1.8-0.2,3.1-0.7,4-1c0.3-0.1,1-0.4,1.9-0.9c0.9-0.5,1.9-1.1,3.1-2.1    c1.1-0.9,1.8-1.7,2-2c0.3-0.4,1.2-1.4,2-3c0.6-1.1,2.2-4.2,2-8l0-1.1l-0.2-1.5l-0.2-0.9l-0.3-1.1l-0.1-0.4l-0.1-0.2l-0.2-0.7    l-0.2-0.6l-0.1-0.4l-0.1-0.3l-0.1-0.2"
   id="path10" />
	</g>
	<g
   id="g12">
		<ellipse
   class="st1"
   cx="248.7"
   cy="240.6"
   rx="20"
   ry="9.5"
   id="ellipse10" />
		<path
   class="st2"
   d="M259.7,230.1c0,9.4-7.6,17-17,17c-7.1,0-11.9-4.8-12.4-5.4c-0.7-0.7-4.8-5.2-4.6-11.6c0.2-7.9,6.8-17,17-17    C252.1,213.1,259.7,220.7,259.7,230.1z"
   id="path11"
   style="fill:#f43f5e;fill-opacity:1" />
		<path
   class="st3"
   d="M257.7,222.1c0.1,1.3,0,2.3,0,3c0,0.3-0.1,0.9-0.5,3.4c-0.3,1.5-0.4,2.2-0.5,2.6c-0.1,0.6-0.7,2.6-2,5    c-0.6,1.1-1.4,2.6-3,4c-1.9,1.8-3.9,2.6-5,3c-1.7,0.7-3.2,0.9-4,1c-1.7,0.2-3.1,0.1-4,0c-1.5-0.2-2.5-0.5-4-1c-1.3-0.4-3-1.1-5-2    c1,1.1,2.6,2.7,5,4c2.9,1.6,5.5,1.9,6,2c0.7,0.1,2.1,0.2,4,0c1.8-0.2,3.1-0.7,4-1c0.3-0.1,1-0.4,1.9-0.9c0.9-0.5,1.9-1.1,3.1-2.1    c1.1-0.9,1.8-1.7,2-2c0.3-0.4,1.2-1.4,2-3c0.6-1.1,2.2-4.2,2-8l0-1.1l-0.2-1.5l-0.2-0.9l-0.3-1.1L259,225l-0.1-0.2l-0.2-0.7    l-0.2-0.6l-0.1-0.4l-0.1-0.3l-0.1-0.2"
   id="path12" />
	</g>
	<g
   id="g14">
		<ellipse
   class="st1"
   cx="171.2"
   cy="240.6"
   rx="20"
   ry="9.5"
   id="ellipse12" />
		<path
   class="st2"
   d="M182.2,230.1c0,9.4-7.6,17-17,17c-7.1,0-11.9-4.8-12.4-5.4c-0.7-0.7-4.8-5.2-4.6-11.6c0.2-7.9,6.8-17,17-17    C174.6,213.1,182.2,220.7,182.2,230.1z"
   id="path13"
   style="fill:#f43f5e;fill-opacity:1" />
		<path
   class="st3"
   d="M180.2,222.1c0.1,1.3,0.1,2.3,0,3c0,0.3-0.1,0.9-0.5,3.4c-0.3,1.5-0.4,2.2-0.5,2.6c-0.1,0.6-0.7,2.6-2,5    c-0.6,1.1-1.4,2.6-3,4c-1.9,1.8-3.9,2.6-5,3c-1.7,0.7-3.2,0.9-4,1c-1.7,0.2-3.1,0.1-4,0c-1.5-0.2-2.5-0.5-4-1c-1.3-0.4-3-1.1-5-2    c1,1.1,2.6,2.7,5,4c2.9,1.6,5.5,1.9,6,2c0.7,0.1,2.1,0.2,4,0c1.8-0.2,3.1-0.7,4-1c0.3-0.1,1-0.4,1.9-0.9c0.9-0.5,1.9-1.1,3.1-2.1    c1.1-0.9,1.8-1.7,2-2c0.3-0.4,1.2-1.4,2-3c0.6-1.1,2.2-4.2,2-8l0-1.1l-0.2-1.5l-0.2-0.9l-0.3-1.1l-0.1-0.4l-0.1-0.2l-0.2-0.7    l-0.2-0.6l-0.1-0.4l-0.1-0.3l-0.1-0.2"
   id="path14" />
	</g>
</g>
<g
   id="Livello_2_00000044874131747097991600000004827582957973631661_">
</g>
</svg>
