<?xml version="1.0" encoding="UTF-8" standalone="no"?>
<!-- Generator: Adobe Illustrator 26.1.0, SVG Export Plug-In . SVG Version: 6.00 Build 0)  -->

<svg
   version="1.1"
   x="0px"
   y="0px"
   viewBox="147 121 144.30001 65.10001"
   xml:space="preserve"
   id="svg107"
   sodipodi:docname="dimer_entangled.svg"
   inkscape:version="1.4.2 (ebf0e940d0, 2025-05-08)"
   width="144.3"
   height="65.099998"
   xmlns:inkscape="http://www.inkscape.org/namespaces/inkscape"
   xmlns:sodipodi="http://sodipodi.sourceforge.net/DTD/sodipodi-0.dtd"
   xmlns="http://www.w3.org/2000/svg"
   xmlns:svg="http://www.w3.org/2000/svg"><defs
   id="defs107" /><sodipodi:namedview
   id="namedview107"
   pagecolor="#ffffff"
   bordercolor="#000000"
   borderopacity="0.25"
   inkscape:showpageshadow="2"
   inkscape:pageopacity="0.0"
   inkscape:pagecheckerboard="false"
   inkscape:deskcolor="#d1d1d1"
   inkscape:zoom="2.0433423"
   inkscape:cx="133.35994"
   inkscape:cy="72.185654"
   inkscape:window-width="1500"
   inkscape:window-height="928"
   inkscape:window-x="0"
   inkscape:window-y="0"
   inkscape:window-maximized="1"
   inkscape:current-layer="svg107"
   showguides="true" />
<style
   type="text/css"
   id="style1">
	.st0{opacity:0.6;}
	.st1{fill:#F39FB6;}
	.st2{opacity:0.3;}
	.st3{fill:#FECD4D;}
	.st4{fill:#CC9C32;}
	.st5{fill:none;stroke:#000000;stroke-miterlimit:10;}
	.st6{fill:none;stroke:#000000;stroke-width:0.5;stroke-miterlimit:10;}
	.st7{fill:#EA4D8F;}
	.st8{fill:#9F3263;}
</style>
<g
   id="Livello_1"
   transform="translate(-25.4,-39.4)"
   clip-path="none">
	<g
   id="Livello_3">
	</g>
	<g
   id="g107">
		<g
   class="st0"
   id="g1">
			<path
   class="st1"
   d="m 219.2,166.5 c -3.4,-1.6 -12.8,-6 -23.6,-2.8 -12.7,3.7 -18.1,15.3 -18.8,17 -1,2.1 -4.4,10.1 -1.9,19.8 1.8,6.9 5.7,11.3 7.5,13.2 7.7,8.3 17.3,10 19.8,10.4 10.5,1.6 18.7,-2.3 21.7,-3.8 13.1,-6.5 13,-15.6 20.7,-16 7.7,-0.4 9.2,8.6 24.8,14.7 3.5,1.3 8.3,3.2 14.8,3.2 2.8,0 12.1,-0.1 20.7,-6.6 6.2,-4.6 8.8,-10.3 9.1,-11.5 2,-8 1,-14 1,-15 0,-10 -3,-12 -4,-14 -3.5,-7 -10.5,-9 -13,-10.1 -3.3,-1.5 -9.4,-3.6 -17,-3 -7.1,0.6 -12.1,3.3 -17,6 -15.1,8.4 -15.4,15.6 -22.2,15.6 -8.1,-0.1 -8.7,-10.5 -22.6,-17.1 z"
   id="path1"
   style="fill:#aaff32;fill-opacity:1" />
		</g>
		<g
   class="st0"
   id="g2">
			
		</g>
		<g
   class="st0"
   id="g3">
			
		</g>
		<g
   class="st2"
   id="g4">
			
		</g>
		<g
   class="st2"
   id="g5">
			
		</g>
		<g
   class="st0"
   id="g6">
			
		</g>
		<g
   id="g10">
			
			
			<g
   id="g8">
				
			</g>
			<path
   class="st5"
   d="M 40.7,49"
   id="path9" />
			<path
   class="st6"
   d="M 25.5,39.4"
   id="path10" />
		</g>
		<g
   id="g14">
			
			
			<g
   id="g12">
				
			</g>
			<path
   class="st5"
   d="M 118.2,49"
   id="path13" />
			<path
   class="st6"
   d="M 103,39.4"
   id="path14" />
		</g>
		<g
   id="g18">
			
			
			<g
   id="g16">
				
			</g>
			<path
   class="st5"
   d="M 195.7,49"
   id="path17" />
			<path
   class="st6"
   d="M 180.5,39.4"
   id="path18" />
		</g>
		<g
   id="g22">
			
			
			<g
   id="g20">
				
			</g>
			<path
   class="st5"
   d="M 273.2,49"
   id="path21" />
			<path
   class="st6"
   d="M 258,39.4"
   id="path22" />
		</g>
		<g
   id="g26">
			
			
			<g
   id="g24">
				
			</g>
			<path
   class="st5"
   d="M 40.7,126.1"
   id="path25" />
			<path
   class="st6"
   d="M 25.5,116.5"
   id="path26" />
		</g>
		<g
   id="g30">
			
			
			<g
   id="g28">
				
			</g>
			<path
   class="st5"
   d="M 118.2,126.1"
   id="path29" />
			<path
   class="st6"
   d="M 103,116.5"
   id="path30" />
		</g>
		<g
   id="g34">
			
			
			<g
   id="g32">
				
			</g>
			<path
   class="st5"
   d="M 195.7,126.1"
   id="path33" />
			<path
   class="st6"
   d="M 180.5,116.5"
   id="path34" />
		</g>
		<g
   id="g38">
			
			
			<g
   id="g36">
				
			</g>
			<path
   class="st5"
   d="M 273.2,126.1"
   id="path37" />
			<path
   class="st6"
   d="M 258,116.5"
   id="path38" />
		</g>
		<g
   id="g42">
			
			
			<g
   id="g40">
				
			</g>
			<path
   class="st5"
   d="M 350.7,126.1"
   id="path41" />
			<path
   class="st6"
   d="M 335.5,116.5"
   id="path42" />
		</g>
		<g
   id="g46">
			
			
			<g
   id="g44">
				
			</g>
			<path
   class="st5"
   d="M 40.7,203.3"
   id="path45" />
			<path
   class="st6"
   d="M 25.5,193.6"
   id="path46" />
		</g>
		<g
   id="g50">
			
			
			<g
   id="g48">
				
			</g>
			<path
   class="st5"
   d="M 118.2,203.3"
   id="path49" />
			<path
   class="st6"
   d="M 103,193.6"
   id="path50" />
		</g>
		<g
   id="g54">
			
			<path
   class="st7"
   d="m 221.5,191.6 c 0,9.4 -7.6,17 -17,17 -7.1,0 -11.9,-4.8 -12.4,-5.4 -0.7,-0.7 -4.7,-5.2 -4.6,-11.6 0.2,-7.9 6.8,-17 17,-17 9.4,0 17,7.6 17,17 z"
   id="path51"
   style="fill:#f43f5e;fill-opacity:1" />
			<g
   id="g52">
				<path
   class="st8"
   d="m 219.5,183.6 c 0.1,1.3 0,2.3 0,3 0,0.3 -0.1,1 -0.5,3.4 -0.3,1.5 -0.4,2.2 -0.5,2.6 -0.1,0.6 -0.7,2.6 -2,5 -0.7,1.2 -1.5,2.6 -3,4 -1.9,1.8 -3.9,2.6 -5,3 -1.7,0.7 -3.2,0.9 -4,1 -1.7,0.2 -3.1,0.1 -4,0 -1.5,-0.2 -2.5,-0.5 -4,-1 -1.3,-0.4 -3,-1.1 -5,-2 1,1.2 2.6,2.7 5,4 2.9,1.6 5.5,1.9 6,2 0.7,0.1 2.2,0.2 4,0 1.8,-0.2 3.1,-0.7 4,-1 0.3,-0.1 1,-0.4 1.9,-0.9 0.9,-0.5 1.9,-1.2 3.1,-2.1 1.1,-0.9 1.8,-1.7 2,-2 0.3,-0.3 1.2,-1.4 2,-3 0.6,-1.1 2.2,-4.2 2,-8 v -1.1 l -0.2,-1.5 -0.2,-0.9 -0.3,-1.1 -0.1,-0.4 -0.1,-0.2 -0.3,-0.7 -0.2,-0.6 -0.2,-0.4 -0.1,-0.3 -0.1,-0.2"
   id="path52" />
			</g>
			<path
   class="st5"
   d="M 195.7,203.3"
   id="path53" />
			<path
   class="st6"
   d="M 180.5,193.6"
   id="path54" />
		</g>
		<g
   id="g58">
			
			<path
   class="st7"
   d="m 299,191.6 c 0,9.4 -7.6,17 -17,17 -7.1,0 -11.9,-4.8 -12.4,-5.4 -0.7,-0.7 -4.7,-5.2 -4.6,-11.6 0.2,-7.9 6.8,-17 17,-17 9.4,0 17,7.6 17,17 z"
   id="path55"
   style="fill:#f43f5e;fill-opacity:1" />
			<g
   id="g56">
				<path
   class="st8"
   d="m 297,183.6 c 0.1,1.3 0,2.3 0,3 0,0.3 -0.1,1 -0.5,3.4 -0.3,1.5 -0.4,2.2 -0.5,2.6 -0.1,0.6 -0.7,2.6 -2,5 -0.7,1.2 -1.5,2.6 -3,4 -1.9,1.8 -3.9,2.6 -5,3 -1.7,0.7 -3.2,0.9 -4,1 -1.7,0.2 -3.1,0.1 -4,0 -1.5,-0.2 -2.5,-0.5 -4,-1 -1.3,-0.4 -3,-1.1 -5,-2 1,1.2 2.6,2.7 5,4 2.9,1.6 5.5,1.9 6,2 0.7,0.1 2.2,0.2 4,0 1.8,-0.2 3.1,-0.7 4,-1 0.3,-0.1 1,-0.4 1.9,-0.9 0.9,-0.5 1.9,-1.2 3.1,-2.1 1.1,-0.9 1.8,-1.7 2,-2 0.3,-0.3 1.2,-1.4 2,-3 0.6,-1.1 2.2,-4.2 2,-8 v -1.1 l -0.2,-1.5 -0.2,-0.9 -0.3,-1.1 -0.1,-0.4 -0.1,-0.2 -0.3,-0.7 -0.2,-0.6 -0.2,-0.4 -0.1,-0.3 -0.1,-0.2"
   id="path56" />
			</g>
			<path
   class="st5"
   d="M 273.2,203.3"
   id="path57" />
			<path
   class="st6"
   d="M 258,193.6"
   id="path58" />
		</g>
		<g
   id="g62">
			
			
			<g
   id="g60">
				
			</g>
			<path
   class="st5"
   d="M 273.2,280.4"
   id="path61" />
			<path
   class="st6"
   d="M 258,270.8"
   id="path62" />
		</g>
		<g
   id="g66">
			
			
			<g
   id="g64">
				
			</g>
			<path
   class="st5"
   d="M 195.7,280.4"
   id="path65" />
			<path
   class="st6"
   d="M 180.5,270.8"
   id="path66" />
		</g>
		<g
   id="g70">
			
			
			<g
   id="g68">
				
			</g>
			<path
   class="st5"
   d="M 350.7,203.3"
   id="path69" />
			<path
   class="st6"
   d="M 335.5,193.6"
   id="path70" />
		</g>
		<g
   id="g74">
			
			
			<g
   id="g72">
				
			</g>
			<path
   class="st5"
   d="M 40.7,280.4"
   id="path73" />
			<path
   class="st6"
   d="M 25.4,270.8"
   id="path74" />
		</g>
		<g
   id="g78">
			
			
			<g
   id="g76">
				
			</g>
			<path
   class="st5"
   d="M 118.2,280.4"
   id="path77" />
			<path
   class="st6"
   d="M 102.9,270.8"
   id="path78" />
		</g>
		<g
   id="g82">
			
			
			<g
   id="g80">
				
			</g>
			<path
   class="st5"
   d="M 350.7,280.4"
   id="path81" />
			<path
   class="st6"
   d="M 335.5,270.8"
   id="path82" />
		</g>
		<g
   id="g86">
			
			
			<g
   id="g84">
				
			</g>
			<path
   class="st5"
   d="M 40.7,357.5"
   id="path85" />
			<path
   class="st6"
   d="M 25.4,347.9"
   id="path86" />
		</g>
		<g
   id="g90">
			
			
			<g
   id="g88">
				
			</g>
			<path
   class="st5"
   d="M 118.2,357.5"
   id="path89" />
			<path
   class="st6"
   d="M 102.9,347.9"
   id="path90" />
		</g>
		<g
   id="g94">
			
			
			<g
   id="g92">
				
			</g>
			<path
   class="st5"
   d="M 195.7,357.5"
   id="path93" />
			<path
   class="st6"
   d="M 180.4,347.9"
   id="path94" />
		</g>
		<g
   id="g98">
			
			
			<g
   id="g96">
				
			</g>
			<path
   class="st5"
   d="M 273.2,357.5"
   id="path97" />
			<path
   class="st6"
   d="M 258,347.9"
   id="path98" />
		</g>
		<g
   id="g102">
			
			
			<g
   id="g100">
				
			</g>
			<path
   class="st5"
   d="M 350.7,357.5"
   id="path101" />
			<path
   class="st6"
   d="M 335.5,347.9"
   id="path102" />
		</g>
		<g
   id="g106">
			
			
			<g
   id="g104">
				
			</g>
			<path
   class="st5"
   d="M 350.7,49"
   id="path105" />
			<path
   class="st6"
   d="M 335.5,39.4"
   id="path106" />
		</g>
	</g>
</g>
<g
   id="Livello_2"
   transform="translate(22.071244,-35.97424)">
</g>
<g
   inkscape:label="Image"
   id="g47-4-43"
   transform="matrix(0.09796927,0,0,0.09355064,133.14482,140.34305)"
   style="fill:#800080" /><path
   style="font-style:italic;font-family:'Latin Modern Roman';-inkscape-font-specification:'Latin Modern Roman,  Italic';fill:#ffffff;stroke-width:2"
   d="m 179.84625,154.03099 c 0,-0.12 -0.096,-0.12 -0.18,-0.12 -0.156,0 -0.156,0.024 -0.204,0.204 -0.096,0.348 -0.42,1.5 -1.116,1.5 -0.096,0 -0.264,-0.012 -0.264,-0.336 0,-0.312 0.156,-0.708 0.312,-1.152 l 0.768,-2.052 c 0.12,-0.348 0.144,-0.444 0.144,-0.672 0,-0.66 -0.456,-0.96 -0.9,-0.96 -1.128,0 -1.536,1.788 -1.536,1.848 0,0.12 0.12,0.12 0.18,0.12 0.156,0 0.168,-0.024 0.216,-0.192 0.108,-0.396 0.42,-1.512 1.116,-1.512 0.132,0 0.264,0.06 0.264,0.336 0,0.288 -0.132,0.636 -0.216,0.864 l -0.36,0.996 -0.444,1.188 c -0.168,0.456 -0.216,0.588 -0.216,0.828 0,0.468 0.288,0.96 0.912,0.96 1.128,0 1.524,-1.8 1.524,-1.848 z m 0.324,-5.616 c 0,-0.252 -0.18,-0.516 -0.54,-0.516 -0.384,0 -0.768,0.372 -0.768,0.756 0,0.264 0.192,0.516 0.54,0.516 0.384,0 0.768,-0.372 0.768,-0.756 z"
   id="text1"
   aria-label="i" /><path
   style="font-style:italic;font-family:'Latin Modern Roman';-inkscape-font-specification:'Latin Modern Roman,  Italic';fill:#ffffff;stroke-width:2"
   d="m 256.85276,156.18524 1.116,-4.488 c 0.012,-0.036 0.06,-0.228 0.06,-0.396 0,-0.564 -0.36,-1.08 -1.032,-1.08 -1.188,0 -1.824,1.764 -1.824,1.848 0,0.12 0.12,0.12 0.18,0.12 0.156,0 0.156,-0.012 0.228,-0.204 0.3,-0.756 0.78,-1.5 1.404,-1.5 0.3,0 0.324,0.264 0.324,0.48 0,0.192 -0.036,0.42 -0.084,0.612 l -1.152,4.62 c -0.012,0.072 -0.384,1.524 -1.26,1.524 -0.06,0 -0.264,0 -0.48,-0.12 0.42,-0.132 0.432,-0.564 0.432,-0.564 0,-0.156 -0.108,-0.384 -0.42,-0.384 -0.24,0 -0.588,0.204 -0.588,0.624 0,0.54 0.612,0.708 1.044,0.708 0.996,0 1.824,-0.9 2.052,-1.8 z m 1.62,-7.992 c 0,-0.252 -0.18,-0.516 -0.54,-0.516 -0.384,0 -0.768,0.372 -0.768,0.756 0,0.264 0.192,0.516 0.54,0.516 0.384,0 0.768,-0.372 0.768,-0.756 z"
   id="text1-7"
   aria-label="j" /></svg>
