<?xml version="1.0" encoding="UTF-8" standalone="no"?>
<!-- Created with Inkscape (http://www.inkscape.org/) -->

<svg
   xmlns:dc="http://purl.org/dc/elements/1.1/"
   xmlns:cc="http://creativecommons.org/ns#"
   xmlns:rdf="http://www.w3.org/1999/02/22-rdf-syntax-ns#"
   xmlns:svg="http://www.w3.org/2000/svg"
   xmlns="http://www.w3.org/2000/svg"
   xmlns:sodipodi="http://sodipodi.sourceforge.net/DTD/sodipodi-0.dtd"
   xmlns:inkscape="http://www.inkscape.org/namespaces/inkscape"
   version="1.1"
   id="svg2"
   xml:space="preserve"
   width="177.31946"
   height="174.96173"
   viewBox="0 0 177.31946 174.96173"
   sodipodi:docname="sissalogo.svg"
   inkscape:version="0.92.4 (5da689c313, 2019-01-14)"><metadata
     id="metadata8"><rdf:RDF><cc:Work
         rdf:about=""><dc:format>image/svg+xml</dc:format><dc:type
           rdf:resource="http://purl.org/dc/dcmitype/StillImage" /><dc:title></dc:title></cc:Work></rdf:RDF></metadata><defs
     id="defs6"><clipPath
       clipPathUnits="userSpaceOnUse"
       id="clipPath18"><path
         d="M 0,206.425 H 133.237 V 0 H 0 Z"
         id="path16"
         inkscape:connector-curvature="0" /></clipPath></defs><sodipodi:namedview
     pagecolor="#FFE4E6"
     bordercolor="#666666"
     borderopacity="1"
     objecttolerance="10"
     gridtolerance="10"
     guidetolerance="10"
     inkscape:pageopacity="0"
     inkscape:pageshadow="2"
     inkscape:window-width="1920"
     inkscape:window-height="986"
     id="namedview4"
     showgrid="false"
     inkscape:zoom="3.4298171"
     inkscape:cx="94.034449"
     inkscape:cy="14.020205"
     inkscape:window-x="-11"
     inkscape:window-y="-11"
     inkscape:window-maximized="1"
     inkscape:current-layer="g10"
     fit-margin-top="0"
     fit-margin-left="0"
     fit-margin-right="0"
     fit-margin-bottom="0" /><g
     id="g10"
     inkscape:groupmode="layer"
     inkscape:label="sissa"
     transform="matrix(1.3333333,0,0,-1.3333333,-0.32986666,275.23333)"><g
       id="g12"><g
         id="g14"
         clip-path="url(#clipPath18)"><g
           id="g20"
           transform="translate(87.7335,168.7964)"><path
             d="M 0,0 C 0.511,1.982 1.181,3.436 1.591,4.216 -1.198,6.089 -4.262,7.621 -7.492,8.764 -7.691,7.897 -7.946,6.533 -8.07,4.808 c -0.216,-3.017 0.028,-6.055 0.725,-9.029 0.537,-2.289 1.351,-4.532 2.413,-6.678 1.266,-0.27 2.555,-0.6 3.868,-0.993 0.498,-0.149 0.997,-0.308 1.496,-0.474 -0.503,1.545 -0.841,3.116 -1.004,4.687 C -0.84,-5.098 -0.647,-2.514 0,0"
             style="fill:#FFE4E6;fill-opacity:1;fill-rule:nonzero;stroke:none"
             id="path22"
             inkscape:connector-curvature="0" /></g><g
           id="g24"
           transform="translate(68.4756,173.8604)"><path
             d="m 0,0 c -0.371,2.043 -0.561,3.762 -0.658,4.974 0.012,-5.791 0.03,-13.463 0.047,-20.949 1.62,0.441 3.343,0.724 5.137,0.838 0.328,0.021 0.659,0.034 0.992,0.044 C 4.463,-13.37 3.52,-11.492 2.709,-9.49 1.522,-6.559 0.611,-3.366 0,0"
             style="fill:#FFE4E6;fill-opacity:1;fill-rule:nonzero;stroke:none"
             id="path26"
             inkscape:connector-curvature="0" /></g><g
           id="g28"
           transform="translate(78.2833,173.7031)"><path
             d="m 0,0 c 0.136,1.907 0.421,3.383 0.639,4.299 -3.157,1 -6.451,1.635 -9.786,1.861 0.063,-1.116 0.235,-3.186 0.702,-5.755 0.593,-3.273 1.478,-6.375 2.63,-9.218 0.895,-2.215 1.959,-4.269 3.158,-6.117 1.763,-0.039 3.595,-0.222 5.488,-0.549 -0.892,1.953 -1.59,3.976 -2.073,6.036 C 0.029,-6.333 -0.227,-3.156 0,0"
             style="fill:#FFE4E6;fill-opacity:1;fill-rule:nonzero;stroke:none"
             id="path30"
             inkscape:connector-curvature="0" /></g><g
           id="g32"
           transform="translate(90.4708,172.2124)"><path
             d="m 0,0 c -0.377,-0.743 -0.954,-2.043 -1.396,-3.761 -0.607,-2.354 -0.788,-4.774 -0.537,-7.192 0.188,-1.818 0.628,-3.636 1.302,-5.413 1.33,-0.487 2.662,-1.028 3.985,-1.623 -0.274,2.749 0.034,5.266 0.918,7.498 C 4.955,-8.769 5.89,-7.44 6.81,-6.44 4.862,-4.019 2.562,-1.859 0,0"
             style="fill:#FFE4E6;fill-opacity:1;fill-rule:nonzero;stroke:none"
             id="path34"
             inkscape:connector-curvature="0" /></g><g
           id="g36"
           transform="translate(62.6622,181.1763)"><path
             d="m 0,0 c 13.576,1.234 27.522,-4.437 35.632,-14.459 0.754,0.841 0.69,1.684 -0.109,2.609 -8.582,9.433 -22.304,14.67 -35.669,13.458 -13.696,-1.244 -25.433,-8.883 -33.422,-21.645 -0.872,-1.473 -1.31,-2.379 -0.321,-3.734 C -26.199,-9.652 -14.383,-1.307 0,0"
             style="fill:#FFE4E6;fill-opacity:1;fill-rule:nonzero;stroke:none"
             id="path38"
             inkscape:connector-curvature="0" /></g><g
           id="g40"
           transform="translate(43.6793,172.4263)"><path
             d="m 0,0 c 0.305,-0.641 0.635,-1.286 0.972,-1.915 0.479,-0.896 0.983,-1.78 1.51,-2.651 1.053,-1.743 2.189,-3.436 3.404,-5.071 2.431,-3.269 5.174,-6.312 8.239,-8.995 0.465,-0.409 0.94,-0.805 1.421,-1.196 0.742,1.111 1.711,2.075 2.892,2.867 0.786,0.528 1.61,0.942 2.385,1.272 -0.504,0.686 -0.992,1.381 -1.466,2.086 -2.013,3.008 -3.773,6.18 -5.293,9.459 -0.76,1.64 -1.479,3.299 -2.124,4.988 C 11.361,2.367 10.818,3.89 10.348,5.467 6.693,4.191 3.221,2.346 0,0"
             style="fill:#FFE4E6;fill-opacity:1;fill-rule:nonzero;stroke:none"
             id="path42"
             inkscape:connector-curvature="0" /></g><g
           id="g44"
           transform="translate(62.7877,179.7974)"><path
             d="m 0,0 c -2.542,-0.23 -5.029,-0.73 -7.442,-1.473 0.464,-1.522 0.999,-3.055 1.569,-4.558 0.639,-1.659 1.312,-3.305 2.047,-4.924 0.728,-1.623 1.525,-3.212 2.357,-4.782 0.836,-1.569 1.729,-3.106 2.685,-4.603 0.499,-0.781 1.018,-1.55 1.555,-2.305 0.165,0.06 0.325,0.116 0.479,0.168 L 3.213,0.157 C 2.142,0.146 1.07,0.098 0,0"
             style="fill:#FFE4E6;fill-opacity:1;fill-rule:nonzero;stroke:none"
             id="path46"
             inkscape:connector-curvature="0" /></g><g
           id="g48"
           transform="translate(62.8887,154.3164)"><path
             d="m 0,0 c -1.079,-0.724 -1.924,-1.571 -2.575,-2.578 0.757,-0.58 1.53,-1.139 2.32,-1.672 1.108,-0.753 2.251,-1.452 3.42,-2.107 L 3.153,0.423 C 2.924,0.708 2.696,0.992 2.472,1.281 1.672,0.959 0.814,0.547 0,0"
             style="fill:#FFE4E6;fill-opacity:1;fill-rule:nonzero;stroke:none"
             id="path50"
             inkscape:connector-curvature="0" /></g><g
           id="g52"
           transform="translate(64.7452,147.6152)"><path
             d="m 0,0 c -0.908,0.506 -1.803,1.038 -2.669,1.612 -0.775,0.511 -1.532,1.047 -2.276,1.599 -0.377,-0.77 -0.889,-2.071 -0.996,-3.618 -0.101,-1.445 0.179,-2.802 0.83,-4.032 1.244,-2.352 3.664,-3.92 6.434,-4.225 L 1.31,-0.699 C 0.87,-0.473 0.433,-0.239 0,0"
             style="fill:#FFE4E6;fill-opacity:1;fill-rule:nonzero;stroke:none"
             id="path54"
             inkscape:connector-curvature="0" /></g><g
           id="g56"
           transform="translate(58.4107,142.5283)"><path
             d="m 0,0 -0.001,0.003 c -2.508,0.982 -4.923,2.195 -7.216,3.604 -2.424,1.487 -4.714,3.186 -6.863,5.045 -2.147,1.86 -4.157,3.877 -6.015,6.025 -0.931,1.073 -1.823,2.179 -2.675,3.319 -0.426,0.569 -0.841,1.147 -1.244,1.735 -0.138,0.203 -0.274,0.405 -0.408,0.608 -1.602,-2.096 -3.076,-4.358 -4.407,-6.766 0.433,-0.587 0.876,-1.168 1.335,-1.736 1.232,-1.502 2.547,-2.939 3.954,-4.28 2.808,-2.687 5.96,-5.019 9.379,-6.861 3.416,-1.846 7.108,-3.18 10.921,-3.926 1.904,-0.374 3.845,-0.603 5.789,-0.727 C 3.112,-3.991 3.677,-4.013 4.241,-4.024 2.437,-3.159 0.936,-1.77 0,0"
             style="fill:#FFE4E6;fill-opacity:1;fill-rule:nonzero;stroke:none"
             id="path58"
             inkscape:connector-curvature="0" /></g><g
           id="g60"
           transform="translate(104.3516,139.9409)"><path
             d="m 0,0 c -0.448,0 -0.812,-0.363 -0.812,-0.811 0,-0.449 0.364,-0.812 0.812,-0.812 0.448,0 0.812,0.363 0.812,0.812 C 0.812,-0.363 0.448,0 0,0"
             style="fill:#FFE4E6;fill-opacity:1;fill-rule:nonzero;stroke:none"
             id="path62"
             inkscape:connector-curvature="0" /></g><g
           id="g64"
           transform="translate(42.564,171.5869)"><path
             d="m 0,0 c -2.776,-2.162 -5.35,-4.705 -7.678,-7.58 0.207,-0.329 0.422,-0.659 0.639,-0.983 0.385,-0.575 0.785,-1.142 1.195,-1.702 0.82,-1.12 1.682,-2.212 2.582,-3.27 1.798,-2.121 3.746,-4.115 5.829,-5.957 3.789,-3.349 8.059,-6.178 12.699,-8.184 -0.349,1.073 -0.489,2.209 -0.408,3.393 0.135,1.945 0.829,3.549 1.26,4.38 -0.536,0.422 -1.066,0.851 -1.584,1.294 -3.162,2.7 -5.997,5.769 -8.517,9.07 -1.259,1.652 -2.439,3.364 -3.536,5.13 C 1.933,-3.527 1.406,-2.63 0.904,-1.718 0.591,-1.149 0.291,-0.582 0,0"
             style="fill:#FFE4E6;fill-opacity:1;fill-rule:nonzero;stroke:none"
             id="path66"
             inkscape:connector-curvature="0" /></g><g
           id="g68"
           transform="translate(45.9595,132.1895)"><path
             d="M 0,0 C 0.482,0.01 0.856,0.389 0.86,0.88 0.874,1.43 0.421,1.783 -0.036,1.781 -0.509,1.775 -0.898,1.372 -0.901,0.896 -0.905,0.391 -0.505,-0.007 0,0"
             style="fill:#FFE4E6;fill-opacity:1;fill-rule:nonzero;stroke:none"
             id="path70"
             inkscape:connector-curvature="0" /></g><g
           id="g72"
           transform="translate(39.0235,129.1528)"><path
             d="M 0,0 C 0.466,0 0.874,0.4 0.887,0.87 0.902,1.369 0.498,1.782 -0.004,1.782 -0.479,1.78 -0.879,1.394 -0.896,0.92 -0.913,0.437 -0.485,0 0,0"
             style="fill:#FFE4E6;fill-opacity:1;fill-rule:nonzero;stroke:none"
             id="path74"
             inkscape:connector-curvature="0" /></g><g
           id="g76"
           transform="translate(108.2051,139.9409)"><path
             d="m 0,0 c -0.448,0 -0.812,-0.363 -0.812,-0.811 0,-0.449 0.364,-0.812 0.812,-0.812 0.448,0 0.812,0.363 0.812,0.812 C 0.812,-0.363 0.448,0 0,0"
             style="fill:#FFE4E6;fill-opacity:1;fill-rule:nonzero;stroke:none"
             id="path78"
             inkscape:connector-curvature="0" /></g><g
           id="g80"
           transform="translate(33.6231,121.5459)"><path
             d="M 0,0 C 6.915,-0.734 12.22,0.603 12.22,0.603 L 2.501,1.666 C 2.501,1.666 1.311,0.612 0,0"
             style="fill:#FFE4E6;fill-opacity:1;fill-rule:nonzero;stroke:none"
             id="path82"
             inkscape:connector-curvature="0" /></g><g
           id="g84"
           transform="translate(39.0308,132.417)"><path
             d="M 0,0 C 0.464,0.008 0.873,0.421 0.877,0.885 0.883,1.373 0.458,1.792 -0.036,1.783 -0.534,1.775 -0.921,1.354 -0.9,0.849 -0.879,0.374 -0.474,-0.011 0,0"
             style="fill:#FFE4E6;fill-opacity:1;fill-rule:nonzero;stroke:none"
             id="path86"
             inkscape:connector-curvature="0" /></g><g
           id="g88"
           transform="translate(115.9131,139.9409)"><path
             d="m 0,0 c -0.448,0 -0.812,-0.363 -0.812,-0.811 0,-0.449 0.364,-0.812 0.812,-0.812 0.448,0 0.812,0.363 0.812,0.812 C 0.812,-0.363 0.448,0 0,0"
             style="fill:#FFE4E6;fill-opacity:1;fill-rule:nonzero;stroke:none"
             id="path90"
             inkscape:connector-curvature="0" /></g><g
           id="g92"
           transform="translate(112.0059,137.0337)"><path
             d="m 0,0 -0.033,-0.085 c -3.77,-7.479 -14.033,-14.254 -20.88,-16.896 -10.736,-4.144 -19.541,-4.998 -28.608,-5.269 -0.925,-0.028 -1.889,-0.041 -2.881,-0.041 -8.732,0 -19.676,1.023 -25.928,2.274 -6.965,1.392 -16.824,4.251 -16.963,4.302 -0.064,0.132 1.082,1.399 2.417,1.418 0.045,0.002 0.091,0.003 0.137,0.003 0.303,0 0.611,-0.045 0.913,-0.084 1.332,-0.178 2.668,-0.273 4.009,-0.273 0.364,0 0.729,0.007 1.094,0.021 2.104,0.083 4.093,0.626 5.993,1.506 0.894,0.416 3.814,2.373 4,4.118 0.088,0.822 0.182,1.644 0.214,2.468 0.058,1.475 0.064,2.953 0.111,4.429 0.064,2.053 0.479,7.064 0.479,7.064 l 0.731,-0.006 0.595,-5.841 11.644,-0.71 0.334,-7.909 c 0,0 -1.565,-1.431 -3.92,-2.187 0.541,-0.126 5.64,-0.477 7.416,-0.51 0.23,-0.005 0.523,-0.007 0.861,-0.007 2.121,0 5.991,0.075 6.735,0.083 4.34,0.075 12.274,0.622 21.324,1.779 2.504,0.372 4.992,0.817 7.457,1.397 2.053,0.483 4.081,1.058 6.056,1.804 0.409,0.154 1.255,0.494 1.255,0.494 l -1.973,6.087 0.679,2.067 4.576,-6.693 c 0,0 3.827,2.114 6.934,5.112 L -5.156,0 H -9.84 v 4.191 h 7.916 c 0.604,0.624 1.243,1.861 1.442,3.421 0.029,0.673 -0.071,1.347 -0.325,1.946 -0.278,0.665 -0.734,1.234 -1.344,1.589 -0.604,0.36 -1.356,0.522 -2.141,0.466 -0.769,-0.048 -1.443,-0.348 -1.896,-0.857 -0.456,-0.506 -0.713,-1.229 -0.734,-1.97 -0.025,-0.737 0.242,-1.485 0.769,-1.995 0.262,-0.254 0.589,-0.443 0.954,-0.544 0.372,-0.1 0.756,-0.116 1.128,-0.011 0.37,0.105 0.722,0.326 0.992,0.638 0.268,0.313 0.446,0.718 0.501,1.157 h 0.204 C -2.25,7.07 -2.814,5.996 -3.793,5.535 -4.275,5.293 -4.843,5.224 -5.372,5.288 c -0.54,0.059 -1.071,0.273 -1.518,0.601 -0.907,0.656 -1.431,1.743 -1.523,2.834 -0.045,0.547 0.005,1.104 0.17,1.639 0.158,0.537 0.444,1.046 0.82,1.482 0.377,0.436 0.857,0.787 1.369,1.022 0.515,0.238 1.054,0.374 1.584,0.443 0.528,0.066 1.057,0.079 1.607,0.012 0.544,-0.068 1.091,-0.221 1.601,-0.467 0.233,-0.11 0.455,-0.241 0.667,-0.386 -0.25,1.408 -0.817,2.784 -1.373,3.615 l 0.489,0.345 c 0,0 1.898,-2.512 2.712,-4.712 C 2.13,9.293 2.401,7.528 1.571,4.191 h 2.306 c 1.393,0 2.522,-1.129 2.522,-2.522 L 6.399,0 Z m -8.369,-16.079 -1.897,3.334 c 0.606,0.422 1.203,0.854 1.785,1.296 0.032,0.024 0.065,0.051 0.097,0.076 l 5.988,-9.205 c -3.403,0.379 -5.973,4.499 -5.973,4.499 m -3.831,-1.358 -0.927,2.826 c 0.699,0.425 1.394,0.87 2.078,1.33 l 3.763,-9.792 c -3.252,1.074 -4.914,5.636 -4.914,5.636 m -0.014,-7.14 c -0.077,-0.969 -0.479,-1.861 -1.142,-2.555 -0.1,-0.101 -0.202,-0.199 -0.31,-0.293 -0.85,-0.724 -1.927,-1.075 -3.041,-0.986 -0.932,0.071 -1.766,0.517 -2.386,1.218 -0.521,0.583 -0.931,1.833 -0.645,2.744 0.208,0.67 0.724,1.149 1.251,1.282 1.094,0.276 1.624,-0.362 1.624,-0.362 -0.743,0.058 -1.398,-0.5 -1.455,-1.243 -0.04,-0.504 0.12,-0.992 0.449,-1.379 0.326,-0.383 0.784,-0.619 1.289,-0.658 0.683,-0.054 1.348,0.162 1.868,0.609 0.524,0.445 0.839,1.065 0.894,1.751 0.071,0.907 -0.214,1.789 -0.806,2.481 -0.594,0.693 -1.418,1.111 -2.327,1.185 -3.563,0.292 -6.965,-4.22 -11.413,-9.878 -1.191,-1.514 -3.179,-2.203 -4.539,-1.927 -0.919,0.186 -1.692,0.727 -2.225,1.497 -0.443,0.644 -0.702,1.934 -0.306,2.804 0.289,0.639 0.859,1.052 1.396,1.121 1.121,0.141 1.57,-0.555 1.57,-0.555 -0.73,0.148 -1.446,-0.327 -1.596,-1.06 -0.1,-0.494 -0.002,-0.999 0.278,-1.422 0.279,-0.421 0.706,-0.708 1.2,-0.808 0.672,-0.136 1.359,-0.003 1.931,0.374 0.571,0.38 0.961,0.96 1.096,1.631 0.183,0.894 0.004,1.803 -0.5,2.562 -0.503,0.758 -1.271,1.277 -2.163,1.459 -3.381,0.686 -7.017,-2.167 -12.488,-8.318 -0.581,-0.652 -1.48,-1.364 -2.225,-1.573 -1.074,-0.302 -2.19,-0.27 -3.187,0.23 -0.836,0.418 -1.442,1.143 -1.754,2.025 -0.261,0.739 -0.173,2.05 0.435,2.787 0.447,0.542 1.105,0.792 1.642,0.717 1.118,-0.156 1.369,-0.946 1.369,-0.946 -0.667,0.334 -1.482,0.063 -1.818,-0.604 -0.225,-0.454 -0.261,-0.967 -0.104,-1.446 0.161,-0.479 0.498,-0.87 0.949,-1.095 0.614,-0.308 1.311,-0.357 1.962,-0.141 0.649,0.216 1.177,0.673 1.485,1.287 0.408,0.813 0.473,1.739 0.188,2.603 -0.29,0.864 -0.896,1.565 -1.71,1.972 -3.328,1.668 -8.76,-0.383 -16.147,-6.096 -0.739,-0.577 -1.63,-0.884 -2.559,-0.884 -0.14,0 -0.281,0.006 -0.424,0.021 -1.11,0.111 -2.109,0.648 -2.815,1.512 -0.594,0.726 -0.849,1.634 -0.775,2.566 0.064,0.781 0.68,1.94 1.537,2.365 0.629,0.312 1.332,0.27 1.792,-0.016 0.956,-0.601 0.862,-1.425 0.862,-1.425 -0.473,0.579 -1.326,0.663 -1.905,0.192 -0.39,-0.32 -0.634,-0.774 -0.685,-1.275 -0.05,-0.504 0.097,-0.998 0.419,-1.389 0.433,-0.529 1.048,-0.86 1.731,-0.93 0.682,-0.069 1.351,0.134 1.881,0.568 0.704,0.576 1.144,1.393 1.236,2.299 0.09,0.907 -0.179,1.794 -0.753,2.5 -2.384,2.913 -8.286,3.234 -17.545,0.952 7.608,3.407 15.94,3.55 18.788,0.066 0.849,-1.039 1.243,-2.345 1.11,-3.678 -0.004,-0.025 -0.007,-0.047 -0.009,-0.069 6.57,4.545 11.489,5.909 14.981,4.16 1.2,-0.601 2.092,-1.632 2.515,-2.904 0.105,-0.316 0.177,-0.635 0.218,-0.956 4.619,5.077 8.608,7.211 12.123,6.499 1.314,-0.267 2.445,-1.028 3.185,-2.145 0.312,-0.469 0.769,-1.192 0.855,-1.741 4.144,5.762 7.516,8.333 11.037,8.116 1.495,-0.092 2.554,-0.725 3.424,-1.745 0.87,-1.018 1.29,-2.316 1.187,-3.653 m -14.684,-14.28 c -5.966,-3.846 -11.379,-6.186 -15.063,-2.622 -0.962,0.934 -1.306,2.309 -1.21,3.647 0,0.022 0.004,0.047 0.006,0.069 -6.439,-4.73 -11.32,-6.23 -14.859,-4.579 -1.215,0.568 -2.136,1.572 -2.594,2.83 -0.114,0.312 -0.197,0.682 -0.242,1.003 -0.058,0.429 -0.119,1.08 -0.01,1.707 0.107,0.613 0.418,1.273 0.801,1.788 0.409,0.55 0.982,1.045 1.583,1.335 0.126,0.061 0.257,0.116 0.39,0.165 1.051,0.381 2.183,0.332 3.196,-0.139 0.847,-0.395 1.472,-1.103 1.808,-1.976 0.284,-0.73 0.229,-2.044 -0.355,-2.797 -0.432,-0.556 -1.084,-0.823 -1.621,-0.762 -1.122,0.122 -1.397,0.907 -1.397,0.907 0.676,-0.316 1.484,-0.021 1.799,0.655 0.214,0.456 0.237,0.972 0.064,1.446 -0.174,0.476 -0.52,0.855 -0.98,1.07 -0.62,0.289 -1.317,0.319 -1.963,0.084 -0.643,-0.233 -1.159,-0.704 -1.449,-1.327 -0.384,-0.826 -0.425,-1.751 -0.114,-2.608 0.312,-0.855 0.937,-1.539 1.764,-1.924 3.373,-1.572 8.745,0.629 15.969,6.55 0.724,0.596 1.606,0.928 2.534,0.954 0.139,0.004 0.281,0 0.425,-0.01 1.111,-0.08 2.128,-0.588 2.856,-1.43 0.613,-0.708 0.895,-1.612 0.846,-2.545 -0.042,-0.782 -0.626,-1.96 -1.47,-2.406 -0.621,-0.332 -1.324,-0.311 -1.79,-0.035 -0.976,0.572 -0.903,1.4 -0.903,1.4 0.488,-0.566 1.345,-0.627 1.908,-0.139 0.384,0.332 0.613,0.792 0.651,1.296 0.035,0.505 -0.126,0.993 -0.457,1.375 -0.451,0.519 -1.073,0.83 -1.758,0.881 -0.684,0.049 -1.347,-0.171 -1.865,-0.62 -0.688,-0.596 -1.103,-1.426 -1.17,-2.335 -0.064,-0.907 0.203,-1.811 0.824,-2.476 2.823,-3.016 7.82,-0.952 12.69,1.552 0.503,0.257 1.99,0.917 2.233,0.751 -0.12,-0.12 -0.434,-0.32 -1.077,-0.735 m -3.767,37.869 c 0.209,0.096 0.701,0.273 0.941,0.716 0.139,0.205 0.289,0.398 0.421,0.606 0.096,0.147 0.186,0.301 0.246,0.464 0.16,0.421 -0.072,0.78 -0.522,0.829 -0.122,0.013 -0.757,-0.002 -1.056,0.004 -0.212,0.003 -0.661,0.071 -0.868,0.21 0.164,0.372 0.321,0.708 0.485,1.067 0.171,0.385 0.357,0.762 0.534,1.145 0.169,0.365 0.306,0.748 0.553,1.113 0.136,-0.043 0.962,-0.299 1.255,-0.357 0.403,-0.079 0.757,-0.109 1.123,0.171 -10e-4,0.017 -1.303,0.734 -1.908,1.072 0.149,0.401 0.273,0.626 0.528,0.902 0.22,0.22 0.489,0.522 1.181,0.49 0.44,0.013 1.198,-0.157 1.637,-0.159 0.637,-0.019 1.053,0.388 1.129,0.728 0.078,0.355 0.05,0.697 -0.098,1.029 -0.538,1.475 -2.136,1.49 -2.311,1.518 -0.042,0.455 -0.075,0.973 -0.116,1.417 0.477,0.063 6.301,1.071 8.884,-5.068 1.482,-3.522 -0.443,-6.362 -0.443,-6.362 l -1.219,0.719 c 0,0 0.146,0.329 0.203,0.472 0.366,0.939 0.482,1.904 0.267,2.896 -0.177,0.815 -0.653,1.428 -1.357,1.864 -0.386,0.24 -0.805,0.339 -1.26,0.3 -0.622,-0.056 -0.961,-0.595 -0.719,-1.174 0.101,-0.243 0.254,-0.462 0.401,-0.68 0.252,-0.376 0.376,-0.785 0.394,-1.238 0.047,-1.234 -0.645,-2.678 -1.536,-3.334 -0.512,0.235 -1,0.521 -1.139,0.5 -0.474,-0.245 -0.492,-0.834 -0.425,-1.247 0.051,-0.442 0.466,-0.881 0.968,-0.979 0.311,-0.062 1.17,-0.231 1.292,-0.253 1.149,-0.207 1.932,-0.913 2.439,-1.911 0.425,-0.828 1.078,-1.42 1.787,-1.972 0.182,-0.142 0.613,-0.428 0.983,-0.661 -1.225,-0.43 -2.546,-0.824 -3.998,-1.193 -0.114,0.045 -0.216,0.091 -0.28,0.126 -0.524,0.288 -1.055,0.556 -1.587,0.824 -0.122,0.061 -0.263,0.083 -0.394,0.123 -0.309,-0.376 -0.97,-1.193 -1.015,-1.248 -0.209,-0.286 -0.329,-0.501 -0.5,-0.67 -1.441,-0.284 -2.974,-0.546 -4.631,-0.792 -2.482,-0.318 -4.86,-0.586 -7.089,-0.811 2.112,1.727 3.686,4.222 3.954,4.777 -0.393,0.853 0.507,2.824 2.866,4.027 m -55.556,22.134 c 8.183,15.354 21.183,24.582 36.606,25.983 1.199,0.109 2.401,0.163 3.603,0.172 l -0.004,2.238 c 0,1.274 1.07,1.906 1.807,1.921 0,-0.009 0.003,-1.573 0.009,-4.178 12.871,-0.421 25.422,-6.38 33.045,-15.986 0.771,-0.904 1.425,-1.798 2.141,-2.832 -0.588,0.03 -1.29,-0.017 -2.538,0.83 0,0 -0.114,0.078 -0.241,0.157 -0.021,-0.011 -0.046,-0.026 -0.071,-0.042 -1.142,-0.802 -3.01,-2.452 -4.112,-5.231 -0.926,-2.335 -1.153,-5.038 -0.673,-8.032 l 0.208,-1.298 -1.188,0.563 c -2.685,1.273 -5.413,2.327 -8.105,3.134 -4.751,1.423 -9.186,2.017 -13.182,1.763 -1.836,-0.116 -3.589,-0.418 -5.223,-0.893 0.002,-0.781 0.003,-1.557 0.005,-2.327 0.862,-1.034 1.78,-2.019 2.756,-2.947 2.561,-2.444 5.513,-4.49 8.744,-6.018 l -0.103,-0.24 c -3.367,1.285 -6.5,3.222 -9.22,5.627 -0.755,0.67 -1.478,1.377 -2.174,2.11 0.005,-1.955 0.009,-3.859 0.013,-5.677 0.002,-10e-4 0.005,-0.002 0.007,-0.003 3.635,-1.838 7.548,-3.142 11.588,-3.866 l -0.039,-0.259 c -3.972,0.454 -7.881,1.554 -11.554,3.193 0.014,-6.622 0.026,-11.931 0.03,-13.883 0.058,-0.036 0.115,-0.071 0.172,-0.108 1.41,-0.932 2.927,-2.19 4.665,-3.767 0.457,-0.388 0.979,-0.848 1.228,-1.095 -3.709,-0.366 -6.982,-0.609 -9.598,-0.751 -1.664,1.689 -3.047,3.436 -3.217,3.675 0,0 -0.834,-1.369 -1.712,-1.953 -1.107,-0.735 -3.161,-1.547 -4.253,-1.949 -0.533,-0.005 -1.035,-0.008 -1.464,-0.008 -0.344,0 -0.625,0.002 -0.835,0.006 -0.63,0.012 -1.585,0.059 -2.593,0.12 1.64,1.152 6.883,6.066 8.701,7.324 0.569,0.352 1.272,1.413 2.275,1.128 0.053,-0.017 0.109,-0.034 0.166,-0.052 1.76,-0.391 3.246,-0.886 4.623,-1.547 l -0.008,4.348 c -1.722,-0.127 -3.451,-0.137 -5.172,-0.045 -1.991,0.112 -3.974,0.332 -5.942,0.703 -3.929,0.74 -7.746,2.088 -11.278,3.965 -3.536,1.872 -6.797,4.248 -9.702,6.99 -1.456,1.369 -2.818,2.835 -4.096,4.371 -0.635,0.773 -1.249,1.563 -1.834,2.376 -0.346,0.482 -0.679,0.965 -1.002,1.463 -0.684,-1.335 -1.925,-2.264 -2.778,-2.176 0.315,0.727 0.882,1.894 1.519,3.003 m 40.763,36.584 c -30.323,0 -54.907,-24.584 -54.907,-54.907 0,-30.325 24.584,-54.906 54.907,-54.906 30.323,0 54.908,24.581 54.908,54.906 0,30.323 -24.585,54.907 -54.908,54.907"
             style="fill:#FFE4E6;fill-opacity:1;fill-rule:nonzero;stroke:none"
             id="path94"
             inkscape:connector-curvature="0" /></g><g
           id="g96"
           transform="translate(42.5738,129.0064)"><path
             d="M 0,0 C 0.513,-0.008 0.913,0.377 0.913,0.881 0.911,1.357 0.524,1.752 0.047,1.765 -0.451,1.777 -0.87,1.371 -0.872,0.877 -0.872,0.402 -0.481,0.011 0,0"
             style="fill:#FFE4E6;fill-opacity:1;fill-rule:nonzero;stroke:none"
             id="path98"
             inkscape:connector-curvature="0" /></g><g
           id="g100"
           transform="translate(112.0596,139.9409)"><path
             d="m 0,0 c -0.448,0 -0.812,-0.363 -0.812,-0.811 0,-0.449 0.364,-0.812 0.812,-0.812 0.448,0 0.812,0.363 0.812,0.812 C 0.812,-0.363 0.448,0 0,0"
             style="fill:#FFE4E6;fill-opacity:1;fill-rule:nonzero;stroke:none"
             id="path102"
             inkscape:connector-curvature="0" /></g><g
           id="g104"
           transform="translate(42.5674,132.3008)"><path
             d="M 0,0 C 0.496,-0.012 0.917,0.401 0.913,0.894 0.909,1.365 0.509,1.773 0.043,1.784 -0.434,1.795 -0.838,1.412 -0.858,0.935 -0.879,0.424 -0.5,0.009 0,0"
             style="fill:#FFE4E6;fill-opacity:1;fill-rule:nonzero;stroke:none"
             id="path106"
             inkscape:connector-curvature="0" /></g><g
           id="g108"
           transform="translate(45.9649,128.7446)"><path
             d="m 0,0 c 0.543,0.036 0.872,0.457 0.857,0.889 0,0.513 -0.391,0.896 -0.904,0.887 C -0.526,1.764 -0.909,1.374 -0.909,0.895 -0.911,0.4 -0.484,-0.032 0,0"
             style="fill:#FFE4E6;fill-opacity:1;fill-rule:nonzero;stroke:none"
             id="path110"
             inkscape:connector-curvature="0" /></g><g
           id="g112"
           transform="translate(66.5484,78.9097)"><path
             d="m 0,0 c -1.023,0 -1.853,-0.83 -1.853,-1.854 0,-1.023 0.83,-1.852 1.853,-1.852 1.024,0 1.853,0.829 1.853,1.852 C 1.853,-0.83 1.024,0 0,0 m 15.913,1.742 1.941,-2.761 0.201,3.369 z m 1.658,-4.867 -5.108,6.944 1.661,0.472 0.994,-1.42 3.021,0.858 0.099,1.73 1.564,0.443 -0.687,-8.589 z M 27.99,8.144 23.993,6.142 l -0.61,1.216 5.772,2.89 0.558,-1.117 -1.452,-6.86 3.599,1.801 0.603,-1.206 -5.353,-2.68 -0.559,1.117 z m 12.948,2.831 -3.752,4.887 1.192,0.916 4.92,-6.408 -1.643,-1.262 -6.317,2.919 3.754,-4.887 -1.193,-0.916 -4.921,6.408 1.645,1.262 z m 6.785,3.541 -0.967,0.859 2.854,3.207 -1.5,1.333 -2.697,-3.032 -0.967,0.859 2.697,3.033 -1.641,1.459 -2.853,-3.207 -0.966,0.859 3.912,4.399 6.039,-5.371 z m 2.337,16.502 c 1.231,2.057 3.355,2.397 5.565,1.076 2.19,-1.31 2.804,-3.39 1.597,-5.409 -0.972,-1.626 -2.563,-2.182 -4.145,-1.547 l 0.777,1.3 c 1.12,-0.319 1.825,0.143 2.283,0.908 0.629,1.053 0.248,2.371 -1.358,3.332 -1.655,0.989 -3.017,0.712 -3.616,-0.293 -0.493,-0.822 -0.526,-1.724 0.281,-2.505 l -0.778,-1.301 c -1.289,1.017 -1.601,2.775 -0.606,4.439 m 11.643,11.229 c 1.532,-0.551 1.619,-2.419 1.113,-3.825 -0.566,-1.574 -1.972,-2.585 -3.457,-2.134 l 0.52,1.448 c 0.933,-0.205 1.507,0.466 1.763,1.179 0.249,0.692 0.266,1.564 -0.416,1.809 -0.534,0.192 -0.99,-0.154 -1.325,-0.721 l -0.537,-0.932 c -0.665,-1.159 -1.65,-2.346 -3.223,-1.78 -1.563,0.563 -1.77,2.391 -1.221,3.922 0.673,1.868 2.125,2.744 3.811,2.292 L 58.21,42.057 c -1.172,0.232 -1.787,-0.424 -2.112,-1.326 -0.241,-0.672 -0.306,-1.608 0.513,-1.902 0.65,-0.235 1.107,0.277 1.544,1.032 l 0.526,0.901 c 0.686,1.151 1.699,1.96 3.022,1.485 m -0.142,7.316 c 1.873,-0.276 3.029,0.613 3.213,1.858 0.183,1.246 -0.667,2.431 -2.541,2.706 -1.874,0.276 -3.041,-0.61 -3.225,-1.856 -0.183,-1.246 0.678,-2.432 2.553,-2.708 m 0.912,6.196 c 2.481,-0.366 3.907,-2.142 3.557,-4.523 -0.351,-2.381 -2.23,-3.67 -4.71,-3.304 -2.48,0.365 -3.919,2.143 -3.569,4.524 0.351,2.381 2.242,3.668 4.722,3.303 m 2.002,10.878 -6.155,-0.347 -0.085,1.502 8.069,0.456 0.118,-2.07 -5.973,-3.575 6.155,0.347 0.085,-1.503 -8.07,-0.455 -0.118,2.071 z m -4.701,8.796 2.804,1.879 -3.365,0.277 z m 4.903,1.549 -7.058,-4.952 -0.434,1.672 1.442,0.961 -0.79,3.041 -1.727,0.138 -0.409,1.575 8.574,-0.882 z m -11.885,8.965 c -1.034,2.161 -0.142,4.119 2.18,5.229 2.302,1.1 4.373,0.46 5.388,-1.66 0.816,-1.709 0.398,-3.342 -1.004,-4.308 l -0.653,1.367 c 0.885,0.757 0.89,1.598 0.505,2.403 -0.528,1.105 -1.836,1.517 -3.525,0.71 -1.739,-0.831 -2.26,-2.118 -1.756,-3.173 0.413,-0.865 1.147,-1.391 2.242,-1.151 l 0.654,-1.367 c -1.559,-0.511 -3.196,0.201 -4.031,1.95 m -1.457,17.578 -0.953,-0.872 -2.894,3.166 -1.48,-1.353 2.737,-2.992 -0.954,-0.872 -2.736,2.992 -1.62,-1.48 2.894,-3.165 -0.954,-0.872 -3.968,4.341 5.961,5.449 z m -14.017,12.695 -0.671,-1.104 -3.667,2.228 -1.042,-1.714 3.466,-2.107 -0.671,-1.105 -3.467,2.107 -1.141,-1.875 3.667,-2.23 -0.671,-1.105 -5.029,3.058 4.198,6.904 z m -16.829,6.829 0.465,1.207 6.138,-2.36 -0.464,-1.206 -2.331,0.895 -2.435,-6.336 -1.487,0.572 2.434,6.336 z M 9.587,122.131 c -0.256,-1.403 -0.126,-2.299 1.322,-2.564 1.448,-0.265 1.865,0.531 2.122,1.934 l 0.841,4.594 1.567,-0.287 -0.839,-4.582 c -0.478,-2.621 -1.595,-3.334 -3.92,-2.909 -2.324,0.425 -3.138,1.492 -2.657,4.112 l 0.838,4.582 1.568,-0.286 z m -12.993,4.048 -0.009,1.292 6.573,0.045 0.009,-1.293 -2.496,-0.017 0.045,-6.783 -1.592,-0.011 -0.046,6.784 z m -9.263,-3.652 1.294,0.236 c 1.217,0.222 1.677,0.737 1.535,1.515 -0.169,0.921 -0.986,1.055 -2.049,0.86 l -1.216,-0.222 z m 0.223,-1.217 0.57,-3.112 -1.568,-0.287 -1.453,7.945 2.608,0.477 c 2.62,0.48 3.753,-0.083 4.058,-1.749 0.167,-0.91 -0.142,-1.759 -1.053,-2.356 l 2.393,-3.119 -1.741,-0.318 -2.148,2.824 z m -7.351,-5.379 -2.66,7.629 1.506,0.524 2.658,-7.628 z m -8.111,-1.414 -1.177,6.254 1.498,0.789 1.298,-8.444 -1.44,-0.758 -6.246,5.839 1.528,0.804 z m -16.992,-9.705 0.939,0.922 c 0.882,0.868 0.975,1.553 0.42,2.117 -0.656,0.669 -1.408,0.32 -2.18,-0.438 l -0.883,-0.867 z m 0.867,-0.883 2.22,-2.26 -1.138,-1.118 -5.666,5.768 1.893,1.86 c 1.902,1.868 3.157,2.039 4.345,0.829 0.649,-0.66 0.87,-1.537 0.451,-2.543 l 3.735,-1.24 -1.265,-1.243 -3.365,1.135 z m -3.084,-8.585 -6.467,4.841 0.955,1.275 6.467,-4.841 z m -8.217,-6.982 c 1.261,-0.667 2.155,-0.812 2.843,0.489 0.688,1.3 0.054,1.938 -1.207,2.605 l -4.129,2.184 0.745,1.41 4.12,-2.179 c 2.355,-1.246 2.699,-2.525 1.595,-4.615 -1.106,-2.089 -2.367,-2.544 -4.723,-1.298 l -4.119,2.179 0.746,1.409 z m -5.389,-7.322 c -0.915,0.012 -1.565,-0.622 -1.819,-1.488 -0.38,-1.295 0.252,-2.467 2.113,-3.013 1.851,-0.543 3.089,0.035 3.478,1.361 0.245,0.835 0.161,2.056 -1.09,2.423 l -0.128,0.037 -0.568,-1.936 -1.251,0.368 0.981,3.347 4.118,-1.208 -0.354,-1.208 -0.922,0.224 c 0.503,-0.624 0.685,-1.549 0.365,-2.639 -0.64,-2.183 -2.622,-3.077 -5.093,-2.352 -2.407,0.706 -3.562,2.589 -2.866,4.964 0.534,1.818 1.957,2.748 3.463,2.574 z m -5.042,-10.707 1.288,-0.118 -0.391,-4.274 1.998,-0.183 0.37,4.04 1.287,-0.117 -0.37,-4.041 2.187,-0.2 0.391,4.274 1.288,-0.118 -0.536,-5.861 -8.048,0.737 z m 2.157,-18.198 c -1.621,-0.144 -2.484,1.515 -2.616,3.003 -0.148,1.666 0.704,3.174 2.241,3.388 l 0.136,-1.532 c -0.934,-0.206 -1.172,-1.056 -1.105,-1.81 0.065,-0.734 0.415,-1.531 1.137,-1.467 0.566,0.05 0.836,0.555 0.9,1.21 l 0.096,1.072 c 0.117,1.332 0.511,2.821 2.177,2.968 1.655,0.147 2.611,-1.425 2.754,-3.047 0.176,-1.977 -0.775,-3.381 -2.494,-3.679 l -0.136,1.532 c 1.162,0.283 1.444,1.136 1.359,2.091 -0.062,0.711 -0.398,1.588 -1.263,1.511 -0.689,-0.061 -0.889,-0.716 -0.968,-1.585 l -0.099,-1.039 c -0.139,-1.333 -0.719,-2.492 -2.119,-2.616 m 6.044,-15.956 -0.493,1.218 c -0.464,1.147 -1.061,1.495 -1.794,1.198 -0.868,-0.351 -0.834,-1.178 -0.428,-2.18 l 0.464,-1.147 z m 1.147,0.464 2.933,1.187 0.598,-1.477 -7.489,-3.03 -0.994,2.458 c -0.999,2.469 -0.677,3.693 0.893,4.328 0.857,0.347 1.752,0.216 2.52,-0.555 l 2.571,2.975 0.665,-1.642 -2.332,-2.674 z m -1.205,-8.686 1.09,0.696 2.31,-3.618 1.692,1.08 -2.184,3.421 1.09,0.696 2.184,-3.42 1.852,1.182 -2.311,3.618 1.09,0.696 3.169,-4.962 -6.813,-4.351 z m 12.838,-10.355 -0.896,0.963 c -0.675,0.727 -1.386,1.132 -2.17,0.404 -0.971,-0.904 -0.362,-1.722 0.229,-2.36 l 0.819,-0.881 z m -4.189,2.559 c 1.511,1.403 3.001,0.536 4.268,-0.827 l 0.827,-0.891 2.083,1.936 1.084,-1.168 -5.92,-5.501 -1.882,2.025 c -1.13,1.217 -2.249,2.765 -0.46,4.426 m 17.26,-11.571 -0.645,-3.315 2.57,2.192 z m -2.36,-4.571 1.467,8.501 1.492,-0.872 -0.336,-1.702 2.714,-1.585 1.317,1.128 1.405,-0.82 -6.674,-5.46 z m 16.613,-5.081 1.902,5.767 1.407,-0.465 -2.531,-7.671 -2.2,0.727 0.11,6.592 -3.782,-5.381 -2.221,0.733 2.529,7.67 1.408,-0.464 -1.902,-5.766 3.785,5.145 1.503,-0.496 z"
             style="fill:#FFE4E6;fill-opacity:1;fill-rule:nonzero;stroke:none"
             id="path114"
             inkscape:connector-curvature="0" /></g><g
           id="g116"
           transform="translate(14.378,29.9136)" /><g
           id="g122"
           transform="translate(57.1426,29.9136)" /><g
           id="g126"
           transform="translate(87.5909,29.9136)" /><g
           id="g130"
           transform="translate(117.0958,52.4273)" /></g></g></g></svg>